{"glyphs":{"0":{"ha":868,"x_min":49,"x_max":819,"o":"m 435 -3 q 237 50 324 -4 q 99 208 150 104 q 49 463 49 313 q 97 729 49 626 q 233 880 146 832 q 435 926 319 928 q 632 874 544 928 q 769 716 719 819 q 819 463 819 613 q 769 204 819 308 q 631 48 718 100 q 435 -3 544 -4 m 433 151 q 558 192 510 151 q 628 303 606 232 q 651 467 651 375 q 628 624 651 556 q 557 732 606 693 q 433 771 508 771 q 310 731 357 771 q 240 622 263 692 q 217 463 217 553 q 240 303 217 374 q 310 192 263 232 q 433 151 357 151 z "},"1":{"ha":465,"x_min":72,"x_max":326,"o":"m 72 917 l 326 917 l 326 0 l 164 0 l 164 761 l 72 761 l 72 917 z "},"2":{"ha":778,"x_min":53,"x_max":714,"o":"m 75 0 q 242 169 161 88 q 386 328 322 251 q 487 476 450 404 q 524 617 524 549 q 476 734 524 696 q 364 772 429 772 q 277 751 311 772 q 226 699 243 731 q 210 638 210 668 q 224 556 210 592 q 264 494 239 521 l 165 404 q 104 465 129 424 q 66 553 79 507 q 53 633 53 599 q 92 776 53 708 q 207 885 132 843 q 392 928 282 928 q 549 886 482 928 q 654 777 617 844 q 692 631 692 710 q 653 466 692 546 q 553 310 614 386 q 426 156 492 233 l 714 156 l 714 0 l 75 0 z "},"3":{"ha":729,"x_min":67,"x_max":643,"o":"m 618 917 l 422 581 q 531 544 481 574 q 612 457 581 515 q 643 306 643 399 q 598 136 643 207 q 478 27 553 65 q 317 -11 404 -11 q 179 17 249 -11 q 67 90 110 44 l 149 224 q 217 169 172 194 q 313 144 263 144 q 426 190 376 144 q 476 315 476 235 q 434 428 476 386 q 319 471 392 471 q 254 466 279 471 q 207 454 229 461 l 203 458 l 385 761 l 129 761 l 129 917 l 618 917 z "},"4":{"ha":754,"x_min":15,"x_max":703,"o":"m 15 213 l 15 214 l 586 928 l 588 928 l 588 336 l 703 336 l 703 213 l 588 213 l 588 0 l 425 0 l 425 213 l 15 213 m 425 336 l 425 556 l 256 336 l 425 336 z "},"5":{"ha":724,"x_min":76,"x_max":646,"o":"m 339 -11 q 190 17 261 -11 q 76 88 118 46 l 161 215 q 234 164 188 183 q 325 144 281 144 q 435 186 390 144 q 479 299 479 228 q 436 424 479 375 q 314 472 393 472 q 227 460 268 472 q 139 419 186 447 l 138 419 l 138 917 l 583 917 l 583 761 l 276 761 l 276 600 q 353 608 314 608 q 513 566 447 608 q 612 455 578 524 q 646 304 646 386 q 606 144 646 215 q 496 31 565 72 q 339 -11 426 -11 z "},"6":{"ha":765,"x_min":47,"x_max":715,"o":"m 388 -11 q 215 34 292 -11 q 92 165 138 79 q 47 369 47 250 q 81 536 47 457 q 173 687 115 615 q 305 819 231 758 q 460 932 379 881 l 568 814 q 367 681 444 758 q 256 526 290 603 q 335 577 290 560 q 442 594 381 594 q 574 556 511 594 q 676 452 636 518 q 715 300 715 386 q 668 133 715 203 q 547 26 621 64 q 388 -11 472 -11 m 381 133 q 499 178 451 133 q 547 300 547 222 q 499 416 547 374 q 381 458 450 458 q 263 417 311 458 q 214 319 214 376 l 214 292 q 236 214 214 250 q 296 156 258 178 q 381 133 333 133 z "},"7":{"ha":688,"x_min":49,"x_max":656,"o":"m 656 917 l 299 0 l 118 0 l 421 761 l 49 761 l 49 917 l 656 917 z "},"8":{"ha":732,"x_min":32,"x_max":700,"o":"m 32 293 q 58 414 32 363 q 124 499 85 465 q 203 553 164 533 q 142 619 167 582 q 117 717 117 656 q 150 826 117 778 q 240 901 183 874 q 365 928 296 928 q 492 901 435 928 q 583 828 550 874 q 617 724 617 782 q 591 619 617 657 q 528 553 565 582 q 606 498 567 532 q 673 413 646 464 q 700 293 700 361 q 656 143 700 213 q 535 31 611 74 q 364 -11 460 -11 q 193 31 268 -11 q 75 143 118 74 q 32 293 32 213 m 274 697 q 303 633 274 660 q 369 607 332 607 q 434 633 406 607 q 463 697 463 660 q 434 765 463 738 q 369 793 406 793 q 303 765 332 793 q 274 697 274 738 m 197 299 q 219 212 197 251 q 280 149 242 172 q 364 125 318 125 q 451 149 411 125 q 515 212 490 172 q 539 299 539 251 q 516 385 539 346 q 456 447 493 424 q 371 472 418 471 q 285 451 325 474 q 222 388 246 428 q 197 299 197 349 z "},"9":{"ha":751,"x_min":47,"x_max":715,"o":"m 321 294 q 190 332 253 294 q 87 436 126 369 q 47 588 47 503 q 94 765 47 692 q 217 878 142 839 q 376 918 292 918 q 548 876 471 918 q 670 758 625 833 q 715 588 715 683 q 675 387 715 476 q 568 225 635 297 q 421 92 501 153 q 260 -21 340 32 l 151 97 q 348 213 264 150 q 479 338 432 275 q 410 306 449 317 q 321 294 371 294 m 382 431 q 501 474 454 431 q 549 582 549 518 l 549 610 q 526 691 549 654 q 466 751 503 728 q 382 774 429 774 q 264 727 313 774 q 215 600 215 681 q 264 476 215 521 q 382 431 313 431 z "},"A":{"ha":971,"x_min":33,"x_max":938,"o":"m 33 0 l 481 1053 l 490 1053 l 938 0 l 751 0 l 658 238 l 290 238 l 193 0 l 33 0 m 347 376 l 604 376 l 478 694 l 347 376 z "},"Á":{"ha":971,"x_min":33,"x_max":938,"o":"m 33 0 l 481 1053 l 490 1053 l 938 0 l 751 0 l 658 238 l 290 238 l 193 0 l 33 0 m 347 376 l 604 376 l 478 694 l 347 376 z "},"Ă":{"ha":971,"x_min":33,"x_max":938,"o":"m 33 0 l 481 1053 l 490 1053 l 938 0 l 751 0 l 658 238 l 290 238 l 193 0 l 33 0 m 347 376 l 604 376 l 478 694 l 347 376 z "},"Ắ":{"ha":971,"x_min":33,"x_max":938,"o":"m 33 0 l 481 1053 l 490 1053 l 938 0 l 751 0 l 658 238 l 290 238 l 193 0 l 33 0 m 347 376 l 604 376 l 478 694 l 347 376 z "},"Ặ":{"ha":971,"x_min":33,"x_max":938,"o":"m 33 0 l 481 1053 l 490 1053 l 938 0 l 751 0 l 658 238 l 290 238 l 193 0 l 33 0 m 347 376 l 604 376 l 478 694 l 347 376 z "},"Ằ":{"ha":971,"x_min":33,"x_max":938,"o":"m 33 0 l 481 1053 l 490 1053 l 938 0 l 751 0 l 658 238 l 290 238 l 193 0 l 33 0 m 347 376 l 604 376 l 478 694 l 347 376 z "},"Ẳ":{"ha":971,"x_min":33,"x_max":938,"o":"m 33 0 l 481 1053 l 490 1053 l 938 0 l 751 0 l 658 238 l 290 238 l 193 0 l 33 0 m 347 376 l 604 376 l 478 694 l 347 376 z "},"Ẵ":{"ha":971,"x_min":33,"x_max":938,"o":"m 33 0 l 481 1053 l 490 1053 l 938 0 l 751 0 l 658 238 l 290 238 l 193 0 l 33 0 m 347 376 l 604 376 l 478 694 l 347 376 m 590 1454 q 515 1474 544 1454 q 460 1515 485 1494 q 428 1542 444 1531 q 393 1553 413 1553 q 353 1524 367 1553 q 342 1454 340 1494 l 261 1454 q 272 1553 257 1508 q 321 1626 288 1599 q 401 1653 354 1653 q 463 1634 436 1653 q 514 1593 490 1615 q 551 1562 533 1575 q 588 1549 568 1549 q 624 1579 614 1549 q 632 1653 633 1610 l 713 1653 q 686 1509 724 1564 q 590 1454 649 1454 z "},"Â":{"ha":971,"x_min":33,"x_max":938,"o":"m 33 0 l 481 1053 l 490 1053 l 938 0 l 751 0 l 658 238 l 290 238 l 193 0 l 33 0 m 347 376 l 604 376 l 478 694 l 347 376 z "},"Ấ":{"ha":971,"x_min":33,"x_max":938,"o":"m 33 0 l 481 1053 l 490 1053 l 938 0 l 751 0 l 658 238 l 290 238 l 193 0 l 33 0 m 347 376 l 604 376 l 478 694 l 347 376 z "},"Ậ":{"ha":971,"x_min":33,"x_max":938,"o":"m 33 0 l 481 1053 l 490 1053 l 938 0 l 751 0 l 658 238 l 290 238 l 193 0 l 33 0 m 347 376 l 604 376 l 478 694 l 347 376 z "},"Ầ":{"ha":971,"x_min":33,"x_max":938,"o":"m 33 0 l 481 1053 l 490 1053 l 938 0 l 751 0 l 658 238 l 290 238 l 193 0 l 33 0 m 347 376 l 604 376 l 478 694 l 347 376 z "},"Ẩ":{"ha":971,"x_min":33,"x_max":938,"o":"m 33 0 l 481 1053 l 490 1053 l 938 0 l 751 0 l 658 238 l 290 238 l 193 0 l 33 0 m 347 376 l 604 376 l 478 694 l 347 376 z "},"Ẫ":{"ha":971,"x_min":33,"x_max":938,"o":"m 33 0 l 481 1053 l 490 1053 l 938 0 l 751 0 l 658 238 l 290 238 l 193 0 l 33 0 m 347 376 l 604 376 l 478 694 l 347 376 z "},"Ȁ":{"ha":971,"x_min":33,"x_max":938,"o":"m 33 0 l 481 1053 l 490 1053 l 938 0 l 751 0 l 658 238 l 290 238 l 193 0 l 33 0 m 347 376 l 604 376 l 478 694 l 347 376 z "},"Ä":{"ha":971,"x_min":33,"x_max":938,"o":"m 33 0 l 481 1053 l 490 1053 l 938 0 l 751 0 l 658 238 l 290 238 l 193 0 l 33 0 m 347 376 l 604 376 l 478 694 l 347 376 z "},"Ạ":{"ha":971,"x_min":33,"x_max":938,"o":"m 33 0 l 481 1053 l 490 1053 l 938 0 l 751 0 l 658 238 l 290 238 l 193 0 l 33 0 m 347 376 l 604 376 l 478 694 l 347 376 z "},"À":{"ha":971,"x_min":33,"x_max":938,"o":"m 33 0 l 481 1053 l 490 1053 l 938 0 l 751 0 l 658 238 l 290 238 l 193 0 l 33 0 m 347 376 l 604 376 l 478 694 l 347 376 z "},"Ả":{"ha":971,"x_min":33,"x_max":938,"o":"m 33 0 l 481 1053 l 490 1053 l 938 0 l 751 0 l 658 238 l 290 238 l 193 0 l 33 0 m 347 376 l 604 376 l 478 694 l 347 376 z "},"Ȃ":{"ha":971,"x_min":33,"x_max":938,"o":"m 33 0 l 481 1053 l 490 1053 l 938 0 l 751 0 l 658 238 l 290 238 l 193 0 l 33 0 m 347 376 l 604 376 l 478 694 l 347 376 m 479 1318 q 626 1254 571 1318 q 699 1067 681 1190 l 593 1067 q 557 1172 583 1131 q 479 1213 531 1213 q 401 1172 426 1213 q 365 1067 376 1131 l 261 1067 q 479 1318 296 1318 z "},"Ā":{"ha":971,"x_min":33,"x_max":938,"o":"m 33 0 l 481 1053 l 490 1053 l 938 0 l 751 0 l 658 238 l 290 238 l 193 0 l 33 0 m 347 376 l 604 376 l 478 694 l 347 376 z "},"Ą":{"ha":971,"x_min":33,"x_max":990,"o":"m 33 0 l 481 1053 l 490 1053 l 938 0 l 751 0 l 658 238 l 290 238 l 193 0 l 33 0 m 347 376 l 604 376 l 478 694 l 347 376 z "},"Å":{"ha":971,"x_min":33,"x_max":938,"o":"m 33 0 l 481 1053 l 490 1053 l 938 0 l 751 0 l 658 238 l 290 238 l 193 0 l 33 0 m 347 376 l 604 376 l 478 694 l 347 376 z "},"Ǻ":{"ha":971,"x_min":33,"x_max":938,"o":"m 33 0 l 481 1053 l 490 1053 l 938 0 l 751 0 l 658 238 l 290 238 l 193 0 l 33 0 m 347 376 l 604 376 l 478 694 l 347 376 z "},"Ã":{"ha":971,"x_min":33,"x_max":938,"o":"m 33 0 l 481 1053 l 490 1053 l 938 0 l 751 0 l 658 238 l 290 238 l 193 0 l 33 0 m 347 376 l 604 376 l 478 694 l 347 376 m 592 1149 q 516 1169 546 1149 q 461 1210 486 1189 q 430 1236 446 1225 q 394 1247 414 1247 q 355 1218 368 1247 q 343 1149 342 1189 l 263 1149 q 274 1248 258 1203 q 322 1320 289 1293 q 403 1347 356 1347 q 465 1328 438 1347 q 515 1288 492 1310 q 552 1256 535 1269 q 589 1243 569 1243 q 625 1274 615 1243 q 633 1347 635 1304 l 714 1347 q 688 1203 725 1258 q 592 1149 650 1149 z "},"Æ":{"ha":1329,"x_min":14,"x_max":1244,"o":"m 200 0 l 14 0 l 668 1011 l 1225 1011 l 1225 856 l 829 856 l 829 583 l 1169 583 l 1169 428 l 829 428 l 829 156 l 1244 156 l 1244 0 l 668 0 l 668 239 l 346 239 l 200 0 m 424 367 l 668 367 l 668 765 l 424 367 z "},"Ǽ":{"ha":1329,"x_min":14,"x_max":1244,"o":"m 200 0 l 14 0 l 668 1011 l 1225 1011 l 1225 856 l 829 856 l 829 583 l 1169 583 l 1169 428 l 829 428 l 829 156 l 1244 156 l 1244 0 l 668 0 l 668 239 l 346 239 l 200 0 m 424 367 l 668 367 l 668 765 l 424 367 z "},"B":{"ha":875,"x_min":139,"x_max":799,"o":"m 415 1011 q 659 948 569 1011 q 749 757 749 885 q 714 619 749 678 q 618 528 679 561 q 749 433 700 493 q 799 290 799 372 q 749 122 799 185 q 622 29 700 58 q 454 0 543 0 l 139 0 l 139 1011 l 415 1011 m 442 581 q 548 623 514 581 q 582 722 582 665 q 539 824 582 792 q 422 856 496 856 l 301 856 l 301 581 l 442 581 m 447 150 q 578 184 524 150 q 632 289 632 218 q 603 371 632 342 q 528 413 574 400 q 436 425 483 425 l 301 425 l 301 150 l 447 150 z "},"C":{"ha":965,"x_min":76,"x_max":889,"o":"m 889 79 q 823 42 867 64 q 718 3 779 19 q 585 -11 657 -12 q 372 31 467 -10 q 212 142 278 72 q 111 303 146 213 q 76 497 76 394 q 113 708 76 613 q 216 874 150 804 q 373 983 282 944 q 574 1022 464 1022 q 745 997 669 1022 q 872 939 821 971 l 808 788 q 711 840 769 814 q 579 867 653 867 q 413 819 489 867 q 291 690 338 771 q 244 507 244 608 q 287 319 244 401 q 406 191 329 238 q 589 144 483 144 q 726 169 668 144 q 821 224 785 193 l 889 79 z "},"Ć":{"ha":965,"x_min":76,"x_max":889,"o":"m 889 79 q 823 42 867 64 q 718 3 779 19 q 585 -11 657 -12 q 372 31 467 -10 q 212 142 278 72 q 111 303 146 213 q 76 497 76 394 q 113 708 76 613 q 216 874 150 804 q 373 983 282 944 q 574 1022 464 1022 q 745 997 669 1022 q 872 939 821 971 l 808 788 q 711 840 769 814 q 579 867 653 867 q 413 819 489 867 q 291 690 338 771 q 244 507 244 608 q 287 319 244 401 q 406 191 329 238 q 589 144 483 144 q 726 169 668 144 q 821 224 785 193 l 889 79 z "},"Č":{"ha":965,"x_min":76,"x_max":889,"o":"m 889 79 q 823 42 867 64 q 718 3 779 19 q 585 -11 657 -12 q 372 31 467 -10 q 212 142 278 72 q 111 303 146 213 q 76 497 76 394 q 113 708 76 613 q 216 874 150 804 q 373 983 282 944 q 574 1022 464 1022 q 745 997 669 1022 q 872 939 821 971 l 808 788 q 711 840 769 814 q 579 867 653 867 q 413 819 489 867 q 291 690 338 771 q 244 507 244 608 q 287 319 244 401 q 406 191 329 238 q 589 144 483 144 q 726 169 668 144 q 821 224 785 193 l 889 79 z "},"Ç":{"ha":965,"x_min":76,"x_max":889,"o":"m 889 79 q 823 42 867 64 q 718 3 779 19 q 585 -11 657 -12 q 372 31 467 -10 q 212 142 278 72 q 111 303 146 213 q 76 497 76 394 q 113 708 76 613 q 216 874 150 804 q 373 983 282 944 q 574 1022 464 1022 q 745 997 669 1022 q 872 939 821 971 l 808 788 q 711 840 769 814 q 579 867 653 867 q 413 819 489 867 q 291 690 338 771 q 244 507 244 608 q 287 319 244 401 q 406 191 329 238 q 589 144 483 144 q 726 169 668 144 q 821 224 785 193 l 889 79 z "},"Ĉ":{"ha":965,"x_min":76,"x_max":889,"o":"m 889 79 q 823 42 867 64 q 718 3 779 19 q 585 -11 657 -12 q 372 31 467 -10 q 212 142 278 72 q 111 303 146 213 q 76 497 76 394 q 113 708 76 613 q 216 874 150 804 q 373 983 282 944 q 574 1022 464 1022 q 745 997 669 1022 q 872 939 821 971 l 808 788 q 711 840 769 814 q 579 867 653 867 q 413 819 489 867 q 291 690 338 771 q 244 507 244 608 q 287 319 244 401 q 406 191 329 238 q 589 144 483 144 q 726 169 668 144 q 821 224 785 193 l 889 79 z "},"Ċ":{"ha":965,"x_min":76,"x_max":889,"o":"m 889 79 q 823 42 867 64 q 718 3 779 19 q 585 -11 657 -12 q 372 31 467 -10 q 212 142 278 72 q 111 303 146 213 q 76 497 76 394 q 113 708 76 613 q 216 874 150 804 q 373 983 282 944 q 574 1022 464 1022 q 745 997 669 1022 q 872 939 821 971 l 808 788 q 711 840 769 814 q 579 867 653 867 q 413 819 489 867 q 291 690 338 771 q 244 507 244 608 q 287 319 244 401 q 406 191 329 238 q 589 144 483 144 q 726 169 668 144 q 821 224 785 193 l 889 79 z "},"D":{"ha":1057,"x_min":139,"x_max":979,"o":"m 139 0 l 139 1011 l 426 1011 q 683 966 578 1011 q 854 845 789 921 q 949 677 919 769 q 979 492 979 585 q 939 287 979 378 q 828 132 899 196 q 667 34 758 68 q 475 0 576 0 l 139 0 m 301 156 l 446 156 q 635 196 553 156 q 765 313 718 236 q 813 503 813 390 q 781 665 813 597 q 699 774 750 732 q 589 837 649 817 q 471 857 529 857 l 301 857 l 301 156 z "},"Ǆ":{"ha":1958,"x_min":139,"x_max":1885,"o":"m 139 0 l 139 1011 l 426 1011 q 683 966 578 1011 q 854 845 789 921 q 949 677 919 769 q 979 492 979 585 q 939 287 979 378 q 828 132 899 196 q 667 34 758 68 q 475 0 576 0 l 139 0 m 301 156 l 446 156 q 635 196 553 156 q 765 313 718 236 q 813 503 813 390 q 781 665 813 597 q 699 774 750 732 q 589 837 649 817 q 471 857 529 857 l 301 857 l 301 156 z "},"Ð":{"ha":1057,"x_min":25,"x_max":979,"o":"m 139 0 l 139 1011 l 426 1011 q 683 966 578 1011 q 854 845 789 921 q 949 677 919 769 q 979 492 979 585 q 939 287 979 378 q 828 132 899 196 q 667 34 758 68 q 475 0 576 0 l 139 0 m 301 156 l 446 156 q 635 196 553 156 q 765 313 718 236 q 813 503 813 390 q 781 665 813 597 q 699 774 750 732 q 589 837 649 817 q 471 857 529 857 l 301 857 l 301 156 m 25 574 l 432 574 l 432 429 l 25 429 l 25 574 z "},"Ď":{"ha":1057,"x_min":139,"x_max":979,"o":"m 139 0 l 139 1011 l 426 1011 q 683 966 578 1011 q 854 845 789 921 q 949 677 919 769 q 979 492 979 585 q 939 287 979 378 q 828 132 899 196 q 667 34 758 68 q 475 0 576 0 l 139 0 m 301 156 l 446 156 q 635 196 553 156 q 765 313 718 236 q 813 503 813 390 q 781 665 813 597 q 699 774 750 732 q 589 837 649 817 q 471 857 529 857 l 301 857 l 301 156 z "},"Đ":{"ha":1069,"x_min":39,"x_max":993,"o":"m 153 0 l 153 1011 l 440 1011 q 697 966 592 1011 q 868 845 803 921 q 963 677 933 769 q 993 492 993 585 q 953 287 993 378 q 842 132 913 196 q 681 34 772 68 q 489 0 590 0 l 153 0 m 315 156 l 460 156 q 649 196 567 156 q 779 313 732 236 q 826 503 826 390 q 795 665 826 597 q 713 774 764 732 q 603 837 663 817 q 485 857 543 857 l 315 857 l 315 156 m 39 574 l 446 574 l 446 429 l 39 429 l 39 574 z "},"ǅ":{"ha":1732,"x_min":139,"x_max":1661,"o":"m 139 0 l 139 1011 l 426 1011 q 683 966 578 1011 q 854 845 789 921 q 949 677 919 769 q 979 492 979 585 q 939 287 979 378 q 828 132 899 196 q 667 34 758 68 q 475 0 576 0 l 139 0 m 301 156 l 446 156 q 635 196 553 156 q 765 313 718 236 q 813 503 813 390 q 781 665 813 597 q 699 774 750 732 q 589 837 649 817 q 471 857 529 857 l 301 857 l 301 156 z "},"E":{"ha":914,"x_min":139,"x_max":829,"o":"m 139 1011 l 810 1011 l 810 856 l 301 856 l 301 586 l 754 586 l 754 431 l 301 431 l 301 156 l 829 156 l 829 0 l 139 0 l 139 1011 z "},"É":{"ha":914,"x_min":139,"x_max":829,"o":"m 139 1011 l 810 1011 l 810 856 l 301 856 l 301 586 l 754 586 l 754 431 l 301 431 l 301 156 l 829 156 l 829 0 l 139 0 l 139 1011 z "},"Ĕ":{"ha":914,"x_min":139,"x_max":829,"o":"m 139 1011 l 810 1011 l 810 856 l 301 856 l 301 586 l 754 586 l 754 431 l 301 431 l 301 156 l 829 156 l 829 0 l 139 0 l 139 1011 z "},"Ě":{"ha":914,"x_min":139,"x_max":829,"o":"m 139 1011 l 810 1011 l 810 856 l 301 856 l 301 586 l 754 586 l 754 431 l 301 431 l 301 156 l 829 156 l 829 0 l 139 0 l 139 1011 z "},"Ê":{"ha":914,"x_min":139,"x_max":829,"o":"m 139 1011 l 810 1011 l 810 856 l 301 856 l 301 586 l 754 586 l 754 431 l 301 431 l 301 156 l 829 156 l 829 0 l 139 0 l 139 1011 z "},"Ế":{"ha":914,"x_min":139,"x_max":879,"o":"m 139 1011 l 810 1011 l 810 856 l 301 856 l 301 586 l 754 586 l 754 431 l 301 431 l 301 156 l 829 156 l 829 0 l 139 0 l 139 1011 z "},"Ệ":{"ha":914,"x_min":139,"x_max":829,"o":"m 139 1011 l 810 1011 l 810 856 l 301 856 l 301 586 l 754 586 l 754 431 l 301 431 l 301 156 l 829 156 l 829 0 l 139 0 l 139 1011 z "},"Ề":{"ha":914,"x_min":19,"x_max":829,"o":"m 139 1011 l 810 1011 l 810 856 l 301 856 l 301 586 l 754 586 l 754 431 l 301 431 l 301 156 l 829 156 l 829 0 l 139 0 l 139 1011 z "},"Ể":{"ha":914,"x_min":139,"x_max":850,"o":"m 139 1011 l 810 1011 l 810 856 l 301 856 l 301 586 l 754 586 l 754 431 l 301 431 l 301 156 l 829 156 l 829 0 l 139 0 l 139 1011 z "},"Ễ":{"ha":914,"x_min":139,"x_max":829,"o":"m 139 1011 l 810 1011 l 810 856 l 301 856 l 301 586 l 754 586 l 754 431 l 301 431 l 301 156 l 829 156 l 829 0 l 139 0 l 139 1011 z "},"Ȅ":{"ha":914,"x_min":139,"x_max":829,"o":"m 139 1011 l 810 1011 l 810 856 l 301 856 l 301 586 l 754 586 l 754 431 l 301 431 l 301 156 l 829 156 l 829 0 l 139 0 l 139 1011 z "},"Ë":{"ha":914,"x_min":139,"x_max":829,"o":"m 139 1011 l 810 1011 l 810 856 l 301 856 l 301 586 l 754 586 l 754 431 l 301 431 l 301 156 l 829 156 l 829 0 l 139 0 l 139 1011 z "},"Ė":{"ha":914,"x_min":139,"x_max":829,"o":"m 139 1011 l 810 1011 l 810 856 l 301 856 l 301 586 l 754 586 l 754 431 l 301 431 l 301 156 l 829 156 l 829 0 l 139 0 l 139 1011 z "},"Ẹ":{"ha":914,"x_min":139,"x_max":829,"o":"m 139 1011 l 810 1011 l 810 856 l 301 856 l 301 586 l 754 586 l 754 431 l 301 431 l 301 156 l 829 156 l 829 0 l 139 0 l 139 1011 z "},"È":{"ha":914,"x_min":139,"x_max":829,"o":"m 139 1011 l 810 1011 l 810 856 l 301 856 l 301 586 l 754 586 l 754 431 l 301 431 l 301 156 l 829 156 l 829 0 l 139 0 l 139 1011 z "},"Ẻ":{"ha":914,"x_min":139,"x_max":829,"o":"m 139 1011 l 810 1011 l 810 856 l 301 856 l 301 586 l 754 586 l 754 431 l 301 431 l 301 156 l 829 156 l 829 0 l 139 0 l 139 1011 z "},"Ȇ":{"ha":914,"x_min":139,"x_max":829,"o":"m 139 1011 l 810 1011 l 810 856 l 301 856 l 301 586 l 754 586 l 754 431 l 301 431 l 301 156 l 829 156 l 829 0 l 139 0 l 139 1011 m 464 1296 q 610 1232 556 1296 q 683 1044 665 1168 l 578 1044 q 542 1149 568 1108 q 464 1190 515 1190 q 386 1149 411 1190 q 350 1044 361 1108 l 246 1044 q 464 1296 281 1296 z "},"Ē":{"ha":914,"x_min":139,"x_max":829,"o":"m 139 1011 l 810 1011 l 810 856 l 301 856 l 301 586 l 754 586 l 754 431 l 301 431 l 301 156 l 829 156 l 829 0 l 139 0 l 139 1011 z "},"Ę":{"ha":914,"x_min":139,"x_max":882,"o":"m 139 1011 l 810 1011 l 810 856 l 301 856 l 301 586 l 754 586 l 754 431 l 301 431 l 301 156 l 829 156 l 829 0 l 139 0 l 139 1011 z "},"Ẽ":{"ha":914,"x_min":139,"x_max":829,"o":"m 139 1011 l 810 1011 l 810 856 l 301 856 l 301 586 l 754 586 l 754 431 l 301 431 l 301 156 l 829 156 l 829 0 l 139 0 l 139 1011 m 578 1126 q 502 1147 532 1126 q 447 1188 472 1167 q 416 1214 432 1203 q 381 1225 400 1225 q 341 1196 354 1225 q 329 1126 328 1167 l 249 1126 q 260 1226 244 1181 q 308 1298 275 1271 q 389 1325 342 1325 q 451 1306 424 1325 q 501 1265 478 1288 q 538 1234 521 1247 q 575 1221 556 1221 q 611 1251 601 1221 q 619 1325 621 1282 l 700 1325 q 674 1181 711 1236 q 578 1126 636 1126 z "},"F":{"ha":824,"x_min":139,"x_max":753,"o":"m 139 1011 l 753 1011 l 753 856 l 301 856 l 301 571 l 694 571 l 694 417 l 301 417 l 301 0 l 139 0 l 139 1011 z "},"G":{"ha":1050,"x_min":76,"x_max":943,"o":"m 943 93 q 860 44 917 68 q 735 5 803 21 q 608 -11 668 -11 q 326 53 446 -11 q 142 229 207 118 q 76 482 76 340 q 118 715 76 614 q 232 885 160 817 q 398 988 304 953 q 596 1022 492 1022 q 765 1001 688 1022 q 900 949 843 981 l 847 799 q 778 828 819 814 q 694 851 738 843 q 617 860 651 860 q 344 764 444 860 q 243 496 243 668 q 290 314 243 392 q 420 193 338 236 q 613 150 503 150 q 704 158 660 150 q 781 185 749 167 l 781 353 l 590 353 l 590 508 l 943 508 l 943 93 z "},"Ğ":{"ha":1050,"x_min":76,"x_max":943,"o":"m 943 93 q 860 44 917 68 q 735 5 803 21 q 608 -11 668 -11 q 326 53 446 -11 q 142 229 207 118 q 76 482 76 340 q 118 715 76 614 q 232 885 160 817 q 398 988 304 953 q 596 1022 492 1022 q 765 1001 688 1022 q 900 949 843 981 l 847 799 q 778 828 819 814 q 694 851 738 843 q 617 860 651 860 q 344 764 444 860 q 243 496 243 668 q 290 314 243 392 q 420 193 338 236 q 613 150 503 150 q 704 158 660 150 q 781 185 749 167 l 781 353 l 590 353 l 590 508 l 943 508 l 943 93 z "},"Ǧ":{"ha":1050,"x_min":76,"x_max":943,"o":"m 943 93 q 860 44 917 68 q 735 5 803 21 q 608 -11 668 -11 q 326 53 446 -11 q 142 229 207 118 q 76 482 76 340 q 118 715 76 614 q 232 885 160 817 q 398 988 304 953 q 596 1022 492 1022 q 765 1001 688 1022 q 900 949 843 981 l 847 799 q 778 828 819 814 q 694 851 738 843 q 617 860 651 860 q 344 764 444 860 q 243 496 243 668 q 290 314 243 392 q 420 193 338 236 q 613 150 503 150 q 704 158 660 150 q 781 185 749 167 l 781 353 l 590 353 l 590 508 l 943 508 l 943 93 z "},"Ĝ":{"ha":1050,"x_min":76,"x_max":943,"o":"m 943 93 q 860 44 917 68 q 735 5 803 21 q 608 -11 668 -11 q 326 53 446 -11 q 142 229 207 118 q 76 482 76 340 q 118 715 76 614 q 232 885 160 817 q 398 988 304 953 q 596 1022 492 1022 q 765 1001 688 1022 q 900 949 843 981 l 847 799 q 778 828 819 814 q 694 851 738 843 q 617 860 651 860 q 344 764 444 860 q 243 496 243 668 q 290 314 243 392 q 420 193 338 236 q 613 150 503 150 q 704 158 660 150 q 781 185 749 167 l 781 353 l 590 353 l 590 508 l 943 508 l 943 93 z "},"Ģ":{"ha":1050,"x_min":76,"x_max":943,"o":"m 943 93 q 860 44 917 68 q 735 5 803 21 q 608 -11 668 -11 q 326 53 446 -11 q 142 229 207 118 q 76 482 76 340 q 118 715 76 614 q 232 885 160 817 q 398 988 304 953 q 596 1022 492 1022 q 765 1001 688 1022 q 900 949 843 981 l 847 799 q 778 828 819 814 q 694 851 738 843 q 617 860 651 860 q 344 764 444 860 q 243 496 243 668 q 290 314 243 392 q 420 193 338 236 q 613 150 503 150 q 704 158 660 150 q 781 185 749 167 l 781 353 l 590 353 l 590 508 l 943 508 l 943 93 z "},"Ġ":{"ha":1050,"x_min":76,"x_max":943,"o":"m 943 93 q 860 44 917 68 q 735 5 803 21 q 608 -11 668 -11 q 326 53 446 -11 q 142 229 207 118 q 76 482 76 340 q 118 715 76 614 q 232 885 160 817 q 398 988 304 953 q 596 1022 492 1022 q 765 1001 688 1022 q 900 949 843 981 l 847 799 q 778 828 819 814 q 694 851 738 843 q 617 860 651 860 q 344 764 444 860 q 243 496 243 668 q 290 314 243 392 q 420 193 338 236 q 613 150 503 150 q 704 158 660 150 q 781 185 749 167 l 781 353 l 590 353 l 590 508 l 943 508 l 943 93 z "},"H":{"ha":1100,"x_min":139,"x_max":961,"o":"m 961 1011 l 961 0 l 799 0 l 799 431 l 301 431 l 301 0 l 139 0 l 139 1011 l 301 1011 l 301 585 l 799 585 l 799 1011 l 961 1011 z "},"Ħ":{"ha":1328,"x_min":139,"x_max":1189,"o":"m 139 811 l 254 811 l 254 1011 l 415 1011 l 415 811 l 914 811 l 914 1011 l 1075 1011 l 1075 811 l 1189 811 l 1189 692 l 1075 692 l 1075 0 l 914 0 l 914 431 l 415 431 l 415 0 l 254 0 l 254 692 l 139 692 l 139 811 m 415 585 l 914 585 l 914 692 l 415 692 l 415 585 z "},"Ĥ":{"ha":1100,"x_min":139,"x_max":961,"o":"m 961 1011 l 961 0 l 799 0 l 799 431 l 301 431 l 301 0 l 139 0 l 139 1011 l 301 1011 l 301 585 l 799 585 l 799 1011 l 961 1011 z "},"I":{"ha":440,"x_min":139,"x_max":301,"o":"m 139 1011 l 301 1011 l 301 0 l 139 0 l 139 1011 z "},"Ĳ":{"ha":967,"x_min":139,"x_max":828,"o":"m 139 1011 l 301 1011 l 301 0 l 139 0 l 139 1011 m 828 196 q 778 -20 828 69 q 643 -158 729 -110 q 446 -210 557 -206 l 446 -53 q 603 12 542 -47 q 665 200 665 71 l 665 1011 l 828 1011 l 828 196 z "},"Í":{"ha":440,"x_min":139,"x_max":453,"o":"m 139 1011 l 301 1011 l 301 0 l 139 0 l 139 1011 z "},"Ĭ":{"ha":440,"x_min":3,"x_max":439,"o":"m 139 1011 l 301 1011 l 301 0 l 139 0 l 139 1011 z "},"Î":{"ha":440,"x_min":-31,"x_max":456,"o":"m 139 1011 l 301 1011 l 301 0 l 139 0 l 139 1011 z "},"Ȉ":{"ha":440,"x_min":-78,"x_max":403,"o":"m 139 1011 l 301 1011 l 301 0 l 139 0 l 139 1011 z "},"Ï":{"ha":440,"x_min":-3,"x_max":431,"o":"m 139 1011 l 301 1011 l 301 0 l 139 0 l 139 1011 z "},"İ":{"ha":440,"x_min":133,"x_max":310,"o":"m 139 1011 l 301 1011 l 301 0 l 139 0 l 139 1011 z "},"Ị":{"ha":440,"x_min":129,"x_max":306,"o":"m 139 1011 l 301 1011 l 301 0 l 139 0 l 139 1011 z "},"Ì":{"ha":440,"x_min":-8,"x_max":301,"o":"m 139 1011 l 301 1011 l 301 0 l 139 0 l 139 1011 z "},"Ỉ":{"ha":440,"x_min":108,"x_max":357,"o":"m 139 1011 l 301 1011 l 301 0 l 139 0 l 139 1011 z "},"Ȋ":{"ha":440,"x_min":-4,"x_max":433,"o":"m 139 1011 l 301 1011 l 301 0 l 139 0 l 139 1011 m 214 1296 q 360 1232 306 1296 q 433 1044 415 1168 l 328 1044 q 292 1149 318 1108 q 214 1190 265 1190 q 136 1149 161 1190 q 100 1044 111 1108 l -4 1044 q 214 1296 31 1296 z "},"Ī":{"ha":440,"x_min":43,"x_max":389,"o":"m 139 1011 l 301 1011 l 301 0 l 139 0 l 139 1011 z "},"Į":{"ha":386,"x_min":15,"x_max":364,"o":"m 194 -308 q 67 -269 119 -308 q 15 -157 15 -231 q 48 -65 15 -108 q 138 4 81 -21 l 139 4 l 139 1011 l 301 1011 l 301 0 l 294 0 q 185 -60 226 -29 q 144 -133 144 -90 q 165 -183 144 -169 q 210 -197 185 -197 q 306 -131 263 -197 l 364 -211 q 288 -281 336 -253 q 194 -308 240 -308 z "},"Ĩ":{"ha":440,"x_min":-6,"x_max":461,"o":"m 139 1011 l 301 1011 l 301 0 l 139 0 l 139 1011 m 328 1126 q 252 1147 282 1126 q 197 1188 222 1167 q 166 1214 182 1203 q 131 1225 150 1225 q 91 1196 104 1225 q 79 1126 78 1167 l -1 1126 q 10 1226 -6 1181 q 58 1298 25 1271 q 139 1325 92 1325 q 201 1306 174 1325 q 251 1265 228 1288 q 288 1234 271 1247 q 325 1221 306 1221 q 361 1251 351 1221 q 369 1325 371 1282 l 450 1325 q 424 1181 461 1236 q 328 1126 386 1126 z "},"J":{"ha":526,"x_min":6,"x_max":388,"o":"m 388 196 q 338 -20 388 69 q 203 -158 289 -110 q 6 -210 117 -206 l 6 -53 q 163 12 101 -47 q 225 200 225 71 l 225 1011 l 388 1011 l 388 196 z "},"Ĵ":{"ha":526,"x_min":6,"x_max":544,"o":"m 388 196 q 338 -20 388 69 q 203 -158 289 -110 q 6 -210 117 -206 l 6 -53 q 163 12 101 -47 q 225 200 225 71 l 225 1011 l 388 1011 l 388 196 z "},"K":{"ha":957,"x_min":139,"x_max":925,"o":"m 303 624 l 299 572 l 321 604 l 701 1011 l 910 1011 l 492 569 l 925 0 l 719 0 l 374 467 l 303 397 l 303 0 l 139 0 l 139 1011 l 303 1011 l 303 624 z "},"Ķ":{"ha":957,"x_min":139,"x_max":925,"o":"m 303 624 l 299 572 l 321 604 l 701 1011 l 910 1011 l 492 569 l 925 0 l 719 0 l 374 467 l 303 397 l 303 0 l 139 0 l 139 1011 l 303 1011 l 303 624 z "},"L":{"ha":875,"x_min":139,"x_max":800,"o":"m 139 1011 l 301 1011 l 301 156 l 800 156 l 800 0 l 139 0 l 139 1011 z "},"Ǉ":{"ha":1401,"x_min":139,"x_max":1261,"o":"m 139 1011 l 301 1011 l 301 156 l 800 156 l 800 0 l 139 0 l 139 1011 m 1263 196 q 1213 -20 1263 69 q 1078 -158 1164 -110 q 881 -210 992 -206 l 881 -53 q 1038 12 976 -47 q 1100 200 1100 71 l 1100 1011 l 1263 1011 l 1263 196 z "},"Ĺ":{"ha":875,"x_min":139,"x_max":800,"o":"m 139 1011 l 301 1011 l 301 156 l 800 156 l 800 0 l 139 0 l 139 1011 z "},"Ľ":{"ha":868,"x_min":139,"x_max":800,"o":"m 139 1011 l 301 1011 l 301 156 l 800 156 l 800 0 l 139 0 l 139 1011 m 721 1003 q 717 920 729 964 q 679 838 704 876 q 622 781 654 800 l 543 817 q 590 894 572 844 q 599 993 608 944 l 721 1003 z "},"Ļ":{"ha":875,"x_min":139,"x_max":800,"o":"m 139 1011 l 301 1011 l 301 156 l 800 156 l 800 0 l 139 0 l 139 1011 z "},"Ŀ":{"ha":876,"x_min":139,"x_max":814,"o":"m 139 1011 l 301 1011 l 301 156 l 800 156 l 800 0 l 139 0 l 139 1011 z "},"ǈ":{"ha":1254,"x_min":139,"x_max":1164,"o":"m 139 1011 l 301 1011 l 301 156 l 800 156 l 800 0 l 139 0 l 139 1011 z "},"Ł":{"ha":868,"x_min":15,"x_max":800,"o":"m 551 660 l 583 533 l 301 443 l 301 156 l 800 156 l 800 0 l 139 0 l 139 390 l 49 361 l 15 489 l 139 528 l 139 1011 l 301 1011 l 301 579 l 551 660 z "},"M":{"ha":1299,"x_min":139,"x_max":1160,"o":"m 139 0 l 139 1047 l 140 1047 l 644 332 l 1157 1047 l 1160 1047 l 1160 0 l 999 0 l 999 585 l 644 82 l 642 82 l 296 561 l 296 0 l 139 0 z "},"N":{"ha":1172,"x_min":139,"x_max":1032,"o":"m 1028 -36 l 299 671 l 303 0 l 139 0 l 139 1046 l 147 1046 l 874 329 l 871 1011 l 1032 1011 l 1032 -36 l 1028 -36 z "},"Ǌ":{"ha":1699,"x_min":139,"x_max":1558,"o":"m 1028 -36 l 299 671 l 303 0 l 139 0 l 139 1046 l 147 1046 l 874 329 l 871 1011 l 1032 1011 l 1032 -36 l 1028 -36 m 1560 196 q 1510 -20 1560 69 q 1375 -158 1461 -110 q 1178 -210 1289 -206 l 1178 -53 q 1335 12 1274 -47 q 1397 200 1397 71 l 1397 1011 l 1560 1011 l 1560 196 z "},"Ń":{"ha":1172,"x_min":139,"x_max":1032,"o":"m 1028 -36 l 299 671 l 303 0 l 139 0 l 139 1046 l 147 1046 l 874 329 l 871 1011 l 1032 1011 l 1032 -36 l 1028 -36 z "},"Ň":{"ha":1172,"x_min":139,"x_max":1032,"o":"m 1028 -36 l 299 671 l 303 0 l 139 0 l 139 1046 l 147 1046 l 874 329 l 871 1011 l 1032 1011 l 1032 -36 l 1028 -36 z "},"Ņ":{"ha":1172,"x_min":139,"x_max":1032,"o":"m 1028 -36 l 299 671 l 303 0 l 139 0 l 139 1046 l 147 1046 l 874 329 l 871 1011 l 1032 1011 l 1032 -36 l 1028 -36 z "},"Ŋ":{"ha":1118,"x_min":113,"x_max":1006,"o":"m 843 1011 l 1006 1011 l 1006 -1 q 969 -168 1006 -97 q 856 -283 932 -239 l 765 -186 q 828 -107 806 -154 q 850 6 850 -60 l 850 110 l 272 672 l 275 0 l 113 0 l 113 1046 l 119 1046 l 847 328 l 843 1011 z "},"Ɲ":{"ha":1144,"x_min":28,"x_max":1006,"o":"m 275 51 l 275 -1 q 239 -168 275 -97 q 126 -283 203 -239 l 28 -186 q 90 -107 68 -154 q 113 6 113 -60 l 113 1046 l 119 1046 l 847 329 l 843 1011 l 1006 1011 l 1006 0 l 1000 -36 l 272 672 l 275 51 l 275 51 z "},"ǋ":{"ha":1551,"x_min":139,"x_max":1461,"o":"m 1028 -36 l 299 671 l 303 0 l 139 0 l 139 1046 l 147 1046 l 874 329 l 871 1011 l 1032 1011 l 1032 -36 l 1028 -36 z "},"Ñ":{"ha":1172,"x_min":139,"x_max":1032,"o":"m 1028 -36 l 299 671 l 303 0 l 139 0 l 139 1046 l 147 1046 l 874 329 l 871 1011 l 1032 1011 l 1032 -36 l 1028 -36 m 672 1106 q 597 1126 626 1106 q 542 1167 567 1146 q 510 1193 526 1182 q 475 1204 494 1204 q 435 1175 449 1204 q 424 1106 422 1146 l 343 1106 q 354 1205 339 1160 q 403 1277 369 1250 q 483 1304 436 1304 q 545 1285 518 1304 q 596 1244 572 1267 q 633 1213 615 1226 q 669 1200 650 1200 q 706 1231 696 1200 q 714 1304 715 1261 l 794 1304 q 768 1160 806 1215 q 672 1106 731 1106 z "},"O":{"ha":1188,"x_min":76,"x_max":1111,"o":"m 76 504 q 117 703 76 610 q 228 869 157 797 q 392 981 299 940 q 593 1022 486 1022 q 792 981 699 1022 q 958 869 886 940 q 1070 703 1029 797 q 1111 504 1111 610 q 1070 304 1111 397 q 958 140 1029 211 q 792 29 886 69 q 593 -11 699 -11 q 392 28 486 -11 q 228 138 299 68 q 117 302 157 208 q 76 504 76 396 m 243 504 q 290 323 243 404 q 417 193 338 242 q 597 144 497 144 q 773 193 694 144 q 898 323 851 242 q 944 504 944 404 q 897 688 944 606 q 771 818 850 769 q 593 867 692 867 q 415 818 494 867 q 290 687 336 769 q 243 504 243 604 z "},"Ó":{"ha":1188,"x_min":76,"x_max":1111,"o":"m 76 504 q 117 703 76 610 q 228 869 157 797 q 392 981 299 940 q 593 1022 486 1022 q 792 981 699 1022 q 958 869 886 940 q 1070 703 1029 797 q 1111 504 1111 610 q 1070 304 1111 397 q 958 140 1029 211 q 792 29 886 69 q 593 -11 699 -11 q 392 28 486 -11 q 228 138 299 68 q 117 302 157 208 q 76 504 76 396 m 243 504 q 290 323 243 404 q 417 193 338 242 q 597 144 497 144 q 773 193 694 144 q 898 323 851 242 q 944 504 944 404 q 897 688 944 606 q 771 818 850 769 q 593 867 692 867 q 415 818 494 867 q 290 687 336 769 q 243 504 243 604 z "},"Ŏ":{"ha":1188,"x_min":76,"x_max":1111,"o":"m 76 504 q 117 703 76 610 q 228 869 157 797 q 392 981 299 940 q 593 1022 486 1022 q 792 981 699 1022 q 958 869 886 940 q 1070 703 1029 797 q 1111 504 1111 610 q 1070 304 1111 397 q 958 140 1029 211 q 792 29 886 69 q 593 -11 699 -11 q 392 28 486 -11 q 228 138 299 68 q 117 302 157 208 q 76 504 76 396 m 243 504 q 290 323 243 404 q 417 193 338 242 q 597 144 497 144 q 773 193 694 144 q 898 323 851 242 q 944 504 944 404 q 897 688 944 606 q 771 818 850 769 q 593 867 692 867 q 415 818 494 867 q 290 687 336 769 q 243 504 243 604 z "},"Ô":{"ha":1188,"x_min":76,"x_max":1111,"o":"m 76 504 q 117 703 76 610 q 228 869 157 797 q 392 981 299 940 q 593 1022 486 1022 q 792 981 699 1022 q 958 869 886 940 q 1070 703 1029 797 q 1111 504 1111 610 q 1070 304 1111 397 q 958 140 1029 211 q 792 29 886 69 q 593 -11 699 -11 q 392 28 486 -11 q 228 138 299 68 q 117 302 157 208 q 76 504 76 396 m 243 504 q 290 323 243 404 q 417 193 338 242 q 597 144 497 144 q 773 193 694 144 q 898 323 851 242 q 944 504 944 404 q 897 688 944 606 q 771 818 850 769 q 593 867 692 867 q 415 818 494 867 q 290 687 336 769 q 243 504 243 604 z "},"Ố":{"ha":1188,"x_min":76,"x_max":1111,"o":"m 76 504 q 117 703 76 610 q 228 869 157 797 q 392 981 299 940 q 593 1022 486 1022 q 792 981 699 1022 q 958 869 886 940 q 1070 703 1029 797 q 1111 504 1111 610 q 1070 304 1111 397 q 958 140 1029 211 q 792 29 886 69 q 593 -11 699 -11 q 392 28 486 -11 q 228 138 299 68 q 117 302 157 208 q 76 504 76 396 m 243 504 q 290 323 243 404 q 417 193 338 242 q 597 144 497 144 q 773 193 694 144 q 898 323 851 242 q 944 504 944 404 q 897 688 944 606 q 771 818 850 769 q 593 867 692 867 q 415 818 494 867 q 290 687 336 769 q 243 504 243 604 z "},"Ộ":{"ha":1188,"x_min":76,"x_max":1111,"o":"m 76 504 q 117 703 76 610 q 228 869 157 797 q 392 981 299 940 q 593 1022 486 1022 q 792 981 699 1022 q 958 869 886 940 q 1070 703 1029 797 q 1111 504 1111 610 q 1070 304 1111 397 q 958 140 1029 211 q 792 29 886 69 q 593 -11 699 -11 q 392 28 486 -11 q 228 138 299 68 q 117 302 157 208 q 76 504 76 396 m 243 504 q 290 323 243 404 q 417 193 338 242 q 597 144 497 144 q 773 193 694 144 q 898 323 851 242 q 944 504 944 404 q 897 688 944 606 q 771 818 850 769 q 593 867 692 867 q 415 818 494 867 q 290 687 336 769 q 243 504 243 604 z "},"Ồ":{"ha":1188,"x_min":76,"x_max":1111,"o":"m 76 504 q 117 703 76 610 q 228 869 157 797 q 392 981 299 940 q 593 1022 486 1022 q 792 981 699 1022 q 958 869 886 940 q 1070 703 1029 797 q 1111 504 1111 610 q 1070 304 1111 397 q 958 140 1029 211 q 792 29 886 69 q 593 -11 699 -11 q 392 28 486 -11 q 228 138 299 68 q 117 302 157 208 q 76 504 76 396 m 243 504 q 290 323 243 404 q 417 193 338 242 q 597 144 497 144 q 773 193 694 144 q 898 323 851 242 q 944 504 944 404 q 897 688 944 606 q 771 818 850 769 q 593 867 692 867 q 415 818 494 867 q 290 687 336 769 q 243 504 243 604 z "},"Ổ":{"ha":1188,"x_min":76,"x_max":1111,"o":"m 76 504 q 117 703 76 610 q 228 869 157 797 q 392 981 299 940 q 593 1022 486 1022 q 792 981 699 1022 q 958 869 886 940 q 1070 703 1029 797 q 1111 504 1111 610 q 1070 304 1111 397 q 958 140 1029 211 q 792 29 886 69 q 593 -11 699 -11 q 392 28 486 -11 q 228 138 299 68 q 117 302 157 208 q 76 504 76 396 m 243 504 q 290 323 243 404 q 417 193 338 242 q 597 144 497 144 q 773 193 694 144 q 898 323 851 242 q 944 504 944 404 q 897 688 944 606 q 771 818 850 769 q 593 867 692 867 q 415 818 494 867 q 290 687 336 769 q 243 504 243 604 z "},"Ỗ":{"ha":1188,"x_min":76,"x_max":1111,"o":"m 76 504 q 117 703 76 610 q 228 869 157 797 q 392 981 299 940 q 593 1022 486 1022 q 792 981 699 1022 q 958 869 886 940 q 1070 703 1029 797 q 1111 504 1111 610 q 1070 304 1111 397 q 958 140 1029 211 q 792 29 886 69 q 593 -11 699 -11 q 392 28 486 -11 q 228 138 299 68 q 117 302 157 208 q 76 504 76 396 m 243 504 q 290 323 243 404 q 417 193 338 242 q 597 144 497 144 q 773 193 694 144 q 898 323 851 242 q 944 504 944 404 q 897 688 944 606 q 771 818 850 769 q 593 867 692 867 q 415 818 494 867 q 290 687 336 769 q 243 504 243 604 z "},"Ȍ":{"ha":1188,"x_min":76,"x_max":1111,"o":"m 76 504 q 117 703 76 610 q 228 869 157 797 q 392 981 299 940 q 593 1022 486 1022 q 792 981 699 1022 q 958 869 886 940 q 1070 703 1029 797 q 1111 504 1111 610 q 1070 304 1111 397 q 958 140 1029 211 q 792 29 886 69 q 593 -11 699 -11 q 392 28 486 -11 q 228 138 299 68 q 117 302 157 208 q 76 504 76 396 m 243 504 q 290 323 243 404 q 417 193 338 242 q 597 144 497 144 q 773 193 694 144 q 898 323 851 242 q 944 504 944 404 q 897 688 944 606 q 771 818 850 769 q 593 867 692 867 q 415 818 494 867 q 290 687 336 769 q 243 504 243 604 z "},"Ö":{"ha":1188,"x_min":76,"x_max":1111,"o":"m 76 504 q 117 703 76 610 q 228 869 157 797 q 392 981 299 940 q 593 1022 486 1022 q 792 981 699 1022 q 958 869 886 940 q 1070 703 1029 797 q 1111 504 1111 610 q 1070 304 1111 397 q 958 140 1029 211 q 792 29 886 69 q 593 -11 699 -11 q 392 28 486 -11 q 228 138 299 68 q 117 302 157 208 q 76 504 76 396 m 243 504 q 290 323 243 404 q 417 193 338 242 q 597 144 497 144 q 773 193 694 144 q 898 323 851 242 q 944 504 944 404 q 897 688 944 606 q 771 818 850 769 q 593 867 692 867 q 415 818 494 867 q 290 687 336 769 q 243 504 243 604 z "},"Ȫ":{"ha":1188,"x_min":76,"x_max":1111,"o":"m 76 504 q 117 703 76 610 q 228 869 157 797 q 392 981 299 940 q 593 1022 486 1022 q 792 981 699 1022 q 958 869 886 940 q 1070 703 1029 797 q 1111 504 1111 610 q 1070 304 1111 397 q 958 140 1029 211 q 792 29 886 69 q 593 -11 699 -11 q 392 28 486 -11 q 228 138 299 68 q 117 302 157 208 q 76 504 76 396 m 243 504 q 290 323 243 404 q 417 193 338 242 q 597 144 497 144 q 773 193 694 144 q 898 323 851 242 q 944 504 944 404 q 897 688 944 606 q 771 818 850 769 q 593 867 692 867 q 415 818 494 867 q 290 687 336 769 q 243 504 243 604 z "},"Ȱ":{"ha":1188,"x_min":76,"x_max":1111,"o":"m 76 504 q 117 703 76 610 q 228 869 157 797 q 392 981 299 940 q 593 1022 486 1022 q 792 981 699 1022 q 958 869 886 940 q 1070 703 1029 797 q 1111 504 1111 610 q 1070 304 1111 397 q 958 140 1029 211 q 792 29 886 69 q 593 -11 699 -11 q 392 28 486 -11 q 228 138 299 68 q 117 302 157 208 q 76 504 76 396 m 243 504 q 290 323 243 404 q 417 193 338 242 q 597 144 497 144 q 773 193 694 144 q 898 323 851 242 q 944 504 944 404 q 897 688 944 606 q 771 818 850 769 q 593 867 692 867 q 415 818 494 867 q 290 687 336 769 q 243 504 243 604 z "},"Ọ":{"ha":1188,"x_min":76,"x_max":1111,"o":"m 76 504 q 117 703 76 610 q 228 869 157 797 q 392 981 299 940 q 593 1022 486 1022 q 792 981 699 1022 q 958 869 886 940 q 1070 703 1029 797 q 1111 504 1111 610 q 1070 304 1111 397 q 958 140 1029 211 q 792 29 886 69 q 593 -11 699 -11 q 392 28 486 -11 q 228 138 299 68 q 117 302 157 208 q 76 504 76 396 m 243 504 q 290 323 243 404 q 417 193 338 242 q 597 144 497 144 q 773 193 694 144 q 898 323 851 242 q 944 504 944 404 q 897 688 944 606 q 771 818 850 769 q 593 867 692 867 q 415 818 494 867 q 290 687 336 769 q 243 504 243 604 z "},"Ò":{"ha":1188,"x_min":76,"x_max":1111,"o":"m 76 504 q 117 703 76 610 q 228 869 157 797 q 392 981 299 940 q 593 1022 486 1022 q 792 981 699 1022 q 958 869 886 940 q 1070 703 1029 797 q 1111 504 1111 610 q 1070 304 1111 397 q 958 140 1029 211 q 792 29 886 69 q 593 -11 699 -11 q 392 28 486 -11 q 228 138 299 68 q 117 302 157 208 q 76 504 76 396 m 243 504 q 290 323 243 404 q 417 193 338 242 q 597 144 497 144 q 773 193 694 144 q 898 323 851 242 q 944 504 944 404 q 897 688 944 606 q 771 818 850 769 q 593 867 692 867 q 415 818 494 867 q 290 687 336 769 q 243 504 243 604 z "},"Ỏ":{"ha":1188,"x_min":76,"x_max":1111,"o":"m 76 504 q 117 703 76 610 q 228 869 157 797 q 392 981 299 940 q 593 1022 486 1022 q 792 981 699 1022 q 958 869 886 940 q 1070 703 1029 797 q 1111 504 1111 610 q 1070 304 1111 397 q 958 140 1029 211 q 792 29 886 69 q 593 -11 699 -11 q 392 28 486 -11 q 228 138 299 68 q 117 302 157 208 q 76 504 76 396 m 243 504 q 290 323 243 404 q 417 193 338 242 q 597 144 497 144 q 773 193 694 144 q 898 323 851 242 q 944 504 944 404 q 897 688 944 606 q 771 818 850 769 q 593 867 692 867 q 415 818 494 867 q 290 687 336 769 q 243 504 243 604 z "},"Ơ":{"ha":1188,"x_min":76,"x_max":1111,"o":"m 76 504 q 117 703 76 610 q 228 869 157 797 q 392 981 299 940 q 593 1022 486 1022 q 792 981 699 1022 q 958 869 886 940 q 1070 703 1029 797 q 1111 504 1111 610 q 1070 304 1111 397 q 958 140 1029 211 q 792 29 886 69 q 593 -11 699 -11 q 392 28 486 -11 q 228 138 299 68 q 117 302 157 208 q 76 504 76 396 m 243 504 q 290 323 243 404 q 417 193 338 242 q 597 144 497 144 q 773 193 694 144 q 898 323 851 242 q 944 504 944 404 q 897 688 944 606 q 771 818 850 769 q 593 867 692 867 q 415 818 494 867 q 290 687 336 769 q 243 504 243 604 m 693 1013 q 769 1037 747 1013 q 800 1129 790 1061 l 915 1129 q 874 995 903 1040 q 799 934 844 950 q 693 918 754 918 l 693 1013 z "},"Ớ":{"ha":1188,"x_min":76,"x_max":1111,"o":"m 76 504 q 117 703 76 610 q 228 869 157 797 q 392 981 299 940 q 593 1022 486 1022 q 792 981 699 1022 q 958 869 886 940 q 1070 703 1029 797 q 1111 504 1111 610 q 1070 304 1111 397 q 958 140 1029 211 q 792 29 886 69 q 593 -11 699 -11 q 392 28 486 -11 q 228 138 299 68 q 117 302 157 208 q 76 504 76 396 m 243 504 q 290 323 243 404 q 417 193 338 242 q 597 144 497 144 q 773 193 694 144 q 898 323 851 242 q 944 504 944 404 q 897 688 944 606 q 771 818 850 769 q 593 867 692 867 q 415 818 494 867 q 290 687 336 769 q 243 504 243 604 m 693 1013 q 769 1037 747 1013 q 800 1129 790 1061 l 915 1129 q 874 995 903 1040 q 799 934 844 950 q 693 918 754 918 l 693 1013 z "},"Ợ":{"ha":1188,"x_min":76,"x_max":1111,"o":"m 76 504 q 117 703 76 610 q 228 869 157 797 q 392 981 299 940 q 593 1022 486 1022 q 792 981 699 1022 q 958 869 886 940 q 1070 703 1029 797 q 1111 504 1111 610 q 1070 304 1111 397 q 958 140 1029 211 q 792 29 886 69 q 593 -11 699 -11 q 392 28 486 -11 q 228 138 299 68 q 117 302 157 208 q 76 504 76 396 m 243 504 q 290 323 243 404 q 417 193 338 242 q 597 144 497 144 q 773 193 694 144 q 898 323 851 242 q 944 504 944 404 q 897 688 944 606 q 771 818 850 769 q 593 867 692 867 q 415 818 494 867 q 290 687 336 769 q 243 504 243 604 m 693 1013 q 769 1037 747 1013 q 800 1129 790 1061 l 915 1129 q 874 995 903 1040 q 799 934 844 950 q 693 918 754 918 l 693 1013 z "},"Ờ":{"ha":1188,"x_min":76,"x_max":1111,"o":"m 76 504 q 117 703 76 610 q 228 869 157 797 q 392 981 299 940 q 593 1022 486 1022 q 792 981 699 1022 q 958 869 886 940 q 1070 703 1029 797 q 1111 504 1111 610 q 1070 304 1111 397 q 958 140 1029 211 q 792 29 886 69 q 593 -11 699 -11 q 392 28 486 -11 q 228 138 299 68 q 117 302 157 208 q 76 504 76 396 m 243 504 q 290 323 243 404 q 417 193 338 242 q 597 144 497 144 q 773 193 694 144 q 898 323 851 242 q 944 504 944 404 q 897 688 944 606 q 771 818 850 769 q 593 867 692 867 q 415 818 494 867 q 290 687 336 769 q 243 504 243 604 m 693 1013 q 769 1037 747 1013 q 800 1129 790 1061 l 915 1129 q 874 995 903 1040 q 799 934 844 950 q 693 918 754 918 l 693 1013 z "},"Ở":{"ha":1188,"x_min":76,"x_max":1111,"o":"m 76 504 q 117 703 76 610 q 228 869 157 797 q 392 981 299 940 q 593 1022 486 1022 q 792 981 699 1022 q 958 869 886 940 q 1070 703 1029 797 q 1111 504 1111 610 q 1070 304 1111 397 q 958 140 1029 211 q 792 29 886 69 q 593 -11 699 -11 q 392 28 486 -11 q 228 138 299 68 q 117 302 157 208 q 76 504 76 396 m 243 504 q 290 323 243 404 q 417 193 338 242 q 597 144 497 144 q 773 193 694 144 q 898 323 851 242 q 944 504 944 404 q 897 688 944 606 q 771 818 850 769 q 593 867 692 867 q 415 818 494 867 q 290 687 336 769 q 243 504 243 604 m 693 1013 q 769 1037 747 1013 q 800 1129 790 1061 l 915 1129 q 874 995 903 1040 q 799 934 844 950 q 693 918 754 918 l 693 1013 z "},"Ỡ":{"ha":1188,"x_min":76,"x_max":1111,"o":"m 76 504 q 117 703 76 610 q 228 869 157 797 q 392 981 299 940 q 593 1022 486 1022 q 792 981 699 1022 q 958 869 886 940 q 1070 703 1029 797 q 1111 504 1111 610 q 1070 304 1111 397 q 958 140 1029 211 q 792 29 886 69 q 593 -11 699 -11 q 392 28 486 -11 q 228 138 299 68 q 117 302 157 208 q 76 504 76 396 m 243 504 q 290 323 243 404 q 417 193 338 242 q 597 144 497 144 q 773 193 694 144 q 898 323 851 242 q 944 504 944 404 q 897 688 944 606 q 771 818 850 769 q 593 867 692 867 q 415 818 494 867 q 290 687 336 769 q 243 504 243 604 m 693 1013 q 769 1037 747 1013 q 800 1129 790 1061 l 915 1129 q 874 995 903 1040 q 799 934 844 950 q 693 918 754 918 l 693 1013 m 700 1115 q 624 1135 654 1115 q 569 1176 594 1156 q 538 1203 554 1192 q 503 1214 522 1214 q 463 1185 476 1214 q 451 1115 450 1156 l 371 1115 q 382 1215 367 1169 q 431 1287 397 1260 q 511 1314 464 1314 q 573 1295 546 1314 q 624 1254 600 1276 q 660 1223 643 1236 q 697 1210 678 1210 q 733 1240 724 1210 q 742 1314 743 1271 l 822 1314 q 796 1170 833 1225 q 700 1115 758 1115 z "},"Ő":{"ha":1188,"x_min":76,"x_max":1111,"o":"m 76 504 q 117 703 76 610 q 228 869 157 797 q 392 981 299 940 q 593 1022 486 1022 q 792 981 699 1022 q 958 869 886 940 q 1070 703 1029 797 q 1111 504 1111 610 q 1070 304 1111 397 q 958 140 1029 211 q 792 29 886 69 q 593 -11 699 -11 q 392 28 486 -11 q 228 138 299 68 q 117 302 157 208 q 76 504 76 396 m 243 504 q 290 323 243 404 q 417 193 338 242 q 597 144 497 144 q 773 193 694 144 q 898 323 851 242 q 944 504 944 404 q 897 688 944 606 q 771 818 850 769 q 593 867 692 867 q 415 818 494 867 q 290 687 336 769 q 243 504 243 604 z "},"Ȏ":{"ha":1188,"x_min":76,"x_max":1111,"o":"m 76 504 q 117 703 76 610 q 228 869 157 797 q 392 981 299 940 q 593 1022 486 1022 q 792 981 699 1022 q 958 869 886 940 q 1070 703 1029 797 q 1111 504 1111 610 q 1070 304 1111 397 q 958 140 1029 211 q 792 29 886 69 q 593 -11 699 -11 q 392 28 486 -11 q 228 138 299 68 q 117 302 157 208 q 76 504 76 396 m 243 504 q 290 323 243 404 q 417 193 338 242 q 597 144 497 144 q 773 193 694 144 q 898 323 851 242 q 944 504 944 404 q 897 688 944 606 q 771 818 850 769 q 593 867 692 867 q 415 818 494 867 q 290 687 336 769 q 243 504 243 604 m 588 1285 q 734 1221 679 1285 q 807 1033 789 1157 l 701 1033 q 665 1138 692 1097 q 588 1179 639 1179 q 510 1138 535 1179 q 474 1033 485 1097 l 369 1033 q 588 1285 404 1285 z "},"Ō":{"ha":1188,"x_min":76,"x_max":1111,"o":"m 76 504 q 117 703 76 610 q 228 869 157 797 q 392 981 299 940 q 593 1022 486 1022 q 792 981 699 1022 q 958 869 886 940 q 1070 703 1029 797 q 1111 504 1111 610 q 1070 304 1111 397 q 958 140 1029 211 q 792 29 886 69 q 593 -11 699 -11 q 392 28 486 -11 q 228 138 299 68 q 117 302 157 208 q 76 504 76 396 m 243 504 q 290 323 243 404 q 417 193 338 242 q 597 144 497 144 q 773 193 694 144 q 898 323 851 242 q 944 504 944 404 q 897 688 944 606 q 771 818 850 769 q 593 867 692 867 q 415 818 494 867 q 290 687 336 769 q 243 504 243 604 z "},"Ǫ":{"ha":1188,"x_min":76,"x_max":1111,"o":"m 593 -11 q 392 28 486 -11 q 228 139 299 68 q 117 303 157 210 q 76 504 76 396 q 117 703 76 610 q 228 869 157 797 q 392 981 299 940 q 593 1022 486 1022 q 792 981 699 1022 q 958 869 886 940 q 1070 703 1029 797 q 1111 504 1111 610 q 1083 322 1111 400 q 1010 188 1054 244 q 915 89 965 131 q 809 9 861 43 q 724 -57 757 -25 q 692 -131 692 -89 q 711 -183 692 -169 q 756 -197 731 -197 q 853 -131 808 -197 l 910 -211 q 834 -281 882 -253 q 742 -308 786 -308 q 615 -269 667 -308 q 563 -157 563 -231 q 590 -70 563 -110 q 665 -6 618 -31 q 593 -11 629 -11 m 597 146 q 773 194 694 146 q 898 323 851 242 q 944 504 944 404 q 897 684 944 603 q 771 814 850 765 q 593 863 692 863 q 415 814 494 863 q 290 683 336 765 q 243 504 243 601 q 290 324 243 406 q 418 194 338 243 q 597 146 499 146 z "},"Ø":{"ha":1192,"x_min":76,"x_max":1111,"o":"m 76 504 q 117 703 76 610 q 228 869 157 797 q 392 981 299 940 q 592 1022 486 1022 q 738 1001 668 1022 q 869 940 808 979 l 956 1040 l 1056 947 l 974 851 q 1074 692 1038 782 q 1111 504 1111 603 q 1070 304 1111 397 q 958 140 1029 211 q 792 29 886 69 q 593 -11 699 -11 q 440 11 513 -11 q 307 74 368 33 l 222 -25 l 119 68 l 203 165 q 110 319 144 232 q 76 504 76 406 m 243 504 q 261 390 243 444 q 311 290 279 336 l 767 821 q 684 855 728 843 q 593 867 640 867 q 415 818 494 867 q 290 687 336 769 q 243 504 243 604 m 944 504 q 924 626 944 568 q 869 729 904 683 l 413 197 q 499 158 451 172 q 597 144 546 144 q 773 193 694 144 q 898 323 851 242 q 944 504 944 404 z "},"Ǿ":{"ha":1192,"x_min":76,"x_max":1111,"o":"m 76 504 q 117 703 76 610 q 228 869 157 797 q 392 981 299 940 q 592 1022 486 1022 q 738 1001 668 1022 q 869 940 808 979 l 956 1040 l 1056 947 l 974 851 q 1074 692 1038 782 q 1111 504 1111 603 q 1070 304 1111 397 q 958 140 1029 211 q 792 29 886 69 q 593 -11 699 -11 q 440 11 513 -11 q 307 74 368 33 l 222 -25 l 119 68 l 203 165 q 110 319 144 232 q 76 504 76 406 m 243 504 q 261 390 243 444 q 311 290 279 336 l 767 821 q 684 855 728 843 q 593 867 640 867 q 415 818 494 867 q 290 687 336 769 q 243 504 243 604 m 944 504 q 924 626 944 568 q 869 729 904 683 l 413 197 q 499 158 451 172 q 597 144 546 144 q 773 193 694 144 q 898 323 851 242 q 944 504 944 404 z "},"Õ":{"ha":1188,"x_min":76,"x_max":1111,"o":"m 76 504 q 117 703 76 610 q 228 869 157 797 q 392 981 299 940 q 593 1022 486 1022 q 792 981 699 1022 q 958 869 886 940 q 1070 703 1029 797 q 1111 504 1111 610 q 1070 304 1111 397 q 958 140 1029 211 q 792 29 886 69 q 593 -11 699 -11 q 392 28 486 -11 q 228 138 299 68 q 117 302 157 208 q 76 504 76 396 m 243 504 q 290 323 243 404 q 417 193 338 242 q 597 144 497 144 q 773 193 694 144 q 898 323 851 242 q 944 504 944 404 q 897 688 944 606 q 771 818 850 769 q 593 867 692 867 q 415 818 494 867 q 290 687 336 769 q 243 504 243 604 m 700 1115 q 624 1135 654 1115 q 569 1176 594 1156 q 538 1203 554 1192 q 503 1214 522 1214 q 463 1185 476 1214 q 451 1115 450 1156 l 371 1115 q 382 1215 367 1169 q 431 1287 397 1260 q 511 1314 464 1314 q 573 1295 546 1314 q 624 1254 600 1276 q 660 1223 643 1236 q 697 1210 678 1210 q 733 1240 724 1210 q 742 1314 743 1271 l 822 1314 q 796 1170 833 1225 q 700 1115 758 1115 z "},"Ȭ":{"ha":1188,"x_min":76,"x_max":1111,"o":"m 76 504 q 117 703 76 610 q 228 869 157 797 q 392 981 299 940 q 593 1022 486 1022 q 792 981 699 1022 q 958 869 886 940 q 1070 703 1029 797 q 1111 504 1111 610 q 1070 304 1111 397 q 958 140 1029 211 q 792 29 886 69 q 593 -11 699 -11 q 392 28 486 -11 q 228 138 299 68 q 117 302 157 208 q 76 504 76 396 m 243 504 q 290 323 243 404 q 417 193 338 242 q 597 144 497 144 q 773 193 694 144 q 898 323 851 242 q 944 504 944 404 q 897 688 944 606 q 771 818 850 769 q 593 867 692 867 q 415 818 494 867 q 290 687 336 769 q 243 504 243 604 m 700 1115 q 624 1135 654 1115 q 569 1176 594 1156 q 538 1203 554 1192 q 503 1214 522 1214 q 463 1185 476 1214 q 451 1115 450 1156 l 371 1115 q 382 1215 367 1169 q 431 1287 397 1260 q 511 1314 464 1314 q 573 1295 546 1314 q 624 1254 600 1276 q 660 1223 643 1236 q 697 1210 678 1210 q 733 1240 724 1210 q 742 1314 743 1271 l 822 1314 q 796 1170 833 1225 q 700 1115 758 1115 z "},"Œ":{"ha":1414,"x_min":89,"x_max":1319,"o":"m 1319 0 l 708 0 q 604 -11 657 -11 q 403 29 497 -11 q 239 140 310 69 q 128 304 168 211 q 89 504 89 397 q 128 703 89 610 q 239 869 168 797 q 403 981 310 940 q 604 1022 497 1022 q 656 1019 631 1022 q 706 1011 681 1017 l 1300 1011 l 1300 861 l 838 861 l 838 583 l 1244 583 l 1244 431 l 838 431 l 838 154 l 1319 154 l 1319 0 m 256 504 q 303 324 256 406 q 431 194 350 243 q 610 146 511 146 q 671 151 640 146 l 671 856 q 604 863 639 863 q 428 814 507 863 q 302 684 349 765 q 256 504 256 603 z "},"P":{"ha":849,"x_min":139,"x_max":792,"o":"m 425 1011 q 695 925 599 1011 q 792 686 792 839 q 774 567 792 626 q 715 458 756 507 q 608 381 674 410 q 447 351 543 351 l 301 351 l 301 0 l 139 0 l 139 1011 l 425 1011 m 447 507 q 558 538 518 507 q 615 610 599 568 q 631 683 631 651 q 616 756 631 715 q 563 826 601 797 q 451 856 524 856 l 301 856 l 301 507 l 447 507 z "},"Þ":{"ha":849,"x_min":139,"x_max":792,"o":"m 457 831 q 707 745 622 831 q 792 506 792 660 q 775 386 792 446 q 720 278 758 326 q 618 200 682 229 q 458 171 554 171 l 306 171 l 306 0 l 139 0 l 139 1006 l 306 1006 l 306 831 l 457 831 m 443 326 q 547 353 507 326 q 606 419 588 379 q 625 503 625 460 q 607 584 625 544 q 549 649 589 624 q 444 675 510 675 l 306 675 l 306 326 l 443 326 z "},"Q":{"ha":1236,"x_min":76,"x_max":1158,"o":"m 76 504 q 117 703 76 610 q 228 869 157 797 q 392 981 299 940 q 593 1022 486 1022 q 792 981 699 1022 q 958 869 886 940 q 1070 703 1029 797 q 1111 504 1111 610 q 1074 315 1111 404 q 975 158 1038 226 l 1158 158 l 1158 0 l 699 0 q 593 -11 646 -11 q 392 28 486 -11 q 228 139 299 68 q 117 303 157 210 q 76 504 76 396 m 243 504 q 290 324 243 406 q 417 194 338 243 q 597 146 497 146 q 773 194 694 146 q 898 323 851 242 q 944 504 944 404 q 897 684 944 603 q 771 814 850 765 q 593 863 692 863 q 415 814 494 863 q 290 683 336 765 q 243 504 243 601 z "},"R":{"ha":931,"x_min":139,"x_max":879,"o":"m 424 1011 q 620 973 536 1011 q 751 862 704 935 q 797 686 797 789 q 760 518 797 600 q 633 390 722 436 l 879 0 l 692 0 l 464 351 q 447 351 456 351 l 301 351 l 301 0 l 139 0 l 139 1011 l 424 1011 m 446 507 q 558 535 518 507 q 615 605 599 564 q 631 681 631 646 q 615 755 631 714 q 561 826 600 796 q 451 856 522 856 l 301 856 l 301 507 l 446 507 z "},"Ŕ":{"ha":931,"x_min":139,"x_max":879,"o":"m 424 1011 q 620 973 536 1011 q 751 862 704 935 q 797 686 797 789 q 760 518 797 600 q 633 390 722 436 l 879 0 l 692 0 l 464 351 q 447 351 456 351 l 301 351 l 301 0 l 139 0 l 139 1011 l 424 1011 m 446 507 q 558 535 518 507 q 615 605 599 564 q 631 681 631 646 q 615 755 631 714 q 561 826 600 796 q 451 856 522 856 l 301 856 l 301 507 l 446 507 z "},"Ř":{"ha":931,"x_min":139,"x_max":879,"o":"m 424 1011 q 620 973 536 1011 q 751 862 704 935 q 797 686 797 789 q 760 518 797 600 q 633 390 722 436 l 879 0 l 692 0 l 464 351 q 447 351 456 351 l 301 351 l 301 0 l 139 0 l 139 1011 l 424 1011 m 446 507 q 558 535 518 507 q 615 605 599 564 q 631 681 631 646 q 615 755 631 714 q 561 826 600 796 q 451 856 522 856 l 301 856 l 301 507 l 446 507 z "},"Ŗ":{"ha":931,"x_min":139,"x_max":879,"o":"m 424 1011 q 620 973 536 1011 q 751 862 704 935 q 797 686 797 789 q 760 518 797 600 q 633 390 722 436 l 879 0 l 692 0 l 464 351 q 447 351 456 351 l 301 351 l 301 0 l 139 0 l 139 1011 l 424 1011 m 446 507 q 558 535 518 507 q 615 605 599 564 q 631 681 631 646 q 615 755 631 714 q 561 826 600 796 q 451 856 522 856 l 301 856 l 301 507 l 446 507 z "},"Ȑ":{"ha":931,"x_min":129,"x_max":879,"o":"m 424 1011 q 620 973 536 1011 q 751 862 704 935 q 797 686 797 789 q 760 518 797 600 q 633 390 722 436 l 879 0 l 692 0 l 464 351 q 447 351 456 351 l 301 351 l 301 0 l 139 0 l 139 1011 l 424 1011 m 446 507 q 558 535 518 507 q 615 605 599 564 q 631 681 631 646 q 615 755 631 714 q 561 826 600 796 q 451 856 522 856 l 301 856 l 301 507 l 446 507 z "},"Ȓ":{"ha":931,"x_min":139,"x_max":879,"o":"m 424 1011 q 620 973 536 1011 q 751 862 704 935 q 797 686 797 789 q 760 518 797 600 q 633 390 722 436 l 879 0 l 692 0 l 464 351 q 447 351 456 351 l 301 351 l 301 0 l 139 0 l 139 1011 l 424 1011 m 446 507 q 558 535 518 507 q 615 605 599 564 q 631 681 631 646 q 615 755 631 714 q 561 826 600 796 q 451 856 522 856 l 301 856 l 301 507 l 446 507 m 421 1296 q 567 1232 513 1296 q 640 1044 622 1168 l 535 1044 q 499 1149 525 1108 q 421 1190 472 1190 q 343 1149 368 1190 q 307 1044 318 1108 l 203 1044 q 421 1296 238 1296 z "},"S":{"ha":808,"x_min":58,"x_max":735,"o":"m 669 806 q 555 853 615 833 q 438 874 494 874 q 319 841 363 874 q 275 749 275 808 q 306 676 275 707 q 383 621 336 644 q 483 578 431 597 q 602 522 544 556 q 697 431 660 489 q 735 278 735 374 q 694 133 735 199 q 579 28 654 67 q 397 -11 504 -11 q 215 19 303 -11 q 58 96 126 49 l 131 222 q 251 158 181 185 q 382 132 321 132 q 467 146 425 132 q 538 192 510 160 q 567 276 567 224 q 542 350 567 319 q 477 403 517 381 q 390 444 438 426 q 294 485 343 463 q 203 540 244 507 q 135 619 161 572 q 108 736 108 667 q 147 881 108 819 q 255 978 186 943 q 414 1017 324 1013 q 597 991 521 1017 q 731 929 672 965 l 669 806 z "},"Ś":{"ha":808,"x_min":58,"x_max":735,"o":"m 669 806 q 555 853 615 833 q 438 874 494 874 q 319 841 363 874 q 275 749 275 808 q 306 676 275 707 q 383 621 336 644 q 483 578 431 597 q 602 522 544 556 q 697 431 660 489 q 735 278 735 374 q 694 133 735 199 q 579 28 654 67 q 397 -11 504 -11 q 215 19 303 -11 q 58 96 126 49 l 131 222 q 251 158 181 185 q 382 132 321 132 q 467 146 425 132 q 538 192 510 160 q 567 276 567 224 q 542 350 567 319 q 477 403 517 381 q 390 444 438 426 q 294 485 343 463 q 203 540 244 507 q 135 619 161 572 q 108 736 108 667 q 147 881 108 819 q 255 978 186 943 q 414 1017 324 1013 q 597 991 521 1017 q 731 929 672 965 l 669 806 z "},"Š":{"ha":808,"x_min":58,"x_max":735,"o":"m 669 806 q 555 853 615 833 q 438 874 494 874 q 319 841 363 874 q 275 749 275 808 q 306 676 275 707 q 383 621 336 644 q 483 578 431 597 q 602 522 544 556 q 697 431 660 489 q 735 278 735 374 q 694 133 735 199 q 579 28 654 67 q 397 -11 504 -11 q 215 19 303 -11 q 58 96 126 49 l 131 222 q 251 158 181 185 q 382 132 321 132 q 467 146 425 132 q 538 192 510 160 q 567 276 567 224 q 542 350 567 319 q 477 403 517 381 q 390 444 438 426 q 294 485 343 463 q 203 540 244 507 q 135 619 161 572 q 108 736 108 667 q 147 881 108 819 q 255 978 186 943 q 414 1017 324 1013 q 597 991 521 1017 q 731 929 672 965 l 669 806 z "},"Ş":{"ha":808,"x_min":58,"x_max":735,"o":"m 669 806 q 555 853 615 833 q 438 874 494 874 q 319 841 363 874 q 275 749 275 808 q 306 676 275 707 q 383 621 336 644 q 483 578 431 597 q 602 522 544 556 q 697 431 660 489 q 735 278 735 374 q 694 133 735 199 q 579 28 654 67 q 397 -11 504 -11 q 215 19 303 -11 q 58 96 126 49 l 131 222 q 251 158 181 185 q 382 132 321 132 q 467 146 425 132 q 538 192 510 160 q 567 276 567 224 q 542 350 567 319 q 477 403 517 381 q 390 444 438 426 q 294 485 343 463 q 203 540 244 507 q 135 619 161 572 q 108 736 108 667 q 147 881 108 819 q 255 978 186 943 q 414 1017 324 1013 q 597 991 521 1017 q 731 929 672 965 l 669 806 z "},"Ŝ":{"ha":808,"x_min":58,"x_max":735,"o":"m 669 806 q 555 853 615 833 q 438 874 494 874 q 319 841 363 874 q 275 749 275 808 q 306 676 275 707 q 383 621 336 644 q 483 578 431 597 q 602 522 544 556 q 697 431 660 489 q 735 278 735 374 q 694 133 735 199 q 579 28 654 67 q 397 -11 504 -11 q 215 19 303 -11 q 58 96 126 49 l 131 222 q 251 158 181 185 q 382 132 321 132 q 467 146 425 132 q 538 192 510 160 q 567 276 567 224 q 542 350 567 319 q 477 403 517 381 q 390 444 438 426 q 294 485 343 463 q 203 540 244 507 q 135 619 161 572 q 108 736 108 667 q 147 881 108 819 q 255 978 186 943 q 414 1017 324 1013 q 597 991 521 1017 q 731 929 672 965 l 669 806 z "},"Ș":{"ha":808,"x_min":58,"x_max":735,"o":"m 669 806 q 555 853 615 833 q 438 874 494 874 q 319 841 363 874 q 275 749 275 808 q 306 676 275 707 q 383 621 336 644 q 483 578 431 597 q 602 522 544 556 q 697 431 660 489 q 735 278 735 374 q 694 133 735 199 q 579 28 654 67 q 397 -11 504 -11 q 215 19 303 -11 q 58 96 126 49 l 131 222 q 251 158 181 185 q 382 132 321 132 q 467 146 425 132 q 538 192 510 160 q 567 276 567 224 q 542 350 567 319 q 477 403 517 381 q 390 444 438 426 q 294 485 343 463 q 203 540 244 507 q 135 619 161 572 q 108 736 108 667 q 147 881 108 819 q 255 978 186 943 q 414 1017 324 1013 q 597 991 521 1017 q 731 929 672 965 l 669 806 z "},"ẞ":{"ha":1165,"x_min":139,"x_max":1097,"o":"m 792 -11 q 620 14 704 -11 q 465 88 536 39 l 536 214 q 654 155 588 178 q 778 132 721 132 q 847 144 811 132 q 906 186 882 157 q 929 264 929 215 q 908 326 929 300 q 851 374 886 353 q 778 418 817 396 q 674 481 726 444 q 588 570 622 518 q 553 694 553 622 q 590 835 553 776 q 694 922 626 894 q 579 939 639 939 q 376 847 451 939 q 301 556 301 756 l 301 0 l 139 0 l 139 561 q 188 825 139 711 q 331 1003 238 939 q 563 1068 425 1068 q 715 1047 639 1068 q 853 994 792 1026 q 947 926 915 961 l 904 807 q 881 822 896 814 q 846 833 867 831 l 846 833 l 844 833 q 822 836 833 836 q 744 803 774 836 q 714 722 714 771 q 738 651 714 681 q 797 598 761 621 q 869 553 832 575 q 975 488 922 522 q 1063 401 1028 453 q 1097 264 1097 349 q 1061 128 1097 192 q 957 27 1025 65 q 792 -11 889 -11 z "},"Ə":{"ha":1099,"x_min":63,"x_max":1022,"o":"m 522 1022 q 786 956 674 1022 q 960 777 899 890 q 1022 524 1022 664 q 983 315 1022 411 q 873 148 943 219 q 712 37 803 76 q 518 -3 621 -3 q 219 112 338 -3 q 63 425 101 226 l 810 682 q 688 815 767 765 q 518 864 608 864 q 416 848 468 864 q 318 805 364 832 q 243 743 272 778 l 163 874 q 265 947 203 914 q 396 1001 328 981 q 522 1022 464 1022 m 851 514 q 847 564 851 539 l 261 356 q 362 201 294 261 q 531 142 429 142 q 690 191 617 142 q 807 325 763 240 q 851 514 851 410 z "},"T":{"ha":810,"x_min":67,"x_max":743,"o":"m 67 1011 l 743 1011 l 743 856 l 482 856 l 482 0 l 321 0 l 321 856 l 67 856 l 67 1011 z "},"Ŧ":{"ha":810,"x_min":67,"x_max":743,"o":"m 67 1011 l 743 1011 l 743 856 l 482 856 l 482 0 l 321 0 l 321 856 l 67 856 l 67 1011 m 196 574 l 603 574 l 603 429 l 196 429 l 196 574 z "},"Ť":{"ha":810,"x_min":67,"x_max":743,"o":"m 67 1011 l 743 1011 l 743 856 l 482 856 l 482 0 l 321 0 l 321 856 l 67 856 l 67 1011 z "},"Ţ":{"ha":810,"x_min":67,"x_max":743,"o":"m 67 1011 l 743 1011 l 743 856 l 482 856 l 482 0 l 321 0 l 321 856 l 67 856 l 67 1011 z "},"Ț":{"ha":810,"x_min":67,"x_max":743,"o":"m 67 1011 l 743 1011 l 743 856 l 482 856 l 482 0 l 321 0 l 321 856 l 67 856 l 67 1011 z "},"U":{"ha":1029,"x_min":124,"x_max":907,"o":"m 285 364 q 315 255 285 304 q 398 176 346 206 q 514 146 450 146 q 633 176 581 146 q 717 255 686 206 q 747 364 747 304 l 747 1011 l 907 1011 l 907 360 q 854 165 907 249 q 713 35 801 82 q 514 -11 624 -11 q 316 35 404 -11 q 176 165 228 82 q 124 360 124 249 l 124 1011 l 285 1011 l 285 364 z "},"Ú":{"ha":1029,"x_min":124,"x_max":907,"o":"m 285 364 q 315 255 285 304 q 398 176 346 206 q 514 146 450 146 q 633 176 581 146 q 717 255 686 206 q 747 364 747 304 l 747 1011 l 907 1011 l 907 360 q 854 165 907 249 q 713 35 801 82 q 514 -11 624 -11 q 316 35 404 -11 q 176 165 228 82 q 124 360 124 249 l 124 1011 l 285 1011 l 285 364 z "},"Ŭ":{"ha":1029,"x_min":124,"x_max":907,"o":"m 285 364 q 315 255 285 304 q 398 176 346 206 q 514 146 450 146 q 633 176 581 146 q 717 255 686 206 q 747 364 747 304 l 747 1011 l 907 1011 l 907 360 q 854 165 907 249 q 713 35 801 82 q 514 -11 624 -11 q 316 35 404 -11 q 176 165 228 82 q 124 360 124 249 l 124 1011 l 285 1011 l 285 364 z "},"Ǔ":{"ha":1029,"x_min":124,"x_max":907,"o":"m 285 364 q 315 255 285 304 q 398 176 346 206 q 514 146 450 146 q 633 176 581 146 q 717 255 686 206 q 747 364 747 304 l 747 1011 l 907 1011 l 907 360 q 854 165 907 249 q 713 35 801 82 q 514 -11 624 -11 q 316 35 404 -11 q 176 165 228 82 q 124 360 124 249 l 124 1011 l 285 1011 l 285 364 z "},"Û":{"ha":1029,"x_min":124,"x_max":907,"o":"m 285 364 q 315 255 285 304 q 398 176 346 206 q 514 146 450 146 q 633 176 581 146 q 717 255 686 206 q 747 364 747 304 l 747 1011 l 907 1011 l 907 360 q 854 165 907 249 q 713 35 801 82 q 514 -11 624 -11 q 316 35 404 -11 q 176 165 228 82 q 124 360 124 249 l 124 1011 l 285 1011 l 285 364 z "},"Ȕ":{"ha":1029,"x_min":124,"x_max":907,"o":"m 285 364 q 315 255 285 304 q 398 176 346 206 q 514 146 450 146 q 633 176 581 146 q 717 255 686 206 q 747 364 747 304 l 747 1011 l 907 1011 l 907 360 q 854 165 907 249 q 713 35 801 82 q 514 -11 624 -11 q 316 35 404 -11 q 176 165 228 82 q 124 360 124 249 l 124 1011 l 285 1011 l 285 364 z "},"Ü":{"ha":1029,"x_min":124,"x_max":907,"o":"m 285 364 q 315 255 285 304 q 398 176 346 206 q 514 146 450 146 q 633 176 581 146 q 717 255 686 206 q 747 364 747 304 l 747 1011 l 907 1011 l 907 360 q 854 165 907 249 q 713 35 801 82 q 514 -11 624 -11 q 316 35 404 -11 q 176 165 228 82 q 124 360 124 249 l 124 1011 l 285 1011 l 285 364 z "},"Ụ":{"ha":1029,"x_min":124,"x_max":907,"o":"m 285 364 q 315 255 285 304 q 398 176 346 206 q 514 146 450 146 q 633 176 581 146 q 717 255 686 206 q 747 364 747 304 l 747 1011 l 907 1011 l 907 360 q 854 165 907 249 q 713 35 801 82 q 514 -11 624 -11 q 316 35 404 -11 q 176 165 228 82 q 124 360 124 249 l 124 1011 l 285 1011 l 285 364 z "},"Ù":{"ha":1029,"x_min":124,"x_max":907,"o":"m 285 364 q 315 255 285 304 q 398 176 346 206 q 514 146 450 146 q 633 176 581 146 q 717 255 686 206 q 747 364 747 304 l 747 1011 l 907 1011 l 907 360 q 854 165 907 249 q 713 35 801 82 q 514 -11 624 -11 q 316 35 404 -11 q 176 165 228 82 q 124 360 124 249 l 124 1011 l 285 1011 l 285 364 z "},"Ủ":{"ha":1029,"x_min":124,"x_max":907,"o":"m 285 364 q 315 255 285 304 q 398 176 346 206 q 514 146 450 146 q 633 176 581 146 q 717 255 686 206 q 747 364 747 304 l 747 1011 l 907 1011 l 907 360 q 854 165 907 249 q 713 35 801 82 q 514 -11 624 -11 q 316 35 404 -11 q 176 165 228 82 q 124 360 124 249 l 124 1011 l 285 1011 l 285 364 z "},"Ư":{"ha":1064,"x_min":124,"x_max":1101,"o":"m 285 364 q 315 255 285 304 q 398 176 346 206 q 514 146 450 146 q 633 176 581 146 q 717 255 686 206 q 747 364 747 304 l 747 1011 l 907 1011 l 907 360 q 854 165 907 249 q 713 35 801 82 q 514 -11 624 -11 q 316 35 404 -11 q 176 165 228 82 q 124 360 124 249 l 124 1011 l 285 1011 l 285 364 m 879 936 q 955 960 933 936 q 986 1053 976 985 l 1101 1053 q 1060 919 1089 964 q 985 858 1031 874 q 879 842 940 842 l 879 936 z "},"Ứ":{"ha":1064,"x_min":124,"x_max":1101,"o":"m 285 364 q 315 255 285 304 q 398 176 346 206 q 514 146 450 146 q 633 176 581 146 q 717 255 686 206 q 747 364 747 304 l 747 1011 l 907 1011 l 907 360 q 854 165 907 249 q 713 35 801 82 q 514 -11 624 -11 q 316 35 404 -11 q 176 165 228 82 q 124 360 124 249 l 124 1011 l 285 1011 l 285 364 m 879 936 q 955 960 933 936 q 986 1053 976 985 l 1101 1053 q 1060 919 1089 964 q 985 858 1031 874 q 879 842 940 842 l 879 936 z "},"Ự":{"ha":1064,"x_min":124,"x_max":1101,"o":"m 285 364 q 315 255 285 304 q 398 176 346 206 q 514 146 450 146 q 633 176 581 146 q 717 255 686 206 q 747 364 747 304 l 747 1011 l 907 1011 l 907 360 q 854 165 907 249 q 713 35 801 82 q 514 -11 624 -11 q 316 35 404 -11 q 176 165 228 82 q 124 360 124 249 l 124 1011 l 285 1011 l 285 364 m 879 936 q 955 960 933 936 q 986 1053 976 985 l 1101 1053 q 1060 919 1089 964 q 985 858 1031 874 q 879 842 940 842 l 879 936 z "},"Ừ":{"ha":1064,"x_min":124,"x_max":1101,"o":"m 285 364 q 315 255 285 304 q 398 176 346 206 q 514 146 450 146 q 633 176 581 146 q 717 255 686 206 q 747 364 747 304 l 747 1011 l 907 1011 l 907 360 q 854 165 907 249 q 713 35 801 82 q 514 -11 624 -11 q 316 35 404 -11 q 176 165 228 82 q 124 360 124 249 l 124 1011 l 285 1011 l 285 364 m 879 936 q 955 960 933 936 q 986 1053 976 985 l 1101 1053 q 1060 919 1089 964 q 985 858 1031 874 q 879 842 940 842 l 879 936 z "},"Ử":{"ha":1064,"x_min":124,"x_max":1101,"o":"m 285 364 q 315 255 285 304 q 398 176 346 206 q 514 146 450 146 q 633 176 581 146 q 717 255 686 206 q 747 364 747 304 l 747 1011 l 907 1011 l 907 360 q 854 165 907 249 q 713 35 801 82 q 514 -11 624 -11 q 316 35 404 -11 q 176 165 228 82 q 124 360 124 249 l 124 1011 l 285 1011 l 285 364 m 879 936 q 955 960 933 936 q 986 1053 976 985 l 1101 1053 q 1060 919 1089 964 q 985 858 1031 874 q 879 842 940 842 l 879 936 z "},"Ữ":{"ha":1064,"x_min":124,"x_max":1101,"o":"m 285 364 q 315 255 285 304 q 398 176 346 206 q 514 146 450 146 q 633 176 581 146 q 717 255 686 206 q 747 364 747 304 l 747 1011 l 907 1011 l 907 360 q 854 165 907 249 q 713 35 801 82 q 514 -11 624 -11 q 316 35 404 -11 q 176 165 228 82 q 124 360 124 249 l 124 1011 l 285 1011 l 285 364 m 879 936 q 955 960 933 936 q 986 1053 976 985 l 1101 1053 q 1060 919 1089 964 q 985 858 1031 874 q 879 842 940 842 l 879 936 m 622 1126 q 547 1147 576 1126 q 492 1188 517 1167 q 460 1214 476 1203 q 425 1225 444 1225 q 385 1196 399 1225 q 374 1126 372 1167 l 293 1126 q 304 1226 289 1181 q 353 1298 319 1271 q 433 1325 386 1325 q 495 1306 468 1325 q 546 1265 522 1288 q 583 1234 565 1247 q 619 1221 600 1221 q 656 1251 646 1221 q 664 1325 665 1282 l 744 1325 q 718 1181 756 1236 q 622 1126 681 1126 z "},"Ű":{"ha":1029,"x_min":124,"x_max":907,"o":"m 285 364 q 315 255 285 304 q 398 176 346 206 q 514 146 450 146 q 633 176 581 146 q 717 255 686 206 q 747 364 747 304 l 747 1011 l 907 1011 l 907 360 q 854 165 907 249 q 713 35 801 82 q 514 -11 624 -11 q 316 35 404 -11 q 176 165 228 82 q 124 360 124 249 l 124 1011 l 285 1011 l 285 364 z "},"Ȗ":{"ha":1029,"x_min":124,"x_max":907,"o":"m 285 364 q 315 255 285 304 q 398 176 346 206 q 514 146 450 146 q 633 176 581 146 q 717 255 686 206 q 747 364 747 304 l 747 1011 l 907 1011 l 907 360 q 854 165 907 249 q 713 35 801 82 q 514 -11 624 -11 q 316 35 404 -11 q 176 165 228 82 q 124 360 124 249 l 124 1011 l 285 1011 l 285 364 m 508 1296 q 655 1232 600 1296 q 728 1044 710 1168 l 622 1044 q 586 1149 613 1108 q 508 1190 560 1190 q 431 1149 456 1190 q 394 1044 406 1108 l 290 1044 q 508 1296 325 1296 z "},"Ū":{"ha":1029,"x_min":124,"x_max":907,"o":"m 285 364 q 315 255 285 304 q 398 176 346 206 q 514 146 450 146 q 633 176 581 146 q 717 255 686 206 q 747 364 747 304 l 747 1011 l 907 1011 l 907 360 q 854 165 907 249 q 713 35 801 82 q 514 -11 624 -11 q 316 35 404 -11 q 176 165 228 82 q 124 360 124 249 l 124 1011 l 285 1011 l 285 364 z "},"Ų":{"ha":1029,"x_min":124,"x_max":907,"o":"m 661 -308 q 534 -264 586 -308 q 482 -146 482 -219 q 501 -72 482 -108 q 554 -10 519 -36 q 514 -11 535 -11 q 308 36 396 -11 q 172 167 221 83 q 124 360 124 250 l 124 1011 l 285 1011 l 285 364 q 315 255 285 304 q 398 176 346 206 q 514 146 450 146 q 633 176 581 146 q 717 255 686 206 q 747 364 747 304 l 747 1011 l 907 1011 l 907 351 q 881 213 907 271 q 813 113 854 156 q 729 38 772 71 q 645 -43 679 -3 q 611 -133 611 -83 q 631 -183 611 -169 q 675 -197 650 -197 q 772 -131 729 -197 l 829 -211 q 754 -281 803 -253 q 661 -308 706 -308 z "},"Ů":{"ha":1029,"x_min":124,"x_max":907,"o":"m 285 364 q 315 255 285 304 q 398 176 346 206 q 514 146 450 146 q 633 176 581 146 q 717 255 686 206 q 747 364 747 304 l 747 1011 l 907 1011 l 907 360 q 854 165 907 249 q 713 35 801 82 q 514 -11 624 -11 q 316 35 404 -11 q 176 165 228 82 q 124 360 124 249 l 124 1011 l 285 1011 l 285 364 z "},"Ũ":{"ha":1029,"x_min":124,"x_max":907,"o":"m 285 364 q 315 255 285 304 q 398 176 346 206 q 514 146 450 146 q 633 176 581 146 q 717 255 686 206 q 747 364 747 304 l 747 1011 l 907 1011 l 907 360 q 854 165 907 249 q 713 35 801 82 q 514 -11 624 -11 q 316 35 404 -11 q 176 165 228 82 q 124 360 124 249 l 124 1011 l 285 1011 l 285 364 m 622 1126 q 547 1147 576 1126 q 492 1188 517 1167 q 460 1214 476 1203 q 425 1225 444 1225 q 385 1196 399 1225 q 374 1126 372 1167 l 293 1126 q 304 1226 289 1181 q 353 1298 319 1271 q 433 1325 386 1325 q 495 1306 468 1325 q 546 1265 522 1288 q 583 1234 565 1247 q 619 1221 600 1221 q 656 1251 646 1221 q 664 1325 665 1282 l 744 1325 q 718 1181 756 1236 q 622 1126 681 1126 z "},"V":{"ha":1008,"x_min":51,"x_max":957,"o":"m 244 1011 l 511 346 l 767 1011 l 957 1011 l 504 -47 l 51 1011 l 244 1011 z "},"W":{"ha":1408,"x_min":51,"x_max":1357,"o":"m 51 1006 l 240 1006 l 476 331 l 643 760 l 547 1006 l 707 1006 l 967 350 l 1183 1006 l 1357 1006 l 963 -44 l 724 557 l 456 -47 l 51 1006 z "},"Ẃ":{"ha":1408,"x_min":51,"x_max":1357,"o":"m 51 1006 l 240 1006 l 476 331 l 643 760 l 547 1006 l 707 1006 l 967 350 l 1183 1006 l 1357 1006 l 963 -44 l 724 557 l 456 -47 l 51 1006 z "},"Ŵ":{"ha":1408,"x_min":51,"x_max":1357,"o":"m 51 1006 l 240 1006 l 476 331 l 643 760 l 547 1006 l 707 1006 l 967 350 l 1183 1006 l 1357 1006 l 963 -44 l 724 557 l 456 -47 l 51 1006 z "},"Ẅ":{"ha":1408,"x_min":51,"x_max":1357,"o":"m 51 1006 l 240 1006 l 476 331 l 643 760 l 547 1006 l 707 1006 l 967 350 l 1183 1006 l 1357 1006 l 963 -44 l 724 557 l 456 -47 l 51 1006 z "},"Ẁ":{"ha":1408,"x_min":51,"x_max":1357,"o":"m 51 1006 l 240 1006 l 476 331 l 643 760 l 547 1006 l 707 1006 l 967 350 l 1183 1006 l 1357 1006 l 963 -44 l 724 557 l 456 -47 l 51 1006 z "},"X":{"ha":964,"x_min":42,"x_max":921,"o":"m 42 0 l 375 521 l 56 1011 l 261 1011 l 500 646 l 713 1011 l 908 1011 l 588 511 l 921 0 l 713 0 l 465 382 l 242 0 l 42 0 z "},"Y":{"ha":978,"x_min":32,"x_max":946,"o":"m 406 328 l 32 1011 l 231 1011 l 492 513 l 747 1011 l 946 1011 l 567 328 l 567 0 l 406 0 l 406 328 z "},"Ý":{"ha":978,"x_min":32,"x_max":946,"o":"m 406 328 l 32 1011 l 231 1011 l 492 513 l 747 1011 l 946 1011 l 567 328 l 567 0 l 406 0 l 406 328 z "},"Ŷ":{"ha":978,"x_min":32,"x_max":946,"o":"m 406 328 l 32 1011 l 231 1011 l 492 513 l 747 1011 l 946 1011 l 567 328 l 567 0 l 406 0 l 406 328 z "},"Ÿ":{"ha":978,"x_min":32,"x_max":946,"o":"m 406 328 l 32 1011 l 231 1011 l 492 513 l 747 1011 l 946 1011 l 567 328 l 567 0 l 406 0 l 406 328 z "},"Ỵ":{"ha":978,"x_min":32,"x_max":946,"o":"m 406 328 l 32 1011 l 231 1011 l 492 513 l 747 1011 l 946 1011 l 567 328 l 567 0 l 406 0 l 406 328 z "},"Ỳ":{"ha":978,"x_min":32,"x_max":946,"o":"m 406 328 l 32 1011 l 231 1011 l 492 513 l 747 1011 l 946 1011 l 567 328 l 567 0 l 406 0 l 406 328 z "},"Ỷ":{"ha":978,"x_min":32,"x_max":946,"o":"m 406 328 l 32 1011 l 231 1011 l 492 513 l 747 1011 l 946 1011 l 567 328 l 567 0 l 406 0 l 406 328 z "},"Ȳ":{"ha":978,"x_min":32,"x_max":946,"o":"m 406 328 l 32 1011 l 231 1011 l 492 513 l 747 1011 l 946 1011 l 567 328 l 567 0 l 406 0 l 406 328 z "},"Ỹ":{"ha":978,"x_min":32,"x_max":946,"o":"m 406 328 l 32 1011 l 231 1011 l 492 513 l 747 1011 l 946 1011 l 567 328 l 567 0 l 406 0 l 406 328 m 617 1125 q 541 1145 571 1125 q 486 1186 511 1165 q 455 1213 471 1201 q 419 1224 439 1224 q 380 1194 393 1224 q 368 1125 367 1165 l 288 1125 q 299 1224 283 1179 q 347 1297 314 1269 q 428 1324 381 1324 q 490 1305 463 1324 q 540 1264 517 1286 q 577 1233 560 1246 q 614 1219 594 1219 q 650 1250 640 1219 q 658 1324 660 1281 l 739 1324 q 713 1180 750 1235 q 617 1125 675 1125 z "},"Z":{"ha":994,"x_min":67,"x_max":921,"o":"m 67 0 q 115 72 78 15 q 206 210 153 128 q 319 385 258 292 q 439 569 379 478 q 548 735 499 660 q 628 856 597 811 l 253 856 q 170 881 210 856 q 131 947 131 906 l 131 1063 l 281 1063 l 281 1043 q 290 1014 281 1017 q 324 1011 300 1011 l 913 1011 l 344 156 l 921 156 l 921 0 l 67 0 z "},"Ź":{"ha":994,"x_min":67,"x_max":921,"o":"m 67 0 q 115 72 78 15 q 206 210 153 128 q 319 385 258 292 q 439 569 379 478 q 548 735 499 660 q 628 856 597 811 l 253 856 q 170 881 210 856 q 131 947 131 906 l 131 1063 l 281 1063 l 281 1043 q 290 1014 281 1017 q 324 1011 300 1011 l 913 1011 l 344 156 l 921 156 l 921 0 l 67 0 z "},"Ž":{"ha":994,"x_min":67,"x_max":921,"o":"m 67 0 q 115 72 78 15 q 206 210 153 128 q 319 385 258 292 q 439 569 379 478 q 548 735 499 660 q 628 856 597 811 l 253 856 q 170 881 210 856 q 131 947 131 906 l 131 1063 l 281 1063 l 281 1043 q 290 1014 281 1017 q 324 1011 300 1011 l 913 1011 l 344 156 l 921 156 l 921 0 l 67 0 z "},"Ż":{"ha":994,"x_min":67,"x_max":921,"o":"m 67 0 q 115 72 78 15 q 206 210 153 128 q 319 385 258 292 q 439 569 379 478 q 548 735 499 660 q 628 856 597 811 l 253 856 q 170 881 210 856 q 131 947 131 906 l 131 1063 l 281 1063 l 281 1043 q 290 1014 281 1017 q 324 1011 300 1011 l 913 1011 l 344 156 l 921 156 l 921 0 l 67 0 z "},"a":{"ha":831,"x_min":58,"x_max":722,"o":"m 354 -15 q 204 19 271 -15 q 98 122 138 54 q 58 293 58 190 q 99 465 58 393 q 208 575 140 536 q 354 614 275 614 q 487 583 436 614 q 568 508 538 551 l 579 588 l 722 588 l 722 0 l 567 0 l 567 86 q 522 44 551 68 q 451 3 493 21 q 354 -15 408 -15 m 397 113 q 504 146 460 113 q 567 238 549 179 l 567 365 q 503 453 550 419 q 392 486 456 486 q 303 463 343 486 q 240 398 264 440 q 215 301 215 356 q 240 206 215 249 q 306 138 265 163 q 397 113 347 113 z "},"á":{"ha":831,"x_min":58,"x_max":722,"o":"m 354 -15 q 204 19 271 -15 q 98 122 138 54 q 58 293 58 190 q 99 465 58 393 q 208 575 140 536 q 354 614 275 614 q 487 583 436 614 q 568 508 538 551 l 579 588 l 722 588 l 722 0 l 567 0 l 567 86 q 522 44 551 68 q 451 3 493 21 q 354 -15 408 -15 m 397 113 q 504 146 460 113 q 567 238 549 179 l 567 365 q 503 453 550 419 q 392 486 456 486 q 303 463 343 486 q 240 398 264 440 q 215 301 215 356 q 240 206 215 249 q 306 138 265 163 q 397 113 347 113 z "},"ă":{"ha":831,"x_min":58,"x_max":722,"o":"m 354 -15 q 204 19 271 -15 q 98 122 138 54 q 58 293 58 190 q 99 465 58 393 q 208 575 140 536 q 354 614 275 614 q 487 583 436 614 q 568 508 538 551 l 579 588 l 722 588 l 722 0 l 567 0 l 567 86 q 522 44 551 68 q 451 3 493 21 q 354 -15 408 -15 m 397 113 q 504 146 460 113 q 567 238 549 179 l 567 365 q 503 453 550 419 q 392 486 456 486 q 303 463 343 486 q 240 398 264 440 q 215 301 215 356 q 240 206 215 249 q 306 138 265 163 q 397 113 347 113 z "},"ắ":{"ha":831,"x_min":58,"x_max":722,"o":"m 354 -15 q 204 19 271 -15 q 98 122 138 54 q 58 293 58 190 q 99 465 58 393 q 208 575 140 536 q 354 614 275 614 q 487 583 436 614 q 568 508 538 551 l 579 588 l 722 588 l 722 0 l 567 0 l 567 86 q 522 44 551 68 q 451 3 493 21 q 354 -15 408 -15 m 397 113 q 504 146 460 113 q 567 238 549 179 l 567 365 q 503 453 550 419 q 392 486 456 486 q 303 463 343 486 q 240 398 264 440 q 215 301 215 356 q 240 206 215 249 q 306 138 265 163 q 397 113 347 113 z "},"ặ":{"ha":831,"x_min":58,"x_max":722,"o":"m 354 -15 q 204 19 271 -15 q 98 122 138 54 q 58 293 58 190 q 99 465 58 393 q 208 575 140 536 q 354 614 275 614 q 487 583 436 614 q 568 508 538 551 l 579 588 l 722 588 l 722 0 l 567 0 l 567 86 q 522 44 551 68 q 451 3 493 21 q 354 -15 408 -15 m 397 113 q 504 146 460 113 q 567 238 549 179 l 567 365 q 503 453 550 419 q 392 486 456 486 q 303 463 343 486 q 240 398 264 440 q 215 301 215 356 q 240 206 215 249 q 306 138 265 163 q 397 113 347 113 m 340 -147 q 364 -97 340 -117 q 415 -78 388 -78 q 466 -97 443 -78 q 489 -147 489 -117 q 466 -197 489 -178 q 415 -217 443 -217 q 364 -197 388 -217 q 340 -147 340 -178 z "},"ằ":{"ha":831,"x_min":58,"x_max":722,"o":"m 354 -15 q 204 19 271 -15 q 98 122 138 54 q 58 293 58 190 q 99 465 58 393 q 208 575 140 536 q 354 614 275 614 q 487 583 436 614 q 568 508 538 551 l 579 588 l 722 588 l 722 0 l 567 0 l 567 86 q 522 44 551 68 q 451 3 493 21 q 354 -15 408 -15 m 397 113 q 504 146 460 113 q 567 238 549 179 l 567 365 q 503 453 550 419 q 392 486 456 486 q 303 463 343 486 q 240 398 264 440 q 215 301 215 356 q 240 206 215 249 q 306 138 265 163 q 397 113 347 113 z "},"ẳ":{"ha":831,"x_min":58,"x_max":722,"o":"m 354 -15 q 204 19 271 -15 q 98 122 138 54 q 58 293 58 190 q 99 465 58 393 q 208 575 140 536 q 354 614 275 614 q 487 583 436 614 q 568 508 538 551 l 579 588 l 722 588 l 722 0 l 567 0 l 567 86 q 522 44 551 68 q 451 3 493 21 q 354 -15 408 -15 m 397 113 q 504 146 460 113 q 567 238 549 179 l 567 365 q 503 453 550 419 q 392 486 456 486 q 303 463 343 486 q 240 398 264 440 q 215 301 215 356 q 240 206 215 249 q 306 138 265 163 q 397 113 347 113 z "},"ẵ":{"ha":831,"x_min":58,"x_max":722,"o":"m 354 -15 q 204 19 271 -15 q 98 122 138 54 q 58 293 58 190 q 99 465 58 393 q 208 575 140 536 q 354 614 275 614 q 487 583 436 614 q 568 508 538 551 l 579 588 l 722 588 l 722 0 l 567 0 l 567 86 q 522 44 551 68 q 451 3 493 21 q 354 -15 408 -15 m 397 113 q 504 146 460 113 q 567 238 549 179 l 567 365 q 503 453 550 419 q 392 486 456 486 q 303 463 343 486 q 240 398 264 440 q 215 301 215 356 q 240 206 215 249 q 306 138 265 163 q 397 113 347 113 z "},"â":{"ha":831,"x_min":58,"x_max":722,"o":"m 354 -15 q 204 19 271 -15 q 98 122 138 54 q 58 293 58 190 q 99 465 58 393 q 208 575 140 536 q 354 614 275 614 q 487 583 436 614 q 568 508 538 551 l 579 588 l 722 588 l 722 0 l 567 0 l 567 86 q 522 44 551 68 q 451 3 493 21 q 354 -15 408 -15 m 397 113 q 504 146 460 113 q 567 238 549 179 l 567 365 q 503 453 550 419 q 392 486 456 486 q 303 463 343 486 q 240 398 264 440 q 215 301 215 356 q 240 206 215 249 q 306 138 265 163 q 397 113 347 113 z "},"ấ":{"ha":831,"x_min":58,"x_max":844,"o":"m 354 -15 q 204 19 271 -15 q 98 122 138 54 q 58 293 58 190 q 99 465 58 393 q 208 575 140 536 q 354 614 275 614 q 487 583 436 614 q 568 508 538 551 l 579 588 l 722 588 l 722 0 l 567 0 l 567 86 q 522 44 551 68 q 451 3 493 21 q 354 -15 408 -15 m 397 113 q 504 146 460 113 q 567 238 549 179 l 567 365 q 503 453 550 419 q 392 486 456 486 q 303 463 343 486 q 240 398 264 440 q 215 301 215 356 q 240 206 215 249 q 306 138 265 163 q 397 113 347 113 z "},"ậ":{"ha":831,"x_min":58,"x_max":722,"o":"m 354 -15 q 204 19 271 -15 q 98 122 138 54 q 58 293 58 190 q 99 465 58 393 q 208 575 140 536 q 354 614 275 614 q 487 583 436 614 q 568 508 538 551 l 579 588 l 722 588 l 722 0 l 567 0 l 567 86 q 522 44 551 68 q 451 3 493 21 q 354 -15 408 -15 m 397 113 q 504 146 460 113 q 567 238 549 179 l 567 365 q 503 453 550 419 q 392 486 456 486 q 303 463 343 486 q 240 398 264 440 q 215 301 215 356 q 240 206 215 249 q 306 138 265 163 q 397 113 347 113 m 340 -147 q 364 -97 340 -117 q 415 -78 388 -78 q 466 -97 443 -78 q 489 -147 489 -117 q 466 -197 489 -178 q 415 -217 443 -217 q 364 -197 388 -217 q 340 -147 340 -178 z "},"ầ":{"ha":831,"x_min":-15,"x_max":722,"o":"m 354 -15 q 204 19 271 -15 q 98 122 138 54 q 58 293 58 190 q 99 465 58 393 q 208 575 140 536 q 354 614 275 614 q 487 583 436 614 q 568 508 538 551 l 579 588 l 722 588 l 722 0 l 567 0 l 567 86 q 522 44 551 68 q 451 3 493 21 q 354 -15 408 -15 m 397 113 q 504 146 460 113 q 567 238 549 179 l 567 365 q 503 453 550 419 q 392 486 456 486 q 303 463 343 486 q 240 398 264 440 q 215 301 215 356 q 240 206 215 249 q 306 138 265 163 q 397 113 347 113 z "},"ẩ":{"ha":831,"x_min":58,"x_max":817,"o":"m 354 -15 q 204 19 271 -15 q 98 122 138 54 q 58 293 58 190 q 99 465 58 393 q 208 575 140 536 q 354 614 275 614 q 487 583 436 614 q 568 508 538 551 l 579 588 l 722 588 l 722 0 l 567 0 l 567 86 q 522 44 551 68 q 451 3 493 21 q 354 -15 408 -15 m 397 113 q 504 146 460 113 q 567 238 549 179 l 567 365 q 503 453 550 419 q 392 486 456 486 q 303 463 343 486 q 240 398 264 440 q 215 301 215 356 q 240 206 215 249 q 306 138 265 163 q 397 113 347 113 z "},"ẫ":{"ha":831,"x_min":58,"x_max":722,"o":"m 354 -15 q 204 19 271 -15 q 98 122 138 54 q 58 293 58 190 q 99 465 58 393 q 208 575 140 536 q 354 614 275 614 q 487 583 436 614 q 568 508 538 551 l 579 588 l 722 588 l 722 0 l 567 0 l 567 86 q 522 44 551 68 q 451 3 493 21 q 354 -15 408 -15 m 397 113 q 504 146 460 113 q 567 238 549 179 l 567 365 q 503 453 550 419 q 392 486 456 486 q 303 463 343 486 q 240 398 264 440 q 215 301 215 356 q 240 206 215 249 q 306 138 265 163 q 397 113 347 113 z "},"ȁ":{"ha":831,"x_min":58,"x_max":722,"o":"m 354 -15 q 204 19 271 -15 q 98 122 138 54 q 58 293 58 190 q 99 465 58 393 q 208 575 140 536 q 354 614 275 614 q 487 583 436 614 q 568 508 538 551 l 579 588 l 722 588 l 722 0 l 567 0 l 567 86 q 522 44 551 68 q 451 3 493 21 q 354 -15 408 -15 m 397 113 q 504 146 460 113 q 567 238 549 179 l 567 365 q 503 453 550 419 q 392 486 456 486 q 303 463 343 486 q 240 398 264 440 q 215 301 215 356 q 240 206 215 249 q 306 138 265 163 q 397 113 347 113 z "},"ä":{"ha":831,"x_min":58,"x_max":722,"o":"m 354 -15 q 204 19 271 -15 q 98 122 138 54 q 58 293 58 190 q 99 465 58 393 q 208 575 140 536 q 354 614 275 614 q 487 583 436 614 q 568 508 538 551 l 579 588 l 722 588 l 722 0 l 567 0 l 567 86 q 522 44 551 68 q 451 3 493 21 q 354 -15 408 -15 m 397 113 q 504 146 460 113 q 567 238 549 179 l 567 365 q 503 453 550 419 q 392 486 456 486 q 303 463 343 486 q 240 398 264 440 q 215 301 215 356 q 240 206 215 249 q 306 138 265 163 q 397 113 347 113 z "},"ạ":{"ha":831,"x_min":58,"x_max":722,"o":"m 354 -15 q 204 19 271 -15 q 98 122 138 54 q 58 293 58 190 q 99 465 58 393 q 208 575 140 536 q 354 614 275 614 q 487 583 436 614 q 568 508 538 551 l 579 588 l 722 588 l 722 0 l 567 0 l 567 86 q 522 44 551 68 q 451 3 493 21 q 354 -15 408 -15 m 397 113 q 504 146 460 113 q 567 238 549 179 l 567 365 q 503 453 550 419 q 392 486 456 486 q 303 463 343 486 q 240 398 264 440 q 215 301 215 356 q 240 206 215 249 q 306 138 265 163 q 397 113 347 113 m 340 -147 q 364 -97 340 -117 q 415 -78 388 -78 q 466 -97 443 -78 q 489 -147 489 -117 q 466 -197 489 -178 q 415 -217 443 -217 q 364 -197 388 -217 q 340 -147 340 -178 z "},"à":{"ha":831,"x_min":58,"x_max":722,"o":"m 354 -15 q 204 19 271 -15 q 98 122 138 54 q 58 293 58 190 q 99 465 58 393 q 208 575 140 536 q 354 614 275 614 q 487 583 436 614 q 568 508 538 551 l 579 588 l 722 588 l 722 0 l 567 0 l 567 86 q 522 44 551 68 q 451 3 493 21 q 354 -15 408 -15 m 397 113 q 504 146 460 113 q 567 238 549 179 l 567 365 q 503 453 550 419 q 392 486 456 486 q 303 463 343 486 q 240 398 264 440 q 215 301 215 356 q 240 206 215 249 q 306 138 265 163 q 397 113 347 113 z "},"ả":{"ha":831,"x_min":58,"x_max":722,"o":"m 354 -15 q 204 19 271 -15 q 98 122 138 54 q 58 293 58 190 q 99 465 58 393 q 208 575 140 536 q 354 614 275 614 q 487 583 436 614 q 568 508 538 551 l 579 588 l 722 588 l 722 0 l 567 0 l 567 86 q 522 44 551 68 q 451 3 493 21 q 354 -15 408 -15 m 397 113 q 504 146 460 113 q 567 238 549 179 l 567 365 q 503 453 550 419 q 392 486 456 486 q 303 463 343 486 q 240 398 264 440 q 215 301 215 356 q 240 206 215 249 q 306 138 265 163 q 397 113 347 113 m 403 721 q 446 758 429 740 q 463 800 463 775 q 451 835 463 821 q 418 849 440 849 q 383 837 399 849 q 358 807 368 825 l 301 843 q 362 913 325 890 q 439 935 399 935 q 524 899 497 935 q 550 821 550 864 q 517 737 550 771 q 439 675 485 703 l 403 721 z "},"ȃ":{"ha":831,"x_min":58,"x_max":722,"o":"m 354 -15 q 204 19 271 -15 q 98 122 138 54 q 58 293 58 190 q 99 465 58 393 q 208 575 140 536 q 354 614 275 614 q 487 583 436 614 q 568 508 538 551 l 579 588 l 722 588 l 722 0 l 567 0 l 567 86 q 522 44 551 68 q 451 3 493 21 q 354 -15 408 -15 m 397 113 q 504 146 460 113 q 567 238 549 179 l 567 365 q 503 453 550 419 q 392 486 456 486 q 303 463 343 486 q 240 398 264 440 q 215 301 215 356 q 240 206 215 249 q 306 138 265 163 q 397 113 347 113 m 442 915 q 588 851 533 915 q 661 665 643 788 l 557 665 q 519 770 546 729 q 442 811 493 811 q 364 770 389 811 q 329 665 339 729 l 224 665 q 442 915 260 915 z "},"ā":{"ha":831,"x_min":58,"x_max":722,"o":"m 354 -15 q 204 19 271 -15 q 98 122 138 54 q 58 293 58 190 q 99 465 58 393 q 208 575 140 536 q 354 614 275 614 q 487 583 436 614 q 568 508 538 551 l 579 588 l 722 588 l 722 0 l 567 0 l 567 86 q 522 44 551 68 q 451 3 493 21 q 354 -15 408 -15 m 397 113 q 504 146 460 113 q 567 238 549 179 l 567 365 q 503 453 550 419 q 392 486 456 486 q 303 463 343 486 q 240 398 264 440 q 215 301 215 356 q 240 206 215 249 q 306 138 265 163 q 397 113 347 113 z "},"ą":{"ha":838,"x_min":63,"x_max":803,"o":"m 353 -15 q 206 19 271 -15 q 101 122 140 54 q 63 293 63 190 q 103 465 63 393 q 210 575 144 536 q 353 614 276 614 q 492 581 442 614 q 572 501 542 547 l 583 588 l 728 588 l 728 0 q 624 -59 664 -28 q 585 -133 585 -90 q 604 -183 585 -169 q 650 -197 624 -197 q 746 -131 703 -197 l 803 -211 q 728 -281 776 -253 q 635 -308 679 -308 q 508 -264 560 -308 q 456 -146 456 -219 q 488 -55 456 -99 q 571 11 519 -11 l 571 92 q 524 45 553 69 q 452 3 494 21 q 353 -15 410 -15 m 396 113 q 507 146 461 113 q 571 238 553 179 l 571 365 q 507 453 554 419 q 396 486 460 486 q 308 463 347 486 q 244 398 268 440 q 221 301 221 356 q 244 206 221 249 q 308 138 268 163 q 396 113 347 113 z "},"å":{"ha":831,"x_min":58,"x_max":722,"o":"m 354 -15 q 204 19 271 -15 q 98 122 138 54 q 58 293 58 190 q 99 465 58 393 q 208 575 140 536 q 354 614 275 614 q 487 583 436 614 q 568 508 538 551 l 579 588 l 722 588 l 722 0 l 567 0 l 567 86 q 522 44 551 68 q 451 3 493 21 q 354 -15 408 -15 m 397 113 q 504 146 460 113 q 567 238 549 179 l 567 365 q 503 453 550 419 q 392 486 456 486 q 303 463 343 486 q 240 398 264 440 q 215 301 215 356 q 240 206 215 249 q 306 138 265 163 q 397 113 347 113 z "},"ǻ":{"ha":831,"x_min":58,"x_max":722,"o":"m 354 -15 q 204 19 271 -15 q 98 122 138 54 q 58 293 58 190 q 99 465 58 393 q 208 575 140 536 q 354 614 275 614 q 487 583 436 614 q 568 508 538 551 l 579 588 l 722 588 l 722 0 l 567 0 l 567 86 q 522 44 551 68 q 451 3 493 21 q 354 -15 408 -15 m 397 113 q 504 146 460 113 q 567 238 549 179 l 567 365 q 503 453 550 419 q 392 486 456 486 q 303 463 343 486 q 240 398 264 440 q 215 301 215 356 q 240 206 215 249 q 306 138 265 163 q 397 113 347 113 z "},"ã":{"ha":831,"x_min":58,"x_max":722,"o":"m 354 -15 q 204 19 271 -15 q 98 122 138 54 q 58 293 58 190 q 99 465 58 393 q 208 575 140 536 q 354 614 275 614 q 487 583 436 614 q 568 508 538 551 l 579 588 l 722 588 l 722 0 l 567 0 l 567 86 q 522 44 551 68 q 451 3 493 21 q 354 -15 408 -15 m 397 113 q 504 146 460 113 q 567 238 549 179 l 567 365 q 503 453 550 419 q 392 486 456 486 q 303 463 343 486 q 240 398 264 440 q 215 301 215 356 q 240 206 215 249 q 306 138 265 163 q 397 113 347 113 m 544 664 q 469 684 499 664 q 414 725 439 704 q 383 752 399 740 q 347 764 367 764 q 308 735 321 764 q 296 664 294 706 l 215 664 q 226 764 211 718 q 275 837 242 810 q 356 864 308 864 q 417 844 390 864 q 468 804 444 825 q 505 772 488 786 q 542 758 522 758 q 578 789 568 758 q 586 863 588 819 l 667 863 q 640 719 678 774 q 544 664 603 664 z "},"æ":{"ha":1150,"x_min":58,"x_max":1104,"o":"m 289 -15 q 114 38 169 -15 q 58 168 58 90 q 93 267 58 226 q 184 330 128 308 q 304 351 240 351 q 391 342 349 351 q 468 317 433 332 l 468 365 q 445 440 468 414 q 392 475 422 465 q 343 485 363 485 q 244 458 288 485 q 175 396 201 431 l 96 494 q 206 577 140 542 q 364 613 272 613 q 487 592 432 613 q 576 532 542 572 q 677 592 619 569 q 800 614 735 614 q 999 544 921 614 q 1104 346 1078 474 l 653 193 q 800 118 703 118 q 869 131 836 118 q 932 164 903 143 l 1003 49 q 902 2 957 19 q 797 -15 847 -15 q 647 13 713 -15 q 540 90 582 40 q 429 10 497 36 q 289 -15 361 -15 m 621 307 q 622 283 621 296 l 931 393 q 881 462 914 432 q 789 492 847 492 q 667 440 714 492 q 621 307 621 389 m 229 172 q 256 115 229 136 q 333 93 283 93 q 415 113 371 93 q 481 163 458 133 l 481 204 l 479 207 q 415 239 446 229 q 342 249 385 249 q 262 231 294 249 q 229 172 229 213 z "},"ǽ":{"ha":1150,"x_min":58,"x_max":1104,"o":"m 289 -15 q 114 38 169 -15 q 58 168 58 90 q 93 267 58 226 q 184 330 128 308 q 304 351 240 351 q 391 342 349 351 q 468 317 433 332 l 468 365 q 445 440 468 414 q 392 475 422 465 q 343 485 363 485 q 244 458 288 485 q 175 396 201 431 l 96 494 q 206 577 140 542 q 364 613 272 613 q 487 592 432 613 q 576 532 542 572 q 677 592 619 569 q 800 614 735 614 q 999 544 921 614 q 1104 346 1078 474 l 653 193 q 800 118 703 118 q 869 131 836 118 q 932 164 903 143 l 1003 49 q 902 2 957 19 q 797 -15 847 -15 q 647 13 713 -15 q 540 90 582 40 q 429 10 497 36 q 289 -15 361 -15 m 621 307 q 622 283 621 296 l 931 393 q 881 462 914 432 q 789 492 847 492 q 667 440 714 492 q 621 307 621 389 m 229 172 q 256 115 229 136 q 333 93 283 93 q 415 113 371 93 q 481 163 458 133 l 481 204 l 479 207 q 415 239 446 229 q 342 249 385 249 q 262 231 294 249 q 229 172 229 213 z "},"b":{"ha":840,"x_min":107,"x_max":783,"o":"m 478 -15 q 352 10 406 -15 q 263 78 299 36 l 263 0 l 107 0 l 107 1083 l 263 1083 l 263 525 q 359 589 297 564 q 499 614 421 614 q 641 577 576 614 q 744 471 706 540 q 783 304 783 401 q 740 133 783 204 q 628 23 697 61 q 478 -15 558 -15 m 444 117 q 535 142 494 117 q 601 209 576 167 q 625 306 625 251 q 601 400 625 358 q 535 467 576 442 q 444 492 494 492 q 329 458 378 492 q 263 369 281 424 l 263 239 q 329 151 282 185 q 444 117 376 117 z "},"c":{"ha":646,"x_min":58,"x_max":599,"o":"m 593 54 q 498 3 554 22 q 385 -15 442 -15 q 214 22 288 -15 q 99 129 140 60 q 58 294 58 199 q 102 460 58 390 q 217 566 146 529 q 369 603 288 603 q 500 583 443 603 q 599 528 557 563 l 521 426 q 463 460 499 444 q 383 476 428 476 q 298 453 336 476 q 237 388 260 429 q 214 294 214 347 q 265 166 214 219 q 399 113 317 113 q 515 151 467 113 l 593 54 z "},"ć":{"ha":646,"x_min":58,"x_max":599,"o":"m 593 54 q 498 3 554 22 q 385 -15 442 -15 q 214 22 288 -15 q 99 129 140 60 q 58 294 58 199 q 102 460 58 390 q 217 566 146 529 q 369 603 288 603 q 500 583 443 603 q 599 528 557 563 l 521 426 q 463 460 499 444 q 383 476 428 476 q 298 453 336 476 q 237 388 260 429 q 214 294 214 347 q 265 166 214 219 q 399 113 317 113 q 515 151 467 113 l 593 54 z "},"č":{"ha":646,"x_min":58,"x_max":608,"o":"m 593 54 q 498 3 554 22 q 385 -15 442 -15 q 214 22 288 -15 q 99 129 140 60 q 58 294 58 199 q 102 460 58 390 q 217 566 146 529 q 369 603 288 603 q 500 583 443 603 q 599 528 557 563 l 521 426 q 463 460 499 444 q 383 476 428 476 q 298 453 336 476 q 237 388 260 429 q 214 294 214 347 q 265 166 214 219 q 399 113 317 113 q 515 151 467 113 l 593 54 z "},"ç":{"ha":646,"x_min":58,"x_max":599,"o":"m 593 54 q 498 3 554 22 q 385 -15 442 -15 q 214 22 288 -15 q 99 129 140 60 q 58 294 58 199 q 102 460 58 390 q 217 566 146 529 q 369 603 288 603 q 500 583 443 603 q 599 528 557 563 l 521 426 q 463 460 499 444 q 383 476 428 476 q 298 453 336 476 q 237 388 260 429 q 214 294 214 347 q 265 166 214 219 q 399 113 317 113 q 515 151 467 113 l 593 54 z "},"ĉ":{"ha":646,"x_min":58,"x_max":599,"o":"m 593 54 q 498 3 554 22 q 385 -15 442 -15 q 214 22 288 -15 q 99 129 140 60 q 58 294 58 199 q 102 460 58 390 q 217 566 146 529 q 369 603 288 603 q 500 583 443 603 q 599 528 557 563 l 521 426 q 463 460 499 444 q 383 476 428 476 q 298 453 336 476 q 237 388 260 429 q 214 294 214 347 q 265 166 214 219 q 399 113 317 113 q 515 151 467 113 l 593 54 z "},"ċ":{"ha":646,"x_min":58,"x_max":599,"o":"m 593 54 q 498 3 554 22 q 385 -15 442 -15 q 214 22 288 -15 q 99 129 140 60 q 58 294 58 199 q 102 460 58 390 q 217 566 146 529 q 369 603 288 603 q 500 583 443 603 q 599 528 557 563 l 521 426 q 463 460 499 444 q 383 476 428 476 q 298 453 336 476 q 237 388 260 429 q 214 294 214 347 q 265 166 214 219 q 399 113 317 113 q 515 151 467 113 l 593 54 z "},"d":{"ha":840,"x_min":58,"x_max":733,"o":"m 347 -15 q 199 24 264 -15 q 96 134 133 63 q 58 303 58 206 q 99 471 58 401 q 208 577 139 540 q 367 614 278 614 q 488 590 431 614 q 579 524 546 565 l 579 1083 l 733 1083 l 733 0 l 578 0 l 578 79 q 477 11 535 38 q 347 -15 419 -15 m 397 117 q 512 150 465 117 q 578 243 558 183 l 578 368 q 512 457 561 422 q 397 492 463 492 q 306 467 347 492 q 240 401 265 443 q 215 306 215 360 q 240 210 215 253 q 306 142 265 167 q 397 117 347 117 z "},"ð":{"ha":771,"x_min":58,"x_max":714,"o":"m 372 -15 q 213 23 285 -15 q 100 132 142 61 q 58 300 58 203 q 97 460 58 389 q 202 572 136 531 q 349 614 268 614 q 454 589 408 614 q 533 525 500 564 q 481 667 515 601 q 400 792 447 733 l 276 715 l 225 818 l 321 878 q 267 926 294 901 q 208 975 239 950 l 322 1076 q 457 963 393 1029 l 576 1035 l 628 933 l 531 874 q 664 624 614 760 q 714 356 714 489 q 692 220 714 286 q 626 101 669 154 q 518 17 582 49 q 372 -15 454 -15 m 385 113 q 508 166 461 113 q 556 299 556 219 q 508 432 556 378 q 385 486 461 486 q 298 460 336 486 q 238 392 260 435 q 215 299 215 350 q 238 203 215 246 q 298 137 260 161 q 385 113 336 113 z "},"ď":{"ha":986,"x_min":58,"x_max":1007,"o":"m 347 -15 q 199 24 264 -15 q 96 134 133 63 q 58 303 58 206 q 99 471 58 401 q 208 577 139 540 q 367 614 278 614 q 488 590 431 614 q 579 524 546 565 l 579 1083 l 733 1083 l 733 0 l 578 0 l 578 79 q 477 11 535 38 q 347 -15 419 -15 m 397 117 q 512 150 465 117 q 578 243 558 183 l 578 368 q 512 457 561 422 q 397 492 463 492 q 306 467 347 492 q 240 401 265 443 q 215 306 215 360 q 240 210 215 253 q 306 142 265 167 q 397 117 347 117 m 999 1079 q 994 997 1007 1040 q 957 915 982 953 q 900 857 932 876 l 821 893 q 868 971 850 921 q 876 1069 886 1021 l 999 1079 z "},"đ":{"ha":840,"x_min":58,"x_max":850,"o":"m 347 -15 q 199 24 264 -15 q 96 134 133 63 q 58 303 58 206 q 99 471 58 401 q 208 577 139 540 q 367 614 278 614 q 488 590 431 614 q 579 524 546 565 l 579 1083 l 733 1083 l 733 0 l 578 0 l 578 79 q 477 11 535 38 q 347 -15 419 -15 m 397 117 q 512 150 465 117 q 578 243 558 183 l 578 368 q 512 457 561 422 q 397 492 463 492 q 306 467 347 492 q 240 401 265 443 q 215 306 215 360 q 240 210 215 253 q 306 142 265 167 q 397 117 347 117 m 443 954 l 850 954 l 850 810 l 443 810 l 443 954 z "},"ǳ":{"ha":1517,"x_min":58,"x_max":1444,"o":"m 347 -15 q 199 24 264 -15 q 96 134 133 63 q 58 303 58 206 q 99 471 58 401 q 208 577 139 540 q 367 614 278 614 q 488 590 431 614 q 579 524 546 565 l 579 1083 l 733 1083 l 733 0 l 578 0 l 578 79 q 477 11 535 38 q 347 -15 419 -15 m 397 117 q 512 150 465 117 q 578 243 558 183 l 578 368 q 512 457 561 422 q 397 492 463 492 q 306 467 347 492 q 240 401 265 443 q 215 306 215 360 q 240 210 215 253 q 306 142 265 167 q 397 117 347 117 m 1018 461 q 939 491 972 461 q 906 578 906 521 l 906 644 l 1022 644 l 1022 625 q 1033 594 1022 600 q 1069 588 1044 588 l 1444 588 l 1126 128 l 1440 128 l 1440 0 l 875 0 l 1193 461 l 1018 461 z "},"ǆ":{"ha":1517,"x_min":58,"x_max":1444,"o":"m 347 -15 q 199 24 264 -15 q 96 134 133 63 q 58 303 58 206 q 99 471 58 401 q 208 577 139 540 q 367 614 278 614 q 488 590 431 614 q 579 524 546 565 l 579 1083 l 733 1083 l 733 0 l 578 0 l 578 79 q 477 11 535 38 q 347 -15 419 -15 m 397 117 q 512 150 465 117 q 578 243 558 183 l 578 368 q 512 457 561 422 q 397 492 463 492 q 306 467 347 492 q 240 401 265 443 q 215 306 215 360 q 240 210 215 253 q 306 142 265 167 q 397 117 347 117 z "},"e":{"ha":740,"x_min":58,"x_max":694,"o":"m 388 -15 q 210 25 283 -15 q 97 137 136 65 q 58 299 58 208 q 103 458 58 386 q 222 572 147 529 q 390 614 297 614 q 590 544 511 614 q 694 346 668 474 l 243 193 q 390 118 293 118 q 459 131 426 118 q 522 164 492 143 l 593 49 q 492 2 546 19 q 388 -15 438 -15 m 211 307 q 213 283 211 296 l 521 393 q 471 462 504 432 q 378 492 438 492 q 258 440 304 492 q 211 307 211 389 z "},"é":{"ha":740,"x_min":58,"x_max":694,"o":"m 388 -15 q 210 25 283 -15 q 97 137 136 65 q 58 299 58 208 q 103 458 58 386 q 222 572 147 529 q 390 614 297 614 q 590 544 511 614 q 694 346 668 474 l 243 193 q 390 118 293 118 q 459 131 426 118 q 522 164 492 143 l 593 49 q 492 2 546 19 q 388 -15 438 -15 m 211 307 q 213 283 211 296 l 521 393 q 471 462 504 432 q 378 492 438 492 q 258 440 304 492 q 211 307 211 389 z "},"ĕ":{"ha":740,"x_min":58,"x_max":694,"o":"m 388 -15 q 210 25 283 -15 q 97 137 136 65 q 58 299 58 208 q 103 458 58 386 q 222 572 147 529 q 390 614 297 614 q 590 544 511 614 q 694 346 668 474 l 243 193 q 390 118 293 118 q 459 131 426 118 q 522 164 492 143 l 593 49 q 492 2 546 19 q 388 -15 438 -15 m 211 307 q 213 283 211 296 l 521 393 q 471 462 504 432 q 378 492 438 492 q 258 440 304 492 q 211 307 211 389 z "},"ě":{"ha":740,"x_min":58,"x_max":694,"o":"m 388 -15 q 210 25 283 -15 q 97 137 136 65 q 58 299 58 208 q 103 458 58 386 q 222 572 147 529 q 390 614 297 614 q 590 544 511 614 q 694 346 668 474 l 243 193 q 390 118 293 118 q 459 131 426 118 q 522 164 492 143 l 593 49 q 492 2 546 19 q 388 -15 438 -15 m 211 307 q 213 283 211 296 l 521 393 q 471 462 504 432 q 378 492 438 492 q 258 440 304 492 q 211 307 211 389 z "},"ê":{"ha":740,"x_min":58,"x_max":694,"o":"m 388 -15 q 210 25 283 -15 q 97 137 136 65 q 58 299 58 208 q 103 458 58 386 q 222 572 147 529 q 390 614 297 614 q 590 544 511 614 q 694 346 668 474 l 243 193 q 390 118 293 118 q 459 131 426 118 q 522 164 492 143 l 593 49 q 492 2 546 19 q 388 -15 438 -15 m 211 307 q 213 283 211 296 l 521 393 q 471 462 504 432 q 378 492 438 492 q 258 440 304 492 q 211 307 211 389 z "},"ế":{"ha":740,"x_min":58,"x_max":793,"o":"m 388 -15 q 210 25 283 -15 q 97 137 136 65 q 58 299 58 208 q 103 458 58 386 q 222 572 147 529 q 390 614 297 614 q 590 544 511 614 q 694 346 668 474 l 243 193 q 390 118 293 118 q 459 131 426 118 q 522 164 492 143 l 593 49 q 492 2 546 19 q 388 -15 438 -15 m 211 307 q 213 283 211 296 l 521 393 q 471 462 504 432 q 378 492 438 492 q 258 440 304 492 q 211 307 211 389 z "},"ệ":{"ha":740,"x_min":58,"x_max":694,"o":"m 388 -15 q 210 25 283 -15 q 97 137 136 65 q 58 299 58 208 q 103 458 58 386 q 222 572 147 529 q 390 614 297 614 q 590 544 511 614 q 694 346 668 474 l 243 193 q 390 118 293 118 q 459 131 426 118 q 522 164 492 143 l 593 49 q 492 2 546 19 q 388 -15 438 -15 m 211 307 q 213 283 211 296 l 521 393 q 471 462 504 432 q 378 492 438 492 q 258 440 304 492 q 211 307 211 389 m 296 -147 q 319 -97 296 -117 q 371 -78 343 -78 q 422 -97 399 -78 q 444 -147 444 -117 q 422 -197 444 -178 q 371 -217 399 -217 q 319 -197 343 -217 q 296 -147 296 -178 z "},"ề":{"ha":740,"x_min":-67,"x_max":694,"o":"m 388 -15 q 210 25 283 -15 q 97 137 136 65 q 58 299 58 208 q 103 458 58 386 q 222 572 147 529 q 390 614 297 614 q 590 544 511 614 q 694 346 668 474 l 243 193 q 390 118 293 118 q 459 131 426 118 q 522 164 492 143 l 593 49 q 492 2 546 19 q 388 -15 438 -15 m 211 307 q 213 283 211 296 l 521 393 q 471 462 504 432 q 378 492 438 492 q 258 440 304 492 q 211 307 211 389 z "},"ể":{"ha":740,"x_min":58,"x_max":764,"o":"m 388 -15 q 210 25 283 -15 q 97 137 136 65 q 58 299 58 208 q 103 458 58 386 q 222 572 147 529 q 390 614 297 614 q 590 544 511 614 q 694 346 668 474 l 243 193 q 390 118 293 118 q 459 131 426 118 q 522 164 492 143 l 593 49 q 492 2 546 19 q 388 -15 438 -15 m 211 307 q 213 283 211 296 l 521 393 q 471 462 504 432 q 378 492 438 492 q 258 440 304 492 q 211 307 211 389 z "},"ễ":{"ha":740,"x_min":58,"x_max":694,"o":"m 388 -15 q 210 25 283 -15 q 97 137 136 65 q 58 299 58 208 q 103 458 58 386 q 222 572 147 529 q 390 614 297 614 q 590 544 511 614 q 694 346 668 474 l 243 193 q 390 118 293 118 q 459 131 426 118 q 522 164 492 143 l 593 49 q 492 2 546 19 q 388 -15 438 -15 m 211 307 q 213 283 211 296 l 521 393 q 471 462 504 432 q 378 492 438 492 q 258 440 304 492 q 211 307 211 389 z "},"ȅ":{"ha":740,"x_min":58,"x_max":694,"o":"m 388 -15 q 210 25 283 -15 q 97 137 136 65 q 58 299 58 208 q 103 458 58 386 q 222 572 147 529 q 390 614 297 614 q 590 544 511 614 q 694 346 668 474 l 243 193 q 390 118 293 118 q 459 131 426 118 q 522 164 492 143 l 593 49 q 492 2 546 19 q 388 -15 438 -15 m 211 307 q 213 283 211 296 l 521 393 q 471 462 504 432 q 378 492 438 492 q 258 440 304 492 q 211 307 211 389 z "},"ë":{"ha":740,"x_min":58,"x_max":694,"o":"m 388 -15 q 210 25 283 -15 q 97 137 136 65 q 58 299 58 208 q 103 458 58 386 q 222 572 147 529 q 390 614 297 614 q 590 544 511 614 q 694 346 668 474 l 243 193 q 390 118 293 118 q 459 131 426 118 q 522 164 492 143 l 593 49 q 492 2 546 19 q 388 -15 438 -15 m 211 307 q 213 283 211 296 l 521 393 q 471 462 504 432 q 378 492 438 492 q 258 440 304 492 q 211 307 211 389 z "},"ė":{"ha":740,"x_min":58,"x_max":694,"o":"m 388 -15 q 210 25 283 -15 q 97 137 136 65 q 58 299 58 208 q 103 458 58 386 q 222 572 147 529 q 390 614 297 614 q 590 544 511 614 q 694 346 668 474 l 243 193 q 390 118 293 118 q 459 131 426 118 q 522 164 492 143 l 593 49 q 492 2 546 19 q 388 -15 438 -15 m 211 307 q 213 283 211 296 l 521 393 q 471 462 504 432 q 378 492 438 492 q 258 440 304 492 q 211 307 211 389 z "},"ẹ":{"ha":740,"x_min":58,"x_max":694,"o":"m 388 -15 q 210 25 283 -15 q 97 137 136 65 q 58 299 58 208 q 103 458 58 386 q 222 572 147 529 q 390 614 297 614 q 590 544 511 614 q 694 346 668 474 l 243 193 q 390 118 293 118 q 459 131 426 118 q 522 164 492 143 l 593 49 q 492 2 546 19 q 388 -15 438 -15 m 211 307 q 213 283 211 296 l 521 393 q 471 462 504 432 q 378 492 438 492 q 258 440 304 492 q 211 307 211 389 m 296 -147 q 319 -97 296 -117 q 371 -78 343 -78 q 422 -97 399 -78 q 444 -147 444 -117 q 422 -197 444 -178 q 371 -217 399 -217 q 319 -197 343 -217 q 296 -147 296 -178 z "},"è":{"ha":740,"x_min":58,"x_max":694,"o":"m 388 -15 q 210 25 283 -15 q 97 137 136 65 q 58 299 58 208 q 103 458 58 386 q 222 572 147 529 q 390 614 297 614 q 590 544 511 614 q 694 346 668 474 l 243 193 q 390 118 293 118 q 459 131 426 118 q 522 164 492 143 l 593 49 q 492 2 546 19 q 388 -15 438 -15 m 211 307 q 213 283 211 296 l 521 393 q 471 462 504 432 q 378 492 438 492 q 258 440 304 492 q 211 307 211 389 z "},"ẻ":{"ha":740,"x_min":58,"x_max":694,"o":"m 388 -15 q 210 25 283 -15 q 97 137 136 65 q 58 299 58 208 q 103 458 58 386 q 222 572 147 529 q 390 614 297 614 q 590 544 511 614 q 694 346 668 474 l 243 193 q 390 118 293 118 q 459 131 426 118 q 522 164 492 143 l 593 49 q 492 2 546 19 q 388 -15 438 -15 m 211 307 q 213 283 211 296 l 521 393 q 471 462 504 432 q 378 492 438 492 q 258 440 304 492 q 211 307 211 389 m 351 721 q 394 758 378 740 q 411 800 411 775 q 400 835 411 821 q 367 849 389 849 q 332 837 347 849 q 307 807 317 825 l 250 843 q 310 913 274 890 q 388 935 347 935 q 472 899 446 935 q 499 821 499 864 q 466 737 499 771 q 388 675 433 703 l 351 721 z "},"ȇ":{"ha":740,"x_min":58,"x_max":694,"o":"m 388 -15 q 210 25 283 -15 q 97 137 136 65 q 58 299 58 208 q 103 458 58 386 q 222 572 147 529 q 390 614 297 614 q 590 544 511 614 q 694 346 668 474 l 243 193 q 390 118 293 118 q 459 131 426 118 q 522 164 492 143 l 593 49 q 492 2 546 19 q 388 -15 438 -15 m 211 307 q 213 283 211 296 l 521 393 q 471 462 504 432 q 378 492 438 492 q 258 440 304 492 q 211 307 211 389 m 390 917 q 537 853 482 917 q 610 667 592 789 l 506 667 q 468 772 494 731 q 390 813 442 813 q 313 772 338 813 q 278 667 288 731 l 172 667 q 390 917 208 917 z "},"ē":{"ha":740,"x_min":58,"x_max":694,"o":"m 388 -15 q 210 25 283 -15 q 97 137 136 65 q 58 299 58 208 q 103 458 58 386 q 222 572 147 529 q 390 614 297 614 q 590 544 511 614 q 694 346 668 474 l 243 193 q 390 118 293 118 q 459 131 426 118 q 522 164 492 143 l 593 49 q 492 2 546 19 q 388 -15 438 -15 m 211 307 q 213 283 211 296 l 521 393 q 471 462 504 432 q 378 492 438 492 q 258 440 304 492 q 211 307 211 389 z "},"ę":{"ha":744,"x_min":63,"x_max":699,"o":"m 453 -308 q 317 -263 368 -308 q 265 -143 265 -218 q 283 -72 265 -107 q 333 -11 300 -37 q 134 90 206 6 q 63 299 63 175 q 107 458 63 386 q 227 572 151 529 q 394 614 303 614 q 594 544 515 614 q 699 346 672 474 l 247 193 q 394 118 297 118 q 464 131 431 118 q 526 164 497 143 l 597 49 q 503 1 550 21 q 426 -44 457 -18 q 394 -118 394 -71 q 417 -176 394 -156 q 467 -197 440 -197 q 560 -136 518 -197 l 617 -218 q 542 -283 589 -257 q 453 -308 496 -308 m 215 307 q 217 282 215 294 l 525 392 q 475 462 508 432 q 383 492 442 492 q 262 440 308 492 q 215 307 215 389 z "},"ẽ":{"ha":740,"x_min":58,"x_max":694,"o":"m 388 -15 q 210 25 283 -15 q 97 137 136 65 q 58 299 58 208 q 103 458 58 386 q 222 572 147 529 q 390 614 297 614 q 590 544 511 614 q 694 346 668 474 l 243 193 q 390 118 293 118 q 459 131 426 118 q 522 164 492 143 l 593 49 q 492 2 546 19 q 388 -15 438 -15 m 211 307 q 213 283 211 296 l 521 393 q 471 462 504 432 q 378 492 438 492 q 258 440 304 492 q 211 307 211 389 m 493 665 q 417 685 447 665 q 363 726 388 706 q 331 753 347 742 q 296 765 315 765 q 256 736 269 765 q 244 665 243 707 l 164 665 q 175 765 160 719 q 224 838 190 811 q 304 865 257 865 q 366 846 339 865 q 417 806 393 826 q 453 774 436 788 q 490 760 471 760 q 526 790 517 760 q 535 864 536 821 l 615 864 q 589 720 626 775 q 493 665 551 665 z "},"ə":{"ha":740,"x_min":46,"x_max":682,"o":"m 354 603 q 531 563 457 603 q 643 451 604 522 q 682 289 682 381 q 638 130 682 201 q 518 16 593 58 q 350 -26 443 -26 q 151 44 231 -26 q 46 242 72 114 l 497 394 q 350 469 449 469 q 281 457 314 469 q 218 424 249 444 l 149 539 q 249 585 194 568 q 354 603 303 603 m 529 281 q 528 304 529 293 l 221 194 q 269 126 236 156 q 363 97 303 97 q 483 148 436 97 q 529 281 529 199 z "},"f":{"ha":558,"x_min":58,"x_max":544,"o":"m 158 0 l 158 451 l 58 451 l 58 589 l 158 589 l 158 819 q 220 1012 158 942 q 400 1082 282 1082 q 473 1072 433 1082 q 544 1042 513 1063 l 479 929 q 449 949 465 943 q 417 954 432 954 q 342 922 369 954 q 314 815 314 890 l 314 589 l 497 589 l 497 451 l 314 451 l 314 0 l 158 0 z "},"g":{"ha":850,"x_min":58,"x_max":743,"o":"m 400 -293 q 276 -276 328 -293 q 185 -233 225 -260 q 111 -176 146 -207 l 203 -69 q 288 -132 243 -107 q 397 -157 333 -157 q 535 -115 483 -157 q 588 0 586 -74 l 588 99 q 500 17 560 50 q 356 -15 440 -15 q 207 26 275 -15 q 99 138 139 67 q 58 297 58 208 q 101 460 58 389 q 214 573 144 532 q 363 614 283 614 q 501 587 440 614 q 589 519 561 560 l 600 588 l 743 588 l 743 -3 q 699 -151 743 -85 q 578 -255 656 -217 q 400 -293 500 -293 m 215 301 q 240 206 215 249 q 306 138 264 163 q 401 113 349 113 q 519 147 471 113 q 588 236 567 181 l 588 364 q 519 453 569 419 q 401 486 468 486 q 269 435 322 486 q 215 301 215 383 z "},"ğ":{"ha":850,"x_min":58,"x_max":743,"o":"m 400 -293 q 276 -276 328 -293 q 185 -233 225 -260 q 111 -176 146 -207 l 203 -69 q 288 -132 243 -107 q 397 -157 333 -157 q 535 -115 483 -157 q 588 0 586 -74 l 588 99 q 500 17 560 50 q 356 -15 440 -15 q 207 26 275 -15 q 99 138 139 67 q 58 297 58 208 q 101 460 58 389 q 214 573 144 532 q 363 614 283 614 q 501 587 440 614 q 589 519 561 560 l 600 588 l 743 588 l 743 -3 q 699 -151 743 -85 q 578 -255 656 -217 q 400 -293 500 -293 m 215 301 q 240 206 215 249 q 306 138 264 163 q 401 113 349 113 q 519 147 471 113 q 588 236 567 181 l 588 364 q 519 453 569 419 q 401 486 468 486 q 269 435 322 486 q 215 301 215 383 z "},"ǧ":{"ha":850,"x_min":58,"x_max":743,"o":"m 400 -293 q 276 -276 328 -293 q 185 -233 225 -260 q 111 -176 146 -207 l 203 -69 q 288 -132 243 -107 q 397 -157 333 -157 q 535 -115 483 -157 q 588 0 586 -74 l 588 99 q 500 17 560 50 q 356 -15 440 -15 q 207 26 275 -15 q 99 138 139 67 q 58 297 58 208 q 101 460 58 389 q 214 573 144 532 q 363 614 283 614 q 501 587 440 614 q 589 519 561 560 l 600 588 l 743 588 l 743 -3 q 699 -151 743 -85 q 578 -255 656 -217 q 400 -293 500 -293 m 215 301 q 240 206 215 249 q 306 138 264 163 q 401 113 349 113 q 519 147 471 113 q 588 236 567 181 l 588 364 q 519 453 569 419 q 401 486 468 486 q 269 435 322 486 q 215 301 215 383 z "},"ĝ":{"ha":850,"x_min":58,"x_max":743,"o":"m 400 -293 q 276 -276 328 -293 q 185 -233 225 -260 q 111 -176 146 -207 l 203 -69 q 288 -132 243 -107 q 397 -157 333 -157 q 535 -115 483 -157 q 588 0 586 -74 l 588 99 q 500 17 560 50 q 356 -15 440 -15 q 207 26 275 -15 q 99 138 139 67 q 58 297 58 208 q 101 460 58 389 q 214 573 144 532 q 363 614 283 614 q 501 587 440 614 q 589 519 561 560 l 600 588 l 743 588 l 743 -3 q 699 -151 743 -85 q 578 -255 656 -217 q 400 -293 500 -293 m 215 301 q 240 206 215 249 q 306 138 264 163 q 401 113 349 113 q 519 147 471 113 q 588 236 567 181 l 588 364 q 519 453 569 419 q 401 486 468 486 q 269 435 322 486 q 215 301 215 383 z "},"ģ":{"ha":806,"x_min":58,"x_max":743,"o":"m 317 704 q 378 850 349 778 q 439 994 408 922 l 564 994 q 510 850 536 922 q 456 704 483 778 l 317 704 m 400 -293 q 276 -276 328 -293 q 185 -233 225 -260 q 111 -176 146 -207 l 203 -69 q 288 -132 243 -107 q 397 -157 333 -157 q 535 -115 483 -157 q 588 0 586 -74 l 588 99 q 500 17 560 50 q 356 -15 440 -15 q 207 26 275 -15 q 99 138 139 67 q 58 297 58 208 q 101 460 58 389 q 214 573 144 532 q 363 614 283 614 q 501 587 440 614 q 589 519 561 560 l 600 588 l 743 588 l 743 -3 q 699 -151 743 -85 q 578 -255 656 -217 q 400 -293 500 -293 m 215 301 q 240 206 215 249 q 306 138 264 163 q 401 113 349 113 q 519 147 471 113 q 588 236 567 181 l 588 364 q 519 453 569 419 q 401 486 468 486 q 269 435 322 486 q 215 301 215 383 z "},"ġ":{"ha":850,"x_min":58,"x_max":743,"o":"m 400 -293 q 276 -276 328 -293 q 185 -233 225 -260 q 111 -176 146 -207 l 203 -69 q 288 -132 243 -107 q 397 -157 333 -157 q 535 -115 483 -157 q 588 0 586 -74 l 588 99 q 500 17 560 50 q 356 -15 440 -15 q 207 26 275 -15 q 99 138 139 67 q 58 297 58 208 q 101 460 58 389 q 214 573 144 532 q 363 614 283 614 q 501 587 440 614 q 589 519 561 560 l 600 588 l 743 588 l 743 -3 q 699 -151 743 -85 q 578 -255 656 -217 q 400 -293 500 -293 m 215 301 q 240 206 215 249 q 306 138 264 163 q 401 113 349 113 q 519 147 471 113 q 588 236 567 181 l 588 364 q 519 453 569 419 q 401 486 468 486 q 269 435 322 486 q 215 301 215 383 z "},"h":{"ha":790,"x_min":107,"x_max":683,"o":"m 107 0 l 107 1083 l 260 1083 l 260 486 q 349 577 290 542 q 490 613 408 613 q 627 563 572 613 q 683 436 682 514 l 683 0 l 528 0 l 528 381 q 502 452 525 425 q 428 481 479 479 q 309 418 356 481 q 263 261 263 356 l 263 0 l 107 0 z "},"ħ":{"ha":790,"x_min":-8,"x_max":683,"o":"m 107 0 l 107 1083 l 260 1083 l 260 486 q 349 577 290 542 q 490 613 408 613 q 627 563 572 613 q 683 436 682 514 l 683 0 l 528 0 l 528 381 q 502 452 525 425 q 428 481 479 479 q 309 418 356 481 q 263 261 263 356 l 263 0 l 107 0 m -8 917 l 399 917 l 399 772 l -8 772 l -8 917 z "},"ĥ":{"ha":790,"x_min":-69,"x_max":683,"o":"m 107 0 l 107 1083 l 260 1083 l 260 486 q 349 577 290 542 q 490 613 408 613 q 627 563 572 613 q 683 436 682 514 l 683 0 l 528 0 l 528 381 q 502 452 525 425 q 428 481 479 479 q 309 418 356 481 q 263 261 263 356 l 263 0 l 107 0 z "},"i":{"ha":369,"x_min":100,"x_max":276,"o":"m 107 588 l 263 588 l 263 0 l 107 0 l 107 588 z "},"ı":{"ha":369,"x_min":107,"x_max":263,"o":"m 107 588 l 263 588 l 263 0 l 107 0 l 107 588 z "},"í":{"ha":369,"x_min":79,"x_max":364,"o":"m 107 588 l 263 588 l 263 0 l 107 0 l 107 588 z "},"ĭ":{"ha":369,"x_min":-29,"x_max":407,"o":"m 107 588 l 263 588 l 263 0 l 107 0 l 107 588 z "},"î":{"ha":369,"x_min":-57,"x_max":429,"o":"m 107 588 l 263 588 l 263 0 l 107 0 l 107 588 z "},"ȉ":{"ha":369,"x_min":-126,"x_max":354,"o":"m 107 588 l 263 588 l 263 0 l 107 0 l 107 588 z "},"ï":{"ha":369,"x_min":-32,"x_max":401,"o":"m 107 588 l 263 588 l 263 0 l 107 0 l 107 588 z "},"ị":{"ha":369,"x_min":100,"x_max":276,"o":"m 107 588 l 263 588 l 263 0 l 107 0 l 107 588 m 110 -147 q 133 -97 110 -117 q 185 -78 157 -78 q 235 -97 213 -78 q 258 -147 258 -117 q 235 -197 258 -178 q 185 -217 213 -217 q 133 -197 157 -217 q 110 -147 110 -178 z "},"ì":{"ha":369,"x_min":-32,"x_max":263,"o":"m 107 588 l 263 588 l 263 0 l 107 0 l 107 588 z "},"ỉ":{"ha":369,"x_min":51,"x_max":301,"o":"m 107 588 l 263 588 l 263 0 l 107 0 l 107 588 m 154 699 q 197 735 181 718 q 214 778 214 753 q 203 813 214 799 q 169 826 192 826 q 135 815 150 826 q 110 785 119 803 l 53 821 q 113 890 76 868 q 190 913 150 913 q 275 877 249 913 q 301 799 301 842 q 269 715 301 749 q 190 653 236 681 l 154 699 z "},"ȋ":{"ha":369,"x_min":-25,"x_max":413,"o":"m 107 588 l 263 588 l 263 0 l 107 0 l 107 588 m 193 893 q 340 829 285 893 q 413 643 394 765 l 308 643 q 271 748 297 707 q 193 789 244 789 q 115 748 140 789 q 81 643 90 707 l -25 643 q 193 893 11 893 z "},"ĳ":{"ha":732,"x_min":100,"x_max":631,"o":"m 107 588 l 263 588 l 263 0 l 107 0 l 107 588 z "},"ī":{"ha":369,"x_min":14,"x_max":361,"o":"m 107 588 l 263 588 l 263 0 l 107 0 l 107 588 z "},"į":{"ha":376,"x_min":-4,"x_max":343,"o":"m 97 793 q 126 852 97 829 q 188 875 154 875 q 247 852 219 875 q 274 793 274 829 q 247 733 274 756 q 188 711 219 711 q 126 733 154 711 q 97 793 97 756 m 175 -308 q 48 -264 100 -308 q -4 -146 -4 -219 q 26 -58 -4 -100 q 107 10 56 -15 l 107 588 l 263 588 l 263 1 l 265 0 q 163 -59 200 -29 q 125 -133 125 -89 q 144 -183 125 -169 q 189 -197 164 -197 q 286 -131 242 -197 l 343 -211 q 267 -281 315 -253 q 175 -308 219 -308 z "},"ĩ":{"ha":369,"x_min":-39,"x_max":428,"o":"m 107 588 l 263 588 l 263 0 l 107 0 l 107 588 m 294 642 q 219 662 249 642 q 164 703 189 682 q 133 730 149 718 q 97 742 117 742 q 58 713 71 742 q 46 642 44 683 l -35 642 q -24 742 -39 696 q 25 815 -8 788 q 106 842 58 842 q 167 822 140 842 q 218 782 194 803 q 255 750 238 764 q 292 736 272 736 q 328 767 318 736 q 336 840 338 797 l 417 840 q 390 697 428 751 q 294 642 353 642 z "},"j":{"ha":381,"x_min":38,"x_max":289,"o":"m 128 -283 l 38 -186 q 99 -107 76 -154 q 122 6 122 -60 l 122 588 l 278 588 l 278 -1 q 243 -173 278 -104 q 128 -283 208 -242 z "},"ȷ":{"ha":381,"x_min":38,"x_max":278,"o":"m 128 -283 l 38 -186 q 99 -107 76 -154 q 122 6 122 -60 l 122 588 l 278 588 l 278 -1 q 243 -173 278 -104 q 128 -283 208 -242 z "},"ĵ":{"ha":381,"x_min":-44,"x_max":442,"o":"m 128 -283 l 38 -186 q 99 -107 76 -154 q 122 6 122 -60 l 122 588 l 278 588 l 278 -1 q 243 -173 278 -104 q 128 -283 208 -242 z "},"k":{"ha":719,"x_min":107,"x_max":676,"o":"m 107 0 l 107 1083 l 263 1083 l 263 375 l 557 601 l 651 518 l 438 351 l 676 0 l 496 0 l 329 267 l 263 214 l 263 0 l 107 0 z "},"ķ":{"ha":719,"x_min":107,"x_max":676,"o":"m 107 0 l 107 1083 l 263 1083 l 263 375 l 557 601 l 651 518 l 438 351 l 676 0 l 496 0 l 329 267 l 263 214 l 263 0 l 107 0 m 318 -287 l 239 -233 q 285 -151 271 -204 q 290 -46 299 -97 l 426 -47 q 422 -132 433 -86 q 385 -219 411 -178 q 318 -287 358 -261 z "},"ĸ":{"ha":735,"x_min":107,"x_max":678,"o":"m 263 0 l 107 0 l 107 588 l 263 588 l 263 344 l 490 588 l 678 588 l 414 328 l 676 0 l 496 0 l 315 232 l 263 181 l 263 0 z "},"l":{"ha":369,"x_min":107,"x_max":263,"o":"m 107 1083 l 263 1083 l 263 0 l 107 0 l 107 1083 z "},"ĺ":{"ha":369,"x_min":107,"x_max":419,"o":"m 107 1083 l 263 1083 l 263 0 l 107 0 l 107 1083 z "},"ľ":{"ha":536,"x_min":107,"x_max":540,"o":"m 107 1083 l 263 1083 l 263 0 l 107 0 l 107 1083 m 533 1068 q 529 985 542 1029 q 492 903 517 942 q 435 846 467 865 l 356 882 q 403 960 385 910 q 411 1058 421 1010 l 533 1068 z "},"ļ":{"ha":369,"x_min":65,"x_max":263,"o":"m 107 1083 l 263 1083 l 263 0 l 107 0 l 107 1083 m 144 -287 l 65 -233 q 111 -151 97 -204 q 117 -46 125 -97 l 253 -47 q 249 -132 260 -86 q 211 -219 238 -178 q 144 -287 185 -261 z "},"ŀ":{"ha":511,"x_min":107,"x_max":525,"o":"m 107 1083 l 263 1083 l 263 0 l 107 0 l 107 1083 z "},"ǉ":{"ha":750,"x_min":107,"x_max":660,"o":"m 107 1083 l 263 1083 l 263 0 l 107 0 l 107 1083 m 497 -283 l 407 -186 q 469 -107 446 -154 q 492 6 492 -60 l 492 588 l 647 588 l 647 -1 q 613 -173 647 -104 q 497 -283 578 -242 z "},"ł":{"ha":397,"x_min":25,"x_max":379,"o":"m 379 554 l 379 419 l 274 392 l 274 0 l 118 0 l 118 353 l 25 329 l 25 464 l 118 488 l 118 1083 l 274 1083 l 274 528 l 379 554 z "},"m":{"ha":1167,"x_min":107,"x_max":1060,"o":"m 247 588 l 258 483 q 349 579 292 544 q 481 614 406 614 q 601 582 553 614 q 661 493 650 550 q 753 581 699 549 q 869 614 808 614 q 1008 565 957 614 q 1060 438 1058 515 l 1060 0 l 906 0 l 906 378 q 886 448 903 419 q 825 479 869 476 q 739 448 775 479 q 683 367 703 417 q 663 264 663 318 l 663 0 l 506 0 l 506 378 q 486 448 504 419 q 422 479 468 476 q 338 448 374 479 q 282 367 301 417 q 263 264 263 318 l 263 0 l 107 0 l 107 588 l 247 588 z "},"n":{"ha":790,"x_min":107,"x_max":683,"o":"m 247 588 l 258 482 q 349 577 289 542 q 490 613 408 613 q 627 563 572 613 q 683 436 682 514 l 683 0 l 528 0 l 528 381 q 502 452 525 425 q 428 481 479 479 q 309 419 356 481 q 263 261 263 357 l 263 0 l 107 0 l 107 588 l 247 588 z "},"ń":{"ha":790,"x_min":107,"x_max":683,"o":"m 247 588 l 258 482 q 349 577 289 542 q 490 613 408 613 q 627 563 572 613 q 683 436 682 514 l 683 0 l 528 0 l 528 381 q 502 452 525 425 q 428 481 479 479 q 309 419 356 481 q 263 261 263 357 l 263 0 l 107 0 l 107 588 l 247 588 z "},"ŉ":{"ha":817,"x_min":-76,"x_max":710,"o":"m 3 576 l -76 631 q -31 713 -44 660 q -25 818 -17 767 l 111 817 q 107 732 118 778 q 69 644 96 686 q 3 576 43 603 m 272 588 l 283 482 q 374 577 314 542 q 515 613 433 613 q 652 563 597 613 q 708 436 707 514 l 708 0 l 553 0 l 553 381 q 527 452 550 425 q 453 481 504 479 q 334 419 381 481 q 288 261 288 357 l 288 0 l 132 0 l 132 588 l 272 588 z "},"ň":{"ha":790,"x_min":107,"x_max":683,"o":"m 247 588 l 258 482 q 349 577 289 542 q 490 613 408 613 q 627 563 572 613 q 683 436 682 514 l 683 0 l 528 0 l 528 381 q 502 452 525 425 q 428 481 479 479 q 309 419 356 481 q 263 261 263 357 l 263 0 l 107 0 l 107 588 l 247 588 z "},"ņ":{"ha":790,"x_min":107,"x_max":683,"o":"m 247 588 l 258 482 q 349 577 289 542 q 490 613 408 613 q 627 563 572 613 q 683 436 682 514 l 683 0 l 528 0 l 528 381 q 502 452 525 425 q 428 481 479 479 q 309 419 356 481 q 263 261 263 357 l 263 0 l 107 0 l 107 588 l 247 588 m 354 -287 l 275 -233 q 321 -151 307 -204 q 326 -46 335 -97 l 463 -47 q 458 -132 469 -86 q 421 -219 447 -178 q 354 -287 394 -261 z "},"ŋ":{"ha":790,"x_min":107,"x_max":683,"o":"m 683 6 q 647 -165 683 -90 q 535 -283 611 -239 l 444 -186 q 506 -107 483 -154 q 528 6 528 -60 l 528 381 q 502 452 525 425 q 428 481 479 479 q 309 419 356 481 q 263 261 263 357 l 263 0 l 107 0 l 107 588 l 247 588 l 260 478 q 348 576 289 539 q 490 613 407 613 q 627 563 572 613 q 683 436 682 514 l 683 6 z "},"ɲ":{"ha":790,"x_min":26,"x_max":683,"o":"m 117 -283 l 26 -186 q 88 -108 67 -154 q 110 0 110 -61 l 107 0 l 107 588 l 247 588 l 258 482 q 349 577 289 542 q 490 613 408 613 q 627 563 572 613 q 683 436 682 514 l 683 0 l 528 0 l 528 381 q 502 452 525 425 q 428 481 479 479 q 309 419 356 481 q 263 261 263 357 l 263 58 l 267 58 l 267 -1 q 226 -169 267 -100 q 117 -283 185 -239 z "},"ǌ":{"ha":1157,"x_min":107,"x_max":1056,"o":"m 247 588 l 258 482 q 349 577 289 542 q 490 613 408 613 q 627 563 572 613 q 683 436 682 514 l 683 0 l 528 0 l 528 381 q 502 452 525 425 q 428 481 479 479 q 309 419 356 481 q 263 261 263 357 l 263 0 l 107 0 l 107 588 l 247 588 m 893 -283 l 803 -186 q 865 -107 842 -154 q 888 6 888 -60 l 888 588 l 1043 588 l 1043 -1 q 1008 -173 1043 -104 q 893 -283 974 -242 z "},"ñ":{"ha":790,"x_min":107,"x_max":683,"o":"m 247 588 l 258 482 q 349 577 289 542 q 490 613 408 613 q 627 563 572 613 q 683 436 682 514 l 683 0 l 528 0 l 528 381 q 502 452 525 425 q 428 481 479 479 q 309 419 356 481 q 263 261 263 357 l 263 0 l 107 0 l 107 588 l 247 588 m 503 653 q 427 673 457 653 q 372 714 397 693 q 341 741 357 729 q 306 753 325 753 q 266 724 279 753 q 254 653 253 694 l 174 653 q 185 753 169 707 q 233 826 200 799 q 314 853 267 853 q 376 833 349 853 q 426 793 403 814 q 463 761 446 775 q 500 747 481 747 q 536 778 526 747 q 544 851 546 808 l 625 851 q 599 708 636 763 q 503 653 561 653 z "},"o":{"ha":771,"x_min":58,"x_max":714,"o":"m 58 300 q 101 460 58 389 q 217 572 143 531 q 389 614 292 614 q 560 572 488 614 q 674 460 633 531 q 714 300 714 389 q 674 140 714 211 q 560 26 633 68 q 388 -15 486 -15 q 217 23 292 -15 q 101 132 143 61 q 58 300 58 203 m 215 299 q 238 203 215 246 q 298 137 260 161 q 385 113 336 113 q 508 166 461 113 q 556 299 556 219 q 508 432 556 378 q 385 486 461 486 q 298 460 336 486 q 238 392 260 435 q 215 299 215 350 z "},"ó":{"ha":771,"x_min":58,"x_max":714,"o":"m 58 300 q 101 460 58 389 q 217 572 143 531 q 389 614 292 614 q 560 572 488 614 q 674 460 633 531 q 714 300 714 389 q 674 140 714 211 q 560 26 633 68 q 388 -15 486 -15 q 217 23 292 -15 q 101 132 143 61 q 58 300 58 203 m 215 299 q 238 203 215 246 q 298 137 260 161 q 385 113 336 113 q 508 166 461 113 q 556 299 556 219 q 508 432 556 378 q 385 486 461 486 q 298 460 336 486 q 238 392 260 435 q 215 299 215 350 z "},"ŏ":{"ha":771,"x_min":58,"x_max":714,"o":"m 58 300 q 101 460 58 389 q 217 572 143 531 q 389 614 292 614 q 560 572 488 614 q 674 460 633 531 q 714 300 714 389 q 674 140 714 211 q 560 26 633 68 q 388 -15 486 -15 q 217 23 292 -15 q 101 132 143 61 q 58 300 58 203 m 215 299 q 238 203 215 246 q 298 137 260 161 q 385 113 336 113 q 508 166 461 113 q 556 299 556 219 q 508 432 556 378 q 385 486 461 486 q 298 460 336 486 q 238 392 260 435 q 215 299 215 350 z "},"ô":{"ha":771,"x_min":58,"x_max":714,"o":"m 58 300 q 101 460 58 389 q 217 572 143 531 q 389 614 292 614 q 560 572 488 614 q 674 460 633 531 q 714 300 714 389 q 674 140 714 211 q 560 26 633 68 q 388 -15 486 -15 q 217 23 292 -15 q 101 132 143 61 q 58 300 58 203 m 215 299 q 238 203 215 246 q 298 137 260 161 q 385 113 336 113 q 508 166 461 113 q 556 299 556 219 q 508 432 556 378 q 385 486 461 486 q 298 460 336 486 q 238 392 260 435 q 215 299 215 350 z "},"ố":{"ha":771,"x_min":58,"x_max":794,"o":"m 58 300 q 101 460 58 389 q 217 572 143 531 q 389 614 292 614 q 560 572 488 614 q 674 460 633 531 q 714 300 714 389 q 674 140 714 211 q 560 26 633 68 q 388 -15 486 -15 q 217 23 292 -15 q 101 132 143 61 q 58 300 58 203 m 215 299 q 238 203 215 246 q 298 137 260 161 q 385 113 336 113 q 508 166 461 113 q 556 299 556 219 q 508 432 556 378 q 385 486 461 486 q 298 460 336 486 q 238 392 260 435 q 215 299 215 350 z "},"ộ":{"ha":771,"x_min":58,"x_max":714,"o":"m 58 300 q 101 460 58 389 q 217 572 143 531 q 389 614 292 614 q 560 572 488 614 q 674 460 633 531 q 714 300 714 389 q 674 140 714 211 q 560 26 633 68 q 388 -15 486 -15 q 217 23 292 -15 q 101 132 143 61 q 58 300 58 203 m 215 299 q 238 203 215 246 q 298 137 260 161 q 385 113 336 113 q 508 166 461 113 q 556 299 556 219 q 508 432 556 378 q 385 486 461 486 q 298 460 336 486 q 238 392 260 435 q 215 299 215 350 m 311 -147 q 335 -97 311 -117 q 386 -78 358 -78 q 437 -97 414 -78 q 460 -147 460 -117 q 437 -197 460 -178 q 386 -217 414 -217 q 335 -197 358 -217 q 311 -147 311 -178 z "},"ồ":{"ha":771,"x_min":-65,"x_max":714,"o":"m 58 300 q 101 460 58 389 q 217 572 143 531 q 389 614 292 614 q 560 572 488 614 q 674 460 633 531 q 714 300 714 389 q 674 140 714 211 q 560 26 633 68 q 388 -15 486 -15 q 217 23 292 -15 q 101 132 143 61 q 58 300 58 203 m 215 299 q 238 203 215 246 q 298 137 260 161 q 385 113 336 113 q 508 166 461 113 q 556 299 556 219 q 508 432 556 378 q 385 486 461 486 q 298 460 336 486 q 238 392 260 435 q 215 299 215 350 z "},"ổ":{"ha":771,"x_min":58,"x_max":765,"o":"m 58 300 q 101 460 58 389 q 217 572 143 531 q 389 614 292 614 q 560 572 488 614 q 674 460 633 531 q 714 300 714 389 q 674 140 714 211 q 560 26 633 68 q 388 -15 486 -15 q 217 23 292 -15 q 101 132 143 61 q 58 300 58 203 m 215 299 q 238 203 215 246 q 298 137 260 161 q 385 113 336 113 q 508 166 461 113 q 556 299 556 219 q 508 432 556 378 q 385 486 461 486 q 298 460 336 486 q 238 392 260 435 q 215 299 215 350 z "},"ỗ":{"ha":771,"x_min":58,"x_max":714,"o":"m 58 300 q 101 460 58 389 q 217 572 143 531 q 389 614 292 614 q 560 572 488 614 q 674 460 633 531 q 714 300 714 389 q 674 140 714 211 q 560 26 633 68 q 388 -15 486 -15 q 217 23 292 -15 q 101 132 143 61 q 58 300 58 203 m 215 299 q 238 203 215 246 q 298 137 260 161 q 385 113 336 113 q 508 166 461 113 q 556 299 556 219 q 508 432 556 378 q 385 486 461 486 q 298 460 336 486 q 238 392 260 435 q 215 299 215 350 z "},"ȍ":{"ha":771,"x_min":58,"x_max":714,"o":"m 58 300 q 101 460 58 389 q 217 572 143 531 q 389 614 292 614 q 560 572 488 614 q 674 460 633 531 q 714 300 714 389 q 674 140 714 211 q 560 26 633 68 q 388 -15 486 -15 q 217 23 292 -15 q 101 132 143 61 q 58 300 58 203 m 215 299 q 238 203 215 246 q 298 137 260 161 q 385 113 336 113 q 508 166 461 113 q 556 299 556 219 q 508 432 556 378 q 385 486 461 486 q 298 460 336 486 q 238 392 260 435 q 215 299 215 350 z "},"ö":{"ha":771,"x_min":58,"x_max":714,"o":"m 58 300 q 101 460 58 389 q 217 572 143 531 q 389 614 292 614 q 560 572 488 614 q 674 460 633 531 q 714 300 714 389 q 674 140 714 211 q 560 26 633 68 q 388 -15 486 -15 q 217 23 292 -15 q 101 132 143 61 q 58 300 58 203 m 215 299 q 238 203 215 246 q 298 137 260 161 q 385 113 336 113 q 508 166 461 113 q 556 299 556 219 q 508 432 556 378 q 385 486 461 486 q 298 460 336 486 q 238 392 260 435 q 215 299 215 350 z "},"ȫ":{"ha":771,"x_min":58,"x_max":714,"o":"m 58 300 q 101 460 58 389 q 217 572 143 531 q 389 614 292 614 q 560 572 488 614 q 674 460 633 531 q 714 300 714 389 q 674 140 714 211 q 560 26 633 68 q 388 -15 486 -15 q 217 23 292 -15 q 101 132 143 61 q 58 300 58 203 m 215 299 q 238 203 215 246 q 298 137 260 161 q 385 113 336 113 q 508 166 461 113 q 556 299 556 219 q 508 432 556 378 q 385 486 461 486 q 298 460 336 486 q 238 392 260 435 q 215 299 215 350 z "},"ȱ":{"ha":771,"x_min":58,"x_max":714,"o":"m 58 300 q 101 460 58 389 q 217 572 143 531 q 389 614 292 614 q 560 572 488 614 q 674 460 633 531 q 714 300 714 389 q 674 140 714 211 q 560 26 633 68 q 388 -15 486 -15 q 217 23 292 -15 q 101 132 143 61 q 58 300 58 203 m 215 299 q 238 203 215 246 q 298 137 260 161 q 385 113 336 113 q 508 166 461 113 q 556 299 556 219 q 508 432 556 378 q 385 486 461 486 q 298 460 336 486 q 238 392 260 435 q 215 299 215 350 z "},"ọ":{"ha":771,"x_min":58,"x_max":714,"o":"m 58 300 q 101 460 58 389 q 217 572 143 531 q 389 614 292 614 q 560 572 488 614 q 674 460 633 531 q 714 300 714 389 q 674 140 714 211 q 560 26 633 68 q 388 -15 486 -15 q 217 23 292 -15 q 101 132 143 61 q 58 300 58 203 m 215 299 q 238 203 215 246 q 298 137 260 161 q 385 113 336 113 q 508 166 461 113 q 556 299 556 219 q 508 432 556 378 q 385 486 461 486 q 298 460 336 486 q 238 392 260 435 q 215 299 215 350 m 311 -147 q 335 -97 311 -117 q 386 -78 358 -78 q 437 -97 414 -78 q 460 -147 460 -117 q 437 -197 460 -178 q 386 -217 414 -217 q 335 -197 358 -217 q 311 -147 311 -178 z "},"ò":{"ha":771,"x_min":58,"x_max":714,"o":"m 58 300 q 101 460 58 389 q 217 572 143 531 q 389 614 292 614 q 560 572 488 614 q 674 460 633 531 q 714 300 714 389 q 674 140 714 211 q 560 26 633 68 q 388 -15 486 -15 q 217 23 292 -15 q 101 132 143 61 q 58 300 58 203 m 215 299 q 238 203 215 246 q 298 137 260 161 q 385 113 336 113 q 508 166 461 113 q 556 299 556 219 q 508 432 556 378 q 385 486 461 486 q 298 460 336 486 q 238 392 260 435 q 215 299 215 350 z "},"ỏ":{"ha":771,"x_min":58,"x_max":714,"o":"m 58 300 q 101 460 58 389 q 217 572 143 531 q 389 614 292 614 q 560 572 488 614 q 674 460 633 531 q 714 300 714 389 q 674 140 714 211 q 560 26 633 68 q 388 -15 486 -15 q 217 23 292 -15 q 101 132 143 61 q 58 300 58 203 m 215 299 q 238 203 215 246 q 298 137 260 161 q 385 113 336 113 q 508 166 461 113 q 556 299 556 219 q 508 432 556 378 q 385 486 461 486 q 298 460 336 486 q 238 392 260 435 q 215 299 215 350 m 353 721 q 396 758 379 740 q 413 800 413 775 q 401 835 413 821 q 368 849 390 849 q 333 837 349 849 q 308 807 318 825 l 251 843 q 312 913 275 890 q 389 935 349 935 q 474 899 447 935 q 500 821 500 864 q 467 737 500 771 q 389 675 435 703 l 353 721 z "},"ơ":{"ha":771,"x_min":58,"x_max":740,"o":"m 58 300 q 101 460 58 389 q 217 572 143 531 q 389 614 292 614 q 560 572 488 614 q 674 460 633 531 q 714 300 714 389 q 674 140 714 211 q 560 26 633 68 q 388 -15 486 -15 q 217 23 292 -15 q 101 132 143 61 q 58 300 58 203 m 215 299 q 238 203 215 246 q 298 137 260 161 q 385 113 336 113 q 508 166 461 113 q 556 299 556 219 q 508 432 556 378 q 385 486 461 486 q 298 460 336 486 q 238 392 260 435 q 215 299 215 350 m 501 588 q 585 617 556 588 q 625 713 615 647 l 740 713 q 695 579 729 626 q 612 513 661 532 q 501 494 563 494 l 501 588 z "},"ớ":{"ha":771,"x_min":58,"x_max":740,"o":"m 58 300 q 101 460 58 389 q 217 572 143 531 q 389 614 292 614 q 560 572 488 614 q 674 460 633 531 q 714 300 714 389 q 674 140 714 211 q 560 26 633 68 q 388 -15 486 -15 q 217 23 292 -15 q 101 132 143 61 q 58 300 58 203 m 215 299 q 238 203 215 246 q 298 137 260 161 q 385 113 336 113 q 508 166 461 113 q 556 299 556 219 q 508 432 556 378 q 385 486 461 486 q 298 460 336 486 q 238 392 260 435 q 215 299 215 350 m 501 588 q 585 617 556 588 q 625 713 615 647 l 740 713 q 695 579 729 626 q 612 513 661 532 q 501 494 563 494 l 501 588 z "},"ợ":{"ha":771,"x_min":58,"x_max":740,"o":"m 58 300 q 101 460 58 389 q 217 572 143 531 q 389 614 292 614 q 560 572 488 614 q 674 460 633 531 q 714 300 714 389 q 674 140 714 211 q 560 26 633 68 q 388 -15 486 -15 q 217 23 292 -15 q 101 132 143 61 q 58 300 58 203 m 215 299 q 238 203 215 246 q 298 137 260 161 q 385 113 336 113 q 508 166 461 113 q 556 299 556 219 q 508 432 556 378 q 385 486 461 486 q 298 460 336 486 q 238 392 260 435 q 215 299 215 350 m 501 588 q 585 617 556 588 q 625 713 615 647 l 740 713 q 695 579 729 626 q 612 513 661 532 q 501 494 563 494 l 501 588 m 311 -147 q 335 -97 311 -117 q 386 -78 358 -78 q 437 -97 414 -78 q 460 -147 460 -117 q 437 -197 460 -178 q 386 -217 414 -217 q 335 -197 358 -217 q 311 -147 311 -178 z "},"ờ":{"ha":771,"x_min":58,"x_max":740,"o":"m 58 300 q 101 460 58 389 q 217 572 143 531 q 389 614 292 614 q 560 572 488 614 q 674 460 633 531 q 714 300 714 389 q 674 140 714 211 q 560 26 633 68 q 388 -15 486 -15 q 217 23 292 -15 q 101 132 143 61 q 58 300 58 203 m 215 299 q 238 203 215 246 q 298 137 260 161 q 385 113 336 113 q 508 166 461 113 q 556 299 556 219 q 508 432 556 378 q 385 486 461 486 q 298 460 336 486 q 238 392 260 435 q 215 299 215 350 m 501 588 q 585 617 556 588 q 625 713 615 647 l 740 713 q 695 579 729 626 q 612 513 661 532 q 501 494 563 494 l 501 588 z "},"ở":{"ha":771,"x_min":58,"x_max":740,"o":"m 58 300 q 101 460 58 389 q 217 572 143 531 q 389 614 292 614 q 560 572 488 614 q 674 460 633 531 q 714 300 714 389 q 674 140 714 211 q 560 26 633 68 q 388 -15 486 -15 q 217 23 292 -15 q 101 132 143 61 q 58 300 58 203 m 215 299 q 238 203 215 246 q 298 137 260 161 q 385 113 336 113 q 508 166 461 113 q 556 299 556 219 q 508 432 556 378 q 385 486 461 486 q 298 460 336 486 q 238 392 260 435 q 215 299 215 350 m 501 588 q 585 617 556 588 q 625 713 615 647 l 740 713 q 695 579 729 626 q 612 513 661 532 q 501 494 563 494 l 501 588 m 353 721 q 396 758 379 740 q 413 800 413 775 q 401 835 413 821 q 368 849 390 849 q 333 837 349 849 q 308 807 318 825 l 251 843 q 312 913 275 890 q 389 935 349 935 q 474 899 447 935 q 500 821 500 864 q 467 737 500 771 q 389 675 435 703 l 353 721 z "},"ỡ":{"ha":771,"x_min":58,"x_max":740,"o":"m 451 672 q 386 690 413 672 q 339 726 360 707 q 311 749 325 739 q 281 758 297 758 q 246 734 257 758 q 236 672 235 710 l 168 672 q 195 793 163 743 q 288 843 228 843 q 342 826 318 843 q 385 792 365 810 q 417 765 401 776 q 449 753 432 753 q 481 778 472 753 q 488 843 489 804 l 556 843 q 533 719 565 767 q 451 672 501 672 m 58 300 q 101 460 58 389 q 217 572 143 531 q 389 614 292 614 q 524 589 463 614 q 625 713 608 600 l 740 713 q 701 588 731 633 q 629 519 671 542 q 714 300 714 432 q 674 140 714 211 q 560 26 633 68 q 388 -15 486 -15 q 217 23 292 -15 q 101 132 143 61 q 58 300 58 203 m 215 299 q 238 203 215 246 q 298 137 260 161 q 385 113 336 113 q 508 166 461 113 q 556 299 556 219 q 508 432 556 378 q 385 486 461 486 q 298 460 336 486 q 238 392 260 435 q 215 299 215 350 z "},"ő":{"ha":771,"x_min":58,"x_max":714,"o":"m 58 300 q 101 460 58 389 q 217 572 143 531 q 389 614 292 614 q 560 572 488 614 q 674 460 633 531 q 714 300 714 389 q 674 140 714 211 q 560 26 633 68 q 388 -15 486 -15 q 217 23 292 -15 q 101 132 143 61 q 58 300 58 203 m 215 299 q 238 203 215 246 q 298 137 260 161 q 385 113 336 113 q 508 166 461 113 q 556 299 556 219 q 508 432 556 378 q 385 486 461 486 q 298 460 336 486 q 238 392 260 435 q 215 299 215 350 z "},"ȏ":{"ha":771,"x_min":58,"x_max":714,"o":"m 58 300 q 101 460 58 389 q 217 572 143 531 q 389 614 292 614 q 560 572 488 614 q 674 460 633 531 q 714 300 714 389 q 674 140 714 211 q 560 26 633 68 q 388 -15 486 -15 q 217 23 292 -15 q 101 132 143 61 q 58 300 58 203 m 215 299 q 238 203 215 246 q 298 137 260 161 q 385 113 336 113 q 508 166 461 113 q 556 299 556 219 q 508 432 556 378 q 385 486 461 486 q 298 460 336 486 q 238 392 260 435 q 215 299 215 350 m 392 915 q 538 851 483 915 q 611 665 593 788 l 507 665 q 469 770 496 729 q 392 811 443 811 q 314 770 339 811 q 279 665 289 729 l 174 665 q 392 915 210 915 z "},"ō":{"ha":771,"x_min":58,"x_max":714,"o":"m 58 300 q 101 460 58 389 q 217 572 143 531 q 389 614 292 614 q 560 572 488 614 q 674 460 633 531 q 714 300 714 389 q 674 140 714 211 q 560 26 633 68 q 388 -15 486 -15 q 217 23 292 -15 q 101 132 143 61 q 58 300 58 203 m 215 299 q 238 203 215 246 q 298 137 260 161 q 385 113 336 113 q 508 166 461 113 q 556 299 556 219 q 508 432 556 378 q 385 486 461 486 q 298 460 336 486 q 238 392 260 435 q 215 299 215 350 z "},"ǫ":{"ha":779,"x_min":63,"x_max":717,"o":"m 485 -308 q 367 -266 418 -308 q 315 -142 315 -224 q 376 -15 315 -69 q 214 28 285 -11 q 103 136 143 67 q 63 300 63 206 q 105 460 63 389 q 222 572 147 531 q 393 614 296 613 q 563 572 490 614 q 676 460 636 531 q 717 300 717 389 q 674 140 717 213 q 560 18 631 67 q 477 -49 510 -18 q 444 -129 444 -81 q 465 -180 444 -162 q 510 -197 485 -197 q 606 -131 563 -197 l 664 -211 q 587 -281 636 -253 q 485 -308 538 -308 m 389 113 q 512 166 464 113 q 560 299 560 219 q 512 432 560 378 q 389 486 464 486 q 301 460 340 486 q 241 392 263 435 q 219 299 219 350 q 242 203 219 246 q 302 137 264 161 q 389 113 340 113 z "},"ø":{"ha":738,"x_min":58,"x_max":714,"o":"m 58 300 q 101 460 58 389 q 217 572 143 531 q 389 614 292 614 q 550 578 479 614 l 604 639 l 683 574 l 632 515 q 714 300 714 429 q 674 140 714 211 q 560 26 633 68 q 388 -15 486 -15 q 207 29 285 -15 l 146 -40 l 71 29 l 128 94 q 76 185 94 133 q 58 300 58 238 m 215 299 q 232 214 215 253 l 457 471 q 385 486 424 486 q 298 460 336 486 q 238 392 260 435 q 215 299 215 350 m 556 299 q 531 400 556 356 l 300 136 q 385 113 339 113 q 508 166 461 113 q 556 299 556 219 z "},"ǿ":{"ha":738,"x_min":58,"x_max":714,"o":"m 58 300 q 101 460 58 389 q 217 572 143 531 q 389 614 292 614 q 550 578 479 614 l 604 639 l 683 574 l 632 515 q 714 300 714 429 q 674 140 714 211 q 560 26 633 68 q 388 -15 486 -15 q 207 29 285 -15 l 146 -40 l 71 29 l 128 94 q 76 185 94 133 q 58 300 58 238 m 215 299 q 232 214 215 253 l 457 471 q 385 486 424 486 q 298 460 336 486 q 238 392 260 435 q 215 299 215 350 m 556 299 q 531 400 556 356 l 300 136 q 385 113 339 113 q 508 166 461 113 q 556 299 556 219 z "},"õ":{"ha":771,"x_min":58,"x_max":714,"o":"m 58 300 q 101 460 58 389 q 217 572 143 531 q 389 614 292 614 q 560 572 488 614 q 674 460 633 531 q 714 300 714 389 q 674 140 714 211 q 560 26 633 68 q 388 -15 486 -15 q 217 23 292 -15 q 101 132 143 61 q 58 300 58 203 m 215 299 q 238 203 215 246 q 298 137 260 161 q 385 113 336 113 q 508 166 461 113 q 556 299 556 219 q 508 432 556 378 q 385 486 461 486 q 298 460 336 486 q 238 392 260 435 q 215 299 215 350 m 494 664 q 419 684 449 664 q 364 725 389 704 q 333 752 349 740 q 297 764 317 764 q 258 735 271 764 q 246 664 244 706 l 165 664 q 176 764 161 718 q 225 837 192 810 q 306 864 258 864 q 367 844 340 864 q 418 804 394 825 q 455 772 438 786 q 492 758 472 758 q 528 789 518 758 q 536 863 538 819 l 617 863 q 590 719 628 774 q 494 664 553 664 z "},"ȭ":{"ha":771,"x_min":58,"x_max":714,"o":"m 58 300 q 101 460 58 389 q 217 572 143 531 q 389 614 292 614 q 560 572 488 614 q 674 460 633 531 q 714 300 714 389 q 674 140 714 211 q 560 26 633 68 q 388 -15 486 -15 q 217 23 292 -15 q 101 132 143 61 q 58 300 58 203 m 215 299 q 238 203 215 246 q 298 137 260 161 q 385 113 336 113 q 508 166 461 113 q 556 299 556 219 q 508 432 556 378 q 385 486 461 486 q 298 460 336 486 q 238 392 260 435 q 215 299 215 350 m 494 664 q 419 684 449 664 q 364 725 389 704 q 333 752 349 740 q 297 764 317 764 q 258 735 271 764 q 246 664 244 706 l 165 664 q 176 764 161 718 q 225 837 192 810 q 306 864 258 864 q 367 844 340 864 q 418 804 394 825 q 455 772 438 786 q 492 758 472 758 q 528 789 518 758 q 536 863 538 819 l 617 863 q 590 719 628 774 q 494 664 553 664 z "},"œ":{"ha":1140,"x_min":58,"x_max":1094,"o":"m 593 54 q 498 3 554 22 q 385 -15 442 -15 q 214 22 288 -15 q 99 129 140 60 q 58 294 58 199 q 102 460 58 390 q 217 566 146 529 q 369 603 288 603 q 500 583 443 603 q 599 528 557 563 l 521 426 q 463 460 499 444 q 383 476 428 476 q 298 453 336 476 q 237 388 260 429 q 214 294 214 347 q 265 166 214 219 q 399 113 317 113 q 515 151 467 113 l 593 54 m 788 -15 q 610 25 683 -15 q 497 137 536 65 q 458 299 458 208 q 503 458 458 386 q 622 572 547 529 q 790 614 697 614 q 990 544 911 614 q 1094 346 1068 474 l 643 193 q 790 118 693 118 q 859 131 826 118 q 922 164 892 143 l 993 49 q 892 2 946 19 q 788 -15 838 -15 m 611 307 q 613 283 611 296 l 921 393 q 871 462 904 432 q 778 492 838 492 q 658 440 704 492 q 611 307 611 389 z "},"p":{"ha":840,"x_min":107,"x_max":783,"o":"m 464 -15 q 351 8 406 -15 q 263 75 296 32 l 263 -282 l 107 -282 l 107 599 l 242 599 l 256 511 q 358 585 299 556 q 493 614 418 614 q 642 575 576 614 q 745 465 707 536 q 783 296 783 393 q 742 129 783 199 q 628 22 700 60 q 464 -15 556 -15 m 433 108 q 528 132 485 108 q 599 198 572 156 q 625 293 625 240 q 601 392 625 349 q 535 458 576 435 q 444 482 494 482 q 328 448 375 482 q 263 356 282 414 l 263 238 q 322 144 275 181 q 433 108 369 108 z "},"þ":{"ha":835,"x_min":107,"x_max":783,"o":"m 464 -15 q 347 10 403 -15 q 263 79 290 36 l 263 -282 l 107 -282 l 107 1083 l 264 1083 l 264 517 q 363 587 304 560 q 494 614 422 614 q 642 575 576 614 q 745 465 707 536 q 783 296 783 393 q 742 129 783 199 q 628 22 700 60 q 464 -15 556 -15 m 433 108 q 528 133 485 108 q 599 199 572 157 q 625 293 625 240 q 600 390 625 347 q 534 458 575 433 q 444 482 493 482 q 328 448 375 482 q 264 356 282 414 l 264 236 q 323 144 276 179 q 433 108 369 108 z "},"q":{"ha":840,"x_min":58,"x_max":733,"o":"m 343 -15 q 201 22 265 -15 q 97 129 136 60 q 58 294 58 199 q 101 464 58 392 q 213 575 143 536 q 367 614 283 614 q 489 589 436 614 q 578 522 542 564 l 578 599 l 733 599 l 733 -282 l 579 -282 l 579 74 q 481 10 543 35 q 343 -15 419 -15 m 397 108 q 514 144 464 108 q 578 238 564 181 l 578 356 q 512 448 558 414 q 397 482 465 482 q 306 457 347 482 q 240 390 265 432 q 215 293 215 347 q 240 199 215 240 q 306 133 265 157 q 397 108 347 108 z "},"r":{"ha":542,"x_min":107,"x_max":489,"o":"m 247 588 l 258 451 q 326 538 283 501 q 415 594 369 575 q 489 614 460 614 l 482 458 q 366 435 415 464 q 290 356 317 406 q 263 253 263 307 l 263 0 l 107 0 l 107 588 l 247 588 z "},"ŕ":{"ha":542,"x_min":107,"x_max":489,"o":"m 247 588 l 258 451 q 326 538 283 501 q 415 594 369 575 q 489 614 460 614 l 482 458 q 366 435 415 464 q 290 356 317 406 q 263 253 263 307 l 263 0 l 107 0 l 107 588 l 247 588 z "},"ř":{"ha":542,"x_min":26,"x_max":513,"o":"m 247 588 l 258 451 q 326 538 283 501 q 415 594 369 575 q 489 614 460 614 l 482 458 q 366 435 415 464 q 290 356 317 406 q 263 253 263 307 l 263 0 l 107 0 l 107 588 l 247 588 z "},"ŗ":{"ha":542,"x_min":65,"x_max":489,"o":"m 247 588 l 258 451 q 326 538 283 501 q 415 594 369 575 q 489 614 460 614 l 482 458 q 366 435 415 464 q 290 356 317 406 q 263 253 263 307 l 263 0 l 107 0 l 107 588 l 247 588 m 146 -287 l 67 -233 q 113 -151 99 -204 q 118 -46 126 -97 l 254 -47 q 250 -132 261 -86 q 213 -219 239 -178 q 146 -287 186 -261 z "},"ȑ":{"ha":542,"x_min":-54,"x_max":489,"o":"m 247 588 l 258 451 q 326 538 283 501 q 415 594 369 575 q 489 614 460 614 l 482 458 q 366 435 415 464 q 290 356 317 406 q 263 253 263 307 l 263 0 l 107 0 l 107 588 l 247 588 z "},"ȓ":{"ha":542,"x_min":46,"x_max":489,"o":"m 247 588 l 258 451 q 326 538 283 501 q 415 594 369 575 q 489 614 460 614 l 482 458 q 366 435 415 464 q 290 356 317 406 q 263 253 263 307 l 263 0 l 107 0 l 107 588 l 247 588 m 264 893 q 410 829 356 893 q 483 643 465 765 l 379 643 q 342 748 368 707 q 264 789 315 789 q 186 748 211 789 q 151 643 161 707 l 46 643 q 264 893 82 893 z "},"s":{"ha":588,"x_min":54,"x_max":522,"o":"m 283 -12 q 156 11 217 -12 q 54 81 96 35 l 121 168 q 198 113 160 131 q 271 96 236 96 q 338 110 310 96 q 367 160 367 125 q 347 203 367 188 q 297 230 328 219 q 233 250 267 240 q 119 319 157 274 q 82 425 82 365 q 106 513 82 471 q 177 583 129 556 q 300 611 225 611 q 415 596 365 611 q 508 547 465 581 l 449 454 q 390 491 424 478 q 328 506 356 504 q 265 490 290 507 q 240 446 240 474 q 259 401 239 418 q 311 375 279 385 q 375 354 343 365 q 481 295 439 333 q 522 189 522 257 q 496 89 522 135 q 417 15 469 43 q 283 -12 364 -12 z "},"ś":{"ha":588,"x_min":54,"x_max":522,"o":"m 283 -12 q 156 11 217 -12 q 54 81 96 35 l 121 168 q 198 113 160 131 q 271 96 236 96 q 338 110 310 96 q 367 160 367 125 q 347 203 367 188 q 297 230 328 219 q 233 250 267 240 q 119 319 157 274 q 82 425 82 365 q 106 513 82 471 q 177 583 129 556 q 300 611 225 611 q 415 596 365 611 q 508 547 465 581 l 449 454 q 390 491 424 478 q 328 506 356 504 q 265 490 290 507 q 240 446 240 474 q 259 401 239 418 q 311 375 279 385 q 375 354 343 365 q 481 295 439 333 q 522 189 522 257 q 496 89 522 135 q 417 15 469 43 q 283 -12 364 -12 z "},"š":{"ha":588,"x_min":54,"x_max":550,"o":"m 283 -12 q 156 11 217 -12 q 54 81 96 35 l 121 168 q 198 113 160 131 q 271 96 236 96 q 338 110 310 96 q 367 160 367 125 q 347 203 367 188 q 297 230 328 219 q 233 250 267 240 q 119 319 157 274 q 82 425 82 365 q 106 513 82 471 q 177 583 129 556 q 300 611 225 611 q 415 596 365 611 q 508 547 465 581 l 449 454 q 390 491 424 478 q 328 506 356 504 q 265 490 290 507 q 240 446 240 474 q 259 401 239 418 q 311 375 279 385 q 375 354 343 365 q 481 295 439 333 q 522 189 522 257 q 496 89 522 135 q 417 15 469 43 q 283 -12 364 -12 z "},"ş":{"ha":588,"x_min":54,"x_max":522,"o":"m 283 -12 q 156 11 217 -12 q 54 81 96 35 l 121 168 q 198 113 160 131 q 271 96 236 96 q 338 110 310 96 q 367 160 367 125 q 347 203 367 188 q 297 230 328 219 q 233 250 267 240 q 119 319 157 274 q 82 425 82 365 q 106 513 82 471 q 177 583 129 556 q 300 611 225 611 q 415 596 365 611 q 508 547 465 581 l 449 454 q 390 491 424 478 q 328 506 356 504 q 265 490 290 507 q 240 446 240 474 q 259 401 239 418 q 311 375 279 385 q 375 354 343 365 q 481 295 439 333 q 522 189 522 257 q 496 89 522 135 q 417 15 469 43 q 283 -12 364 -12 z "},"ŝ":{"ha":588,"x_min":51,"x_max":538,"o":"m 283 -12 q 156 11 217 -12 q 54 81 96 35 l 121 168 q 198 113 160 131 q 271 96 236 96 q 338 110 310 96 q 367 160 367 125 q 347 203 367 188 q 297 230 328 219 q 233 250 267 240 q 119 319 157 274 q 82 425 82 365 q 106 513 82 471 q 177 583 129 556 q 300 611 225 611 q 415 596 365 611 q 508 547 465 581 l 449 454 q 390 491 424 478 q 328 506 356 504 q 265 490 290 507 q 240 446 240 474 q 259 401 239 418 q 311 375 279 385 q 375 354 343 365 q 481 295 439 333 q 522 189 522 257 q 496 89 522 135 q 417 15 469 43 q 283 -12 364 -12 z "},"ș":{"ha":588,"x_min":54,"x_max":522,"o":"m 283 -12 q 156 11 217 -12 q 54 81 96 35 l 121 168 q 198 113 160 131 q 271 96 236 96 q 338 110 310 96 q 367 160 367 125 q 347 203 367 188 q 297 230 328 219 q 233 250 267 240 q 119 319 157 274 q 82 425 82 365 q 106 513 82 471 q 177 583 129 556 q 300 611 225 611 q 415 596 365 611 q 508 547 465 581 l 449 454 q 390 491 424 478 q 328 506 356 504 q 265 490 290 507 q 240 446 240 474 q 259 401 239 418 q 311 375 279 385 q 375 354 343 365 q 481 295 439 333 q 522 189 522 257 q 496 89 522 135 q 417 15 469 43 q 283 -12 364 -12 m 249 -299 l 169 -244 q 215 -162 201 -215 q 221 -57 229 -108 l 357 -58 q 353 -143 364 -97 q 315 -231 342 -189 q 249 -299 289 -272 z "},"ß":{"ha":849,"x_min":58,"x_max":783,"o":"m 149 638 q 189 793 149 728 q 297 893 229 858 q 444 926 364 928 q 650 868 579 926 q 721 731 721 810 q 697 624 721 672 q 624 550 672 575 q 739 456 694 521 q 783 274 783 392 q 707 58 783 131 q 510 -14 631 -14 q 408 3 449 -14 q 350 39 367 21 l 410 132 q 451 110 431 115 q 494 104 472 104 q 594 156 561 104 q 626 282 626 207 q 585 422 626 372 q 475 469 544 471 l 467 469 l 465 606 q 536 630 508 606 q 564 694 564 654 q 533 771 564 742 q 446 800 503 800 q 337 744 368 800 q 306 585 306 688 l 306 0 l 149 0 l 149 468 l 58 468 l 58 594 l 149 594 l 149 638 z "},"t":{"ha":518,"x_min":63,"x_max":472,"o":"m 164 846 l 319 846 l 319 588 l 472 588 l 472 465 l 319 465 l 319 0 l 164 0 l 164 465 l 63 465 l 63 588 l 164 588 l 164 846 z "},"ŧ":{"ha":518,"x_min":40,"x_max":472,"o":"m 164 846 l 319 846 l 319 588 l 472 588 l 472 465 l 319 465 l 319 0 l 164 0 l 164 465 l 63 465 l 63 588 l 164 588 l 164 846 m 40 336 l 447 336 l 447 192 l 40 192 l 40 336 z "},"ť":{"ha":518,"x_min":63,"x_max":563,"o":"m 164 846 l 319 846 l 319 588 l 472 588 l 472 465 l 319 465 l 319 0 l 164 0 l 164 465 l 63 465 l 63 588 l 164 588 l 164 846 m 447 686 l 368 740 q 414 823 400 769 q 419 928 428 876 l 556 926 q 551 842 563 888 q 514 754 540 796 q 447 686 488 713 z "},"ţ":{"ha":518,"x_min":63,"x_max":472,"o":"m 164 846 l 319 846 l 319 588 l 472 588 l 472 465 l 319 465 l 319 0 l 164 0 l 164 465 l 63 465 l 63 588 l 164 588 l 164 846 z "},"ț":{"ha":518,"x_min":63,"x_max":472,"o":"m 164 846 l 319 846 l 319 588 l 472 588 l 472 465 l 319 465 l 319 0 l 164 0 l 164 465 l 63 465 l 63 588 l 164 588 l 164 846 m 192 -287 l 113 -233 q 158 -151 144 -204 q 164 -46 172 -97 l 300 -47 q 296 -132 307 -86 q 258 -219 285 -178 q 192 -287 232 -261 z "},"u":{"ha":781,"x_min":107,"x_max":672,"o":"m 296 -25 q 163 24 215 -25 q 107 151 110 74 l 107 588 l 263 588 l 263 207 q 288 135 265 163 q 358 108 310 108 q 472 171 428 108 q 517 328 517 233 l 517 588 l 672 588 l 672 0 l 532 0 l 521 104 q 433 11 493 47 q 296 -25 374 -25 z "},"ú":{"ha":781,"x_min":107,"x_max":672,"o":"m 296 -25 q 163 24 215 -25 q 107 151 110 74 l 107 588 l 263 588 l 263 207 q 288 135 265 163 q 358 108 310 108 q 472 171 428 108 q 517 328 517 233 l 517 588 l 672 588 l 672 0 l 532 0 l 521 104 q 433 11 493 47 q 296 -25 374 -25 z "},"ŭ":{"ha":781,"x_min":107,"x_max":672,"o":"m 296 -25 q 163 24 215 -25 q 107 151 110 74 l 107 588 l 263 588 l 263 207 q 288 135 265 163 q 358 108 310 108 q 472 171 428 108 q 517 328 517 233 l 517 588 l 672 588 l 672 0 l 532 0 l 521 104 q 433 11 493 47 q 296 -25 374 -25 z "},"û":{"ha":781,"x_min":107,"x_max":672,"o":"m 296 -25 q 163 24 215 -25 q 107 151 110 74 l 107 588 l 263 588 l 263 207 q 288 135 265 163 q 358 108 310 108 q 472 171 428 108 q 517 328 517 233 l 517 588 l 672 588 l 672 0 l 532 0 l 521 104 q 433 11 493 47 q 296 -25 374 -25 z "},"ȕ":{"ha":781,"x_min":79,"x_max":672,"o":"m 296 -25 q 163 24 215 -25 q 107 151 110 74 l 107 588 l 263 588 l 263 207 q 288 135 265 163 q 358 108 310 108 q 472 171 428 108 q 517 328 517 233 l 517 588 l 672 588 l 672 0 l 532 0 l 521 104 q 433 11 493 47 q 296 -25 374 -25 z "},"ü":{"ha":781,"x_min":107,"x_max":672,"o":"m 296 -25 q 163 24 215 -25 q 107 151 110 74 l 107 588 l 263 588 l 263 207 q 288 135 265 163 q 358 108 310 108 q 472 171 428 108 q 517 328 517 233 l 517 588 l 672 588 l 672 0 l 532 0 l 521 104 q 433 11 493 47 q 296 -25 374 -25 z "},"ụ":{"ha":781,"x_min":107,"x_max":672,"o":"m 296 -25 q 163 24 215 -25 q 107 151 110 74 l 107 588 l 263 588 l 263 207 q 288 135 265 163 q 358 108 310 108 q 472 171 428 108 q 517 328 517 233 l 517 588 l 672 588 l 672 0 l 532 0 l 521 104 q 433 11 493 47 q 296 -25 374 -25 m 315 -147 q 339 -97 315 -117 q 390 -78 363 -78 q 441 -97 418 -78 q 464 -147 464 -117 q 441 -197 464 -178 q 390 -217 418 -217 q 339 -197 363 -217 q 315 -147 315 -178 z "},"ù":{"ha":781,"x_min":107,"x_max":672,"o":"m 296 -25 q 163 24 215 -25 q 107 151 110 74 l 107 588 l 263 588 l 263 207 q 288 135 265 163 q 358 108 310 108 q 472 171 428 108 q 517 328 517 233 l 517 588 l 672 588 l 672 0 l 532 0 l 521 104 q 433 11 493 47 q 296 -25 374 -25 z "},"ủ":{"ha":781,"x_min":107,"x_max":672,"o":"m 296 -25 q 163 24 215 -25 q 107 151 110 74 l 107 588 l 263 588 l 263 207 q 288 135 265 163 q 358 108 310 108 q 472 171 428 108 q 517 328 517 233 l 517 588 l 672 588 l 672 0 l 532 0 l 521 104 q 433 11 493 47 q 296 -25 374 -25 m 358 721 q 401 758 385 740 q 418 800 418 775 q 407 835 418 821 q 374 849 396 849 q 339 837 354 849 q 314 807 324 825 l 257 843 q 317 913 281 890 q 394 935 354 935 q 479 899 453 935 q 506 821 506 864 q 473 737 506 771 q 394 675 440 703 l 358 721 z "},"ư":{"ha":790,"x_min":107,"x_max":824,"o":"m 296 -25 q 163 24 215 -25 q 107 151 110 74 l 107 588 l 263 588 l 263 207 q 288 135 265 163 q 358 108 310 108 q 472 171 428 108 q 517 328 517 233 l 517 588 l 672 588 l 672 0 l 532 0 l 521 104 q 433 11 493 47 q 296 -25 374 -25 m 585 588 q 669 617 639 588 q 708 713 699 647 l 824 713 q 778 579 813 626 q 695 513 744 532 q 585 494 646 494 l 585 588 z "},"ứ":{"ha":790,"x_min":107,"x_max":824,"o":"m 296 -25 q 163 24 215 -25 q 107 151 110 74 l 107 588 l 263 588 l 263 207 q 288 135 265 163 q 358 108 310 108 q 472 171 428 108 q 517 328 517 233 l 517 588 l 672 588 l 672 0 l 532 0 l 521 104 q 433 11 493 47 q 296 -25 374 -25 m 585 588 q 669 617 639 588 q 708 713 699 647 l 824 713 q 778 579 813 626 q 695 513 744 532 q 585 494 646 494 l 585 588 z "},"ự":{"ha":790,"x_min":107,"x_max":824,"o":"m 296 -25 q 163 24 215 -25 q 107 151 110 74 l 107 588 l 263 588 l 263 207 q 288 135 265 163 q 358 108 310 108 q 472 171 428 108 q 517 328 517 233 l 517 588 l 672 588 l 672 0 l 532 0 l 521 104 q 433 11 493 47 q 296 -25 374 -25 m 585 588 q 669 617 639 588 q 708 713 699 647 l 824 713 q 778 579 813 626 q 695 513 744 532 q 585 494 646 494 l 585 588 m 315 -147 q 339 -97 315 -117 q 390 -78 363 -78 q 441 -97 418 -78 q 464 -147 464 -117 q 441 -197 464 -178 q 390 -217 418 -217 q 339 -197 363 -217 q 315 -147 315 -178 z "},"ừ":{"ha":790,"x_min":107,"x_max":824,"o":"m 296 -25 q 163 24 215 -25 q 107 151 110 74 l 107 588 l 263 588 l 263 207 q 288 135 265 163 q 358 108 310 108 q 472 171 428 108 q 517 328 517 233 l 517 588 l 672 588 l 672 0 l 532 0 l 521 104 q 433 11 493 47 q 296 -25 374 -25 m 585 588 q 669 617 639 588 q 708 713 699 647 l 824 713 q 778 579 813 626 q 695 513 744 532 q 585 494 646 494 l 585 588 z "},"ử":{"ha":790,"x_min":107,"x_max":824,"o":"m 296 -25 q 163 24 215 -25 q 107 151 110 74 l 107 588 l 263 588 l 263 207 q 288 135 265 163 q 358 108 310 108 q 472 171 428 108 q 517 328 517 233 l 517 588 l 672 588 l 672 0 l 532 0 l 521 104 q 433 11 493 47 q 296 -25 374 -25 m 585 588 q 669 617 639 588 q 708 713 699 647 l 824 713 q 778 579 813 626 q 695 513 744 532 q 585 494 646 494 l 585 588 m 358 721 q 401 758 385 740 q 418 800 418 775 q 407 835 418 821 q 374 849 396 849 q 339 837 354 849 q 314 807 324 825 l 257 843 q 317 913 281 890 q 394 935 354 935 q 479 899 453 935 q 506 821 506 864 q 473 737 506 771 q 394 675 440 703 l 358 721 z "},"ữ":{"ha":790,"x_min":107,"x_max":824,"o":"m 296 -25 q 163 24 215 -25 q 107 151 110 74 l 107 588 l 263 588 l 263 207 q 288 135 265 163 q 358 108 310 108 q 472 171 428 108 q 517 328 517 233 l 517 588 l 672 588 l 672 0 l 532 0 l 521 104 q 433 11 493 47 q 296 -25 374 -25 m 585 588 q 669 617 639 588 q 708 713 699 647 l 824 713 q 778 579 813 626 q 695 513 744 532 q 585 494 646 494 l 585 588 m 500 664 q 424 684 454 664 q 369 725 394 704 q 338 752 354 740 q 303 764 322 764 q 263 735 276 764 q 251 664 250 706 l 171 664 q 182 764 167 718 q 231 837 197 810 q 311 864 264 864 q 373 844 346 864 q 424 804 400 825 q 460 772 443 786 q 497 758 478 758 q 533 789 524 758 q 542 863 543 819 l 622 863 q 596 719 633 774 q 500 664 558 664 z "},"ű":{"ha":781,"x_min":107,"x_max":715,"o":"m 296 -25 q 163 24 215 -25 q 107 151 110 74 l 107 588 l 263 588 l 263 207 q 288 135 265 163 q 358 108 310 108 q 472 171 428 108 q 517 328 517 233 l 517 588 l 672 588 l 672 0 l 532 0 l 521 104 q 433 11 493 47 q 296 -25 374 -25 z "},"ȗ":{"ha":781,"x_min":107,"x_max":672,"o":"m 296 -25 q 163 24 215 -25 q 107 151 110 74 l 107 588 l 263 588 l 263 207 q 288 135 265 163 q 358 108 310 108 q 472 171 428 108 q 517 328 517 233 l 517 588 l 672 588 l 672 0 l 532 0 l 521 104 q 433 11 493 47 q 296 -25 374 -25 m 397 915 q 544 851 489 915 q 617 665 599 788 l 513 665 q 475 770 501 729 q 397 811 449 811 q 319 770 344 811 q 285 665 294 729 l 179 665 q 397 915 215 915 z "},"ū":{"ha":781,"x_min":107,"x_max":672,"o":"m 296 -25 q 163 24 215 -25 q 107 151 110 74 l 107 588 l 263 588 l 263 207 q 288 135 265 163 q 358 108 310 108 q 472 171 428 108 q 517 328 517 233 l 517 588 l 672 588 l 672 0 l 532 0 l 521 104 q 433 11 493 47 q 296 -25 374 -25 z "},"ų":{"ha":786,"x_min":107,"x_max":764,"o":"m 296 -25 q 163 24 215 -25 q 107 151 110 74 l 107 588 l 263 588 l 263 207 q 288 135 265 163 q 358 108 310 108 q 472 171 428 108 q 517 328 517 233 l 517 588 l 672 588 l 672 1 l 676 0 q 581 -58 617 -28 q 546 -133 546 -89 q 565 -183 546 -169 q 610 -197 585 -197 q 707 -131 663 -197 l 764 -211 q 688 -281 736 -253 q 596 -308 640 -308 q 469 -264 521 -308 q 417 -146 417 -219 q 448 -55 417 -99 q 531 11 479 -11 l 521 104 q 433 11 493 47 q 296 -25 374 -25 z "},"ů":{"ha":781,"x_min":107,"x_max":672,"o":"m 296 -25 q 163 24 215 -25 q 107 151 110 74 l 107 588 l 263 588 l 263 207 q 288 135 265 163 q 358 108 310 108 q 472 171 428 108 q 517 328 517 233 l 517 588 l 672 588 l 672 0 l 532 0 l 521 104 q 433 11 493 47 q 296 -25 374 -25 z "},"ũ":{"ha":781,"x_min":107,"x_max":672,"o":"m 296 -25 q 163 24 215 -25 q 107 151 110 74 l 107 588 l 263 588 l 263 207 q 288 135 265 163 q 358 108 310 108 q 472 171 428 108 q 517 328 517 233 l 517 588 l 672 588 l 672 0 l 532 0 l 521 104 q 433 11 493 47 q 296 -25 374 -25 m 500 664 q 424 684 454 664 q 369 725 394 704 q 338 752 354 740 q 303 764 322 764 q 263 735 276 764 q 251 664 250 706 l 171 664 q 182 764 167 718 q 231 837 197 810 q 311 864 264 864 q 373 844 346 864 q 424 804 400 825 q 460 772 443 786 q 497 758 478 758 q 533 789 524 758 q 542 863 543 819 l 622 863 q 596 719 633 774 q 500 664 558 664 z "},"v":{"ha":708,"x_min":21,"x_max":688,"o":"m 358 -15 l 21 588 l 206 588 l 368 253 l 514 588 l 688 588 l 365 -15 l 358 -15 z "},"w":{"ha":942,"x_min":21,"x_max":921,"o":"m 503 588 l 642 265 l 768 588 l 921 588 l 653 -35 l 464 363 l 292 -35 l 21 588 l 174 588 l 310 275 l 408 500 l 368 588 l 503 588 z "},"ẃ":{"ha":942,"x_min":21,"x_max":921,"o":"m 503 588 l 642 265 l 768 588 l 921 588 l 653 -35 l 464 363 l 292 -35 l 21 588 l 174 588 l 310 275 l 408 500 l 368 588 l 503 588 z "},"ŵ":{"ha":942,"x_min":21,"x_max":921,"o":"m 503 588 l 642 265 l 768 588 l 921 588 l 653 -35 l 464 363 l 292 -35 l 21 588 l 174 588 l 310 275 l 408 500 l 368 588 l 503 588 z "},"ẅ":{"ha":942,"x_min":21,"x_max":921,"o":"m 503 588 l 642 265 l 768 588 l 921 588 l 653 -35 l 464 363 l 292 -35 l 21 588 l 174 588 l 310 275 l 408 500 l 368 588 l 503 588 z "},"ẁ":{"ha":942,"x_min":21,"x_max":921,"o":"m 503 588 l 642 265 l 768 588 l 921 588 l 653 -35 l 464 363 l 292 -35 l 21 588 l 174 588 l 310 275 l 408 500 l 368 588 l 503 588 z "},"x":{"ha":681,"x_min":21,"x_max":658,"o":"m 658 0 l 471 0 l 322 194 l 185 0 l 28 0 l 246 294 l 21 588 l 214 588 l 357 397 l 476 588 l 632 588 l 428 304 l 658 0 z "},"y":{"ha":708,"x_min":21,"x_max":688,"o":"m 156 -282 l 293 24 l 21 588 l 196 588 l 371 199 l 546 588 l 688 588 l 308 -282 l 156 -282 z "},"ý":{"ha":708,"x_min":21,"x_max":688,"o":"m 156 -282 l 293 24 l 21 588 l 196 588 l 371 199 l 546 588 l 688 588 l 308 -282 l 156 -282 z "},"ŷ":{"ha":708,"x_min":21,"x_max":688,"o":"m 156 -282 l 293 24 l 21 588 l 196 588 l 371 199 l 546 588 l 688 588 l 308 -282 l 156 -282 z "},"ÿ":{"ha":708,"x_min":21,"x_max":688,"o":"m 156 -282 l 293 24 l 21 588 l 196 588 l 371 199 l 546 588 l 688 588 l 308 -282 l 156 -282 z "},"ỵ":{"ha":708,"x_min":21,"x_max":688,"o":"m 156 -282 l 293 24 l 21 588 l 196 588 l 371 199 l 546 588 l 688 588 l 308 -282 l 156 -282 m 496 -158 q 519 -108 496 -128 q 571 -89 543 -89 q 622 -108 599 -89 q 644 -158 644 -128 q 622 -208 644 -189 q 571 -228 599 -228 q 519 -208 543 -228 q 496 -158 496 -189 z "},"ỳ":{"ha":708,"x_min":21,"x_max":688,"o":"m 156 -282 l 293 24 l 21 588 l 196 588 l 371 199 l 546 588 l 688 588 l 308 -282 l 156 -282 z "},"ỷ":{"ha":708,"x_min":21,"x_max":688,"o":"m 156 -282 l 293 24 l 21 588 l 196 588 l 371 199 l 546 588 l 688 588 l 308 -282 l 156 -282 m 332 699 q 375 735 358 718 q 392 778 392 753 q 381 813 392 799 q 347 826 369 826 q 313 815 328 826 q 288 785 297 803 l 231 821 q 291 890 254 868 q 368 913 328 913 q 453 877 426 913 q 479 799 479 842 q 447 715 479 749 q 368 653 414 681 l 332 699 z "},"ȳ":{"ha":708,"x_min":21,"x_max":688,"o":"m 156 -282 l 293 24 l 21 588 l 196 588 l 371 199 l 546 588 l 688 588 l 308 -282 l 156 -282 z "},"ỹ":{"ha":708,"x_min":21,"x_max":688,"o":"m 156 -282 l 293 24 l 21 588 l 196 588 l 371 199 l 546 588 l 688 588 l 308 -282 l 156 -282 m 472 642 q 397 662 426 642 q 342 703 367 682 q 310 730 326 718 q 275 742 294 742 q 235 713 249 742 q 224 642 222 683 l 143 642 q 154 742 139 696 q 203 815 169 788 q 283 842 236 842 q 345 822 318 842 q 396 782 372 803 q 433 750 415 764 q 469 736 450 736 q 506 767 496 736 q 514 840 515 797 l 594 840 q 568 697 606 751 q 472 642 531 642 z "},"z":{"ha":676,"x_min":35,"x_max":604,"o":"m 178 461 q 99 491 132 461 q 65 578 65 521 l 65 644 l 182 644 l 182 625 q 193 594 182 600 q 229 588 204 588 l 604 588 l 286 128 l 600 128 l 600 0 l 35 0 l 353 461 l 178 461 z "},"ź":{"ha":676,"x_min":35,"x_max":604,"o":"m 178 461 q 99 491 132 461 q 65 578 65 521 l 65 644 l 182 644 l 182 625 q 193 594 182 600 q 229 588 204 588 l 604 588 l 286 128 l 600 128 l 600 0 l 35 0 l 353 461 l 178 461 z "},"ž":{"ha":676,"x_min":35,"x_max":604,"o":"m 178 461 q 99 491 132 461 q 65 578 65 521 l 65 644 l 182 644 l 182 625 q 193 594 182 600 q 229 588 204 588 l 604 588 l 286 128 l 600 128 l 600 0 l 35 0 l 353 461 l 178 461 z "},"ż":{"ha":676,"x_min":35,"x_max":604,"o":"m 178 461 q 99 491 132 461 q 65 578 65 521 l 65 644 l 182 644 l 182 625 q 193 594 182 600 q 229 588 204 588 l 604 588 l 286 128 l 600 128 l 600 0 l 35 0 l 353 461 l 178 461 z "},"ﬀ":{"ha":982,"x_min":58,"x_max":978,"o":"m 158 0 l 158 451 l 58 451 l 58 589 l 158 589 l 158 819 q 220 1012 158 942 q 400 1082 282 1082 q 473 1072 433 1082 q 544 1042 513 1063 l 479 929 q 449 949 465 943 q 417 954 432 954 q 342 922 369 954 q 314 815 314 890 l 314 589 l 497 589 l 497 451 l 314 451 l 314 0 l 158 0 m 593 0 l 593 451 l 493 451 l 493 589 l 593 589 l 593 819 q 655 1012 593 942 q 835 1082 717 1082 q 908 1072 868 1082 q 979 1042 947 1063 l 914 929 q 883 949 900 943 q 851 954 867 954 q 776 922 804 954 q 749 815 749 890 l 749 589 l 932 589 l 932 451 l 749 451 l 749 0 l 593 0 z "},"ﬁ":{"ha":836,"x_min":58,"x_max":742,"o":"m 158 0 l 158 451 l 58 451 l 58 589 l 158 589 l 158 819 q 220 1012 158 942 q 400 1082 282 1082 q 473 1072 433 1082 q 544 1042 513 1063 l 479 929 q 449 949 465 943 q 417 954 432 954 q 342 922 369 954 q 314 815 314 890 l 314 589 l 475 589 l 475 451 l 314 451 l 314 0 l 158 0 m 565 799 q 594 858 565 835 q 656 882 622 882 q 715 858 688 882 q 742 799 742 835 q 715 739 742 761 q 656 717 688 717 q 594 740 622 717 q 565 799 565 763 m 572 588 l 729 588 l 729 0 l 572 0 l 572 588 z "},"ﬂ":{"ha":836,"x_min":58,"x_max":729,"o":"m 572 1083 l 729 1083 l 729 0 l 572 0 l 572 1083 m 158 0 l 158 451 l 58 451 l 58 589 l 158 589 l 158 819 q 220 1012 158 942 q 400 1082 282 1082 q 473 1072 433 1082 q 544 1042 513 1063 l 479 929 q 449 949 465 943 q 417 954 432 954 q 342 922 369 954 q 314 815 314 890 l 314 589 l 475 589 l 475 451 l 314 451 l 314 0 l 158 0 z "},"ª":{"ha":549,"x_min":40,"x_max":471,"o":"m 221 589 q 93 642 146 589 q 40 799 40 694 q 65 912 40 864 q 131 986 90 960 q 218 1013 171 1013 q 303 993 271 1013 q 353 949 336 974 l 360 997 l 471 997 l 471 597 l 351 597 l 351 651 q 303 611 336 633 q 221 589 271 589 m 258 685 q 319 707 294 685 q 351 765 343 729 l 351 839 q 317 895 342 874 q 257 917 292 917 q 189 885 217 917 q 161 803 161 853 q 190 719 161 753 q 258 685 218 685 z "},"º":{"ha":521,"x_min":40,"x_max":481,"o":"m 40 799 q 69 906 40 858 q 147 982 97 954 q 263 1010 197 1010 q 420 949 360 1010 q 481 799 481 889 q 421 647 481 707 q 261 586 361 586 q 103 643 165 586 q 40 799 40 700 m 163 797 q 190 721 163 751 q 260 690 218 690 q 331 721 303 690 q 360 797 360 751 q 331 875 360 843 q 260 907 303 907 q 190 874 218 907 q 163 797 163 842 z "},"Δ":{"ha":1022,"x_min":33,"x_max":990,"o":"m 33 0 l 510 1053 l 517 1053 l 990 0 l 33 0 m 268 156 l 754 156 l 514 699 l 268 156 z "},"μ":{"ha":781,"x_min":107,"x_max":672,"o":"m 296 -25 q 249 -19 271 -25 l 249 -328 l 107 -328 l 107 588 l 263 588 l 263 207 q 288 135 265 163 q 358 108 310 108 q 472 171 428 108 q 517 328 517 233 l 517 588 l 672 588 l 672 0 l 532 0 l 521 104 q 433 11 493 47 q 296 -25 374 -25 z "},"π":{"ha":565,"x_min":11,"x_max":550,"o":"m 11 497 l 550 497 l 550 361 l 469 361 l 469 0 l 332 0 l 332 361 l 229 361 l 229 0 l 90 0 l 90 361 l 11 361 l 11 497 z "},"¹":{"ha":383,"x_min":51,"x_max":283,"o":"m 51 919 l 283 919 l 283 378 l 139 378 l 139 779 l 51 779 l 51 919 z "},"²":{"ha":563,"x_min":82,"x_max":500,"o":"m 82 876 q 163 939 107 914 q 279 963 219 964 q 425 912 369 961 q 481 778 481 863 q 433 643 481 704 q 325 532 385 582 l 500 532 l 500 401 l 97 401 l 97 490 q 167 537 129 510 q 240 596 206 564 q 296 663 274 628 q 318 736 318 699 q 297 810 318 786 q 238 833 276 833 q 174 815 206 833 q 128 774 143 797 l 82 876 z "},"³":{"ha":533,"x_min":68,"x_max":438,"o":"m 228 396 q 129 419 169 396 q 68 464 89 442 l 113 554 q 149 519 124 540 q 211 499 175 497 q 272 521 247 499 q 296 589 296 543 q 269 660 296 639 q 206 681 242 681 q 167 677 182 681 q 142 668 153 674 l 135 682 l 235 839 l 89 839 l 89 951 l 417 951 l 306 750 q 397 701 356 740 q 438 594 438 663 q 381 453 438 511 q 228 396 324 396 z "},"⁴":{"ha":550,"x_min":46,"x_max":489,"o":"m 489 618 l 489 529 l 426 529 l 426 394 l 292 394 l 292 529 l 49 529 l 46 569 l 329 946 l 426 946 l 426 618 l 489 618 m 199 618 l 292 618 l 292 744 l 199 618 z "},"⁄":{"ha":797,"x_min":13,"x_max":724,"o":"m 724 958 l 158 0 l 13 0 l 578 958 l 724 958 z "},"½":{"ha":1246,"x_min":54,"x_max":1161,"o":"m 54 922 l 286 922 l 286 381 l 142 381 l 142 782 l 54 782 l 54 922 m 743 464 q 824 526 768 501 q 940 550 881 551 q 1086 499 1031 549 q 1142 365 1142 450 q 1094 231 1142 292 q 986 119 1046 169 l 1161 119 l 1161 -11 l 758 -11 l 758 78 q 828 124 790 97 q 901 183 867 151 q 957 251 935 215 q 979 324 979 286 q 958 397 979 374 q 899 421 938 421 q 835 403 867 421 q 789 361 804 385 l 743 464 m 899 958 l 333 0 l 188 0 l 753 958 l 899 958 z "},"¼":{"ha":1154,"x_min":54,"x_max":1114,"o":"m 917 958 l 351 0 l 206 0 l 771 958 l 917 958 m 54 919 l 288 919 l 288 378 l 142 378 l 142 779 l 54 779 l 54 919 m 1114 224 l 1114 135 l 1050 135 l 1050 0 l 917 0 l 917 135 l 674 135 l 671 175 l 954 551 l 1050 551 l 1050 224 l 1114 224 m 824 224 l 917 224 l 917 350 l 824 224 z "},"¾":{"ha":1189,"x_min":69,"x_max":1117,"o":"m 229 396 q 131 419 171 396 q 69 464 90 442 l 114 554 q 151 519 125 540 q 213 499 176 497 q 273 521 249 499 q 297 589 297 543 q 270 660 297 639 q 207 681 243 681 q 169 677 183 681 q 143 668 154 674 l 136 682 l 236 839 l 90 839 l 90 951 l 418 951 l 307 750 q 398 701 357 740 q 439 594 439 663 q 382 453 439 511 q 229 396 325 396 m 954 958 l 389 0 l 243 0 l 808 958 l 954 958 m 1117 225 l 1117 136 l 1054 136 l 1054 1 l 919 1 l 919 136 l 676 136 l 674 176 l 957 553 l 1054 553 l 1054 225 l 1117 225 m 826 225 l 919 225 l 919 351 l 826 225 z "},"*":{"ha":465,"x_min":39,"x_max":432,"o":"m 188 718 q 138 689 163 703 q 88 660 113 675 q 63 702 75 681 q 39 744 51 724 q 90 772 64 758 q 140 800 115 786 q 90 831 115 815 q 40 860 65 846 q 63 899 51 879 q 85 939 74 919 q 135 908 110 924 q 188 879 161 893 l 188 1000 l 283 1000 q 283 940 283 969 q 282 879 282 910 q 333 908 307 893 q 386 938 360 922 q 409 898 397 918 q 432 858 421 878 q 379 829 406 844 q 326 799 353 814 l 429 740 q 405 698 417 719 q 381 657 393 676 q 331 686 356 671 q 279 717 306 701 q 278 660 279 688 q 278 603 278 632 l 188 603 l 188 718 z "},"\\":{"ha":564,"x_min":-6,"x_max":544,"o":"m 153 1039 q 349 506 251 772 q 544 -26 447 240 l 388 -26 q 191 506 289 240 q -6 1039 93 772 l 153 1039 z "},"·":{"ha":239,"x_min":36,"x_max":203,"o":"m 36 400 q 63 460 36 435 q 121 485 89 485 q 176 460 150 485 q 203 400 203 435 q 176 338 203 361 q 121 315 150 315 q 63 338 89 315 q 36 400 36 361 z "},"•":{"ha":675,"x_min":140,"x_max":538,"o":"m 140 424 q 167 524 140 479 q 238 597 193 569 q 338 624 282 624 q 438 597 393 624 q 510 524 483 569 q 538 424 538 479 q 510 323 538 368 q 438 251 483 278 q 338 225 393 225 q 238 251 282 225 q 167 323 193 278 q 140 424 140 368 z "},":":{"ha":247,"x_min":36,"x_max":203,"o":"m 36 469 q 63 530 36 506 q 121 554 89 554 q 176 530 150 554 q 203 469 203 506 q 176 408 203 431 q 121 385 150 385 q 63 408 89 385 q 36 469 36 431 m 36 85 q 63 144 36 119 q 121 169 89 169 q 176 144 150 169 q 203 85 203 119 q 176 23 203 46 q 121 0 150 0 q 63 23 89 0 q 36 85 36 46 z "},",":{"ha":283,"x_min":-4,"x_max":243,"o":"m 243 122 q 181 -24 211 49 q 121 -169 151 -96 l -4 -169 q 50 -24 24 -96 q 104 122 76 49 l 243 122 z "},"…":{"ha":740,"x_min":36,"x_max":707,"o":"m 36 85 q 63 144 36 119 q 121 169 89 169 q 176 144 150 169 q 203 85 203 119 q 176 23 203 46 q 121 0 150 0 q 63 23 89 0 q 36 85 36 46 m 289 85 q 315 144 289 119 q 374 169 342 169 q 429 144 403 169 q 456 85 456 119 q 429 23 456 46 q 374 0 403 0 q 315 23 342 0 q 289 85 289 46 m 542 85 q 567 144 542 119 q 625 169 593 169 q 681 144 654 169 q 707 85 707 119 q 681 23 707 46 q 625 0 654 0 q 567 23 593 0 q 542 85 542 46 z "},"!":{"ha":281,"x_min":46,"x_max":235,"o":"m 68 1058 l 207 1058 l 207 267 l 68 267 l 68 1058 m 142 -4 q 73 19 100 -4 q 46 79 46 42 q 73 140 46 115 q 142 165 100 165 q 208 140 182 165 q 235 79 235 115 q 209 19 235 42 q 142 -4 183 -4 z "},"¡":{"ha":282,"x_min":46,"x_max":235,"o":"m 142 767 q 209 744 183 767 q 235 682 235 721 q 208 622 235 647 q 142 597 182 597 q 73 622 100 597 q 46 682 46 647 q 73 744 46 721 q 142 767 100 767 m 68 -296 l 68 496 l 207 496 l 207 -296 l 68 -296 z "},"#":{"ha":806,"x_min":33,"x_max":735,"o":"m 375 907 q 359 778 367 842 q 342 647 351 714 l 461 647 q 478 778 469 714 q 493 907 486 842 l 635 907 q 619 778 626 842 q 601 647 611 714 l 735 647 q 728 580 731 614 q 722 513 725 546 l 588 513 q 580 451 583 482 q 572 389 576 419 l 706 389 q 697 322 701 356 q 690 253 693 288 l 556 253 q 541 126 549 189 q 526 0 533 64 l 386 0 q 400 126 392 64 q 415 253 408 189 l 297 253 q 282 126 290 189 q 268 0 274 64 l 125 0 q 140 126 132 64 q 156 253 149 189 l 33 253 q 42 322 38 288 q 50 389 47 356 l 172 389 q 180 451 176 419 q 188 513 183 482 l 65 513 q 73 580 69 546 q 81 647 76 614 l 201 647 q 218 778 210 714 q 235 907 226 842 l 375 907 m 328 513 q 321 451 325 482 q 313 389 317 419 l 432 389 q 439 451 435 419 q 446 513 443 482 l 328 513 z "},".":{"ha":236,"x_min":36,"x_max":203,"o":"m 36 85 q 63 144 36 119 q 121 169 89 169 q 176 144 150 169 q 203 85 203 119 q 176 23 203 46 q 121 0 150 0 q 63 23 89 0 q 36 85 36 46 z "},"?":{"ha":640,"x_min":19,"x_max":607,"o":"m 218 264 l 218 346 q 236 457 218 414 q 282 530 254 500 q 339 588 310 560 q 411 660 381 622 q 442 758 442 697 q 401 853 442 817 q 313 889 360 889 q 208 847 247 889 q 149 751 168 804 l 19 811 q 51 876 29 839 q 110 950 74 914 q 201 1010 147 986 q 328 1033 256 1033 q 469 1003 407 1032 q 569 917 532 975 q 607 772 607 860 q 588 656 607 701 q 537 576 568 610 q 474 513 506 543 q 424 462 446 488 q 388 401 401 436 q 374 310 374 365 l 374 264 l 218 264 m 297 -4 q 228 19 256 -4 q 201 79 201 42 q 228 140 201 115 q 297 165 256 165 q 364 140 338 165 q 390 79 390 115 q 364 19 390 42 q 297 -4 338 -4 z "},"¿":{"ha":615,"x_min":38,"x_max":624,"o":"m 347 753 q 416 730 389 753 q 443 669 443 707 q 416 608 443 633 q 347 583 389 583 q 281 608 307 583 q 254 669 254 633 q 280 730 254 707 q 347 753 306 753 m 426 485 l 426 403 q 408 292 426 335 q 363 219 390 249 q 306 161 335 189 q 233 89 264 126 q 203 -10 203 51 q 244 -103 203 -68 q 332 -139 285 -139 q 436 -97 397 -139 q 496 -3 475 -56 l 624 -61 q 593 -128 615 -90 q 533 -201 571 -165 q 442 -261 496 -237 q 315 -285 389 -285 q 174 -255 238 -283 q 74 -169 111 -226 q 38 -24 38 -111 q 57 93 38 47 q 107 172 76 139 q 171 236 138 206 q 220 287 197 261 q 257 348 243 313 q 271 439 271 383 l 271 485 l 426 485 z "},"\"":{"ha":486,"x_min":89,"x_max":414,"o":"m 226 1015 q 224 840 225 928 q 221 665 222 753 l 89 665 l 89 1015 l 226 1015 m 414 1015 q 412 840 414 928 q 408 665 410 753 l 276 665 l 276 1015 l 414 1015 z "},"'":{"ha":235,"x_min":51,"x_max":190,"o":"m 190 1015 q 188 840 190 928 q 185 665 186 753 l 51 665 l 51 1015 l 190 1015 z "},";":{"ha":283,"x_min":-25,"x_max":249,"o":"m 83 436 q 110 497 83 472 q 167 522 136 522 q 222 497 196 522 q 249 436 249 472 q 222 376 249 399 q 167 353 196 353 q 110 376 136 353 q 83 436 83 399 m 222 122 q 162 -24 192 49 q 101 -169 132 -96 l -25 -169 q 30 -24 3 -96 q 85 122 57 49 l 222 122 z "},"/":{"ha":554,"x_min":24,"x_max":557,"o":"m 557 1039 q 360 506 458 772 q 164 -26 263 240 l 24 -26 q 220 506 122 240 q 417 1039 318 772 l 557 1039 z "},"_":{"ha":846,"x_min":142,"x_max":706,"o":"m 142 135 l 706 135 l 706 0 l 142 0 l 142 135 z "},"{":{"ha":518,"x_min":47,"x_max":451,"o":"m 393 915 q 349 906 365 915 q 327 865 333 896 q 321 774 321 835 l 321 621 q 306 521 321 561 q 269 457 290 481 q 229 422 247 433 q 267 387 246 410 q 305 328 289 364 q 321 243 321 293 l 321 67 q 327 -25 321 6 q 349 -65 333 -56 q 393 -75 365 -75 l 451 -75 l 451 -211 l 354 -211 q 283 -209 318 -211 q 221 -192 249 -207 q 176 -141 193 -178 q 160 -33 160 -104 l 160 190 q 148 269 160 231 q 111 332 136 307 q 47 357 86 357 l 47 490 q 111 516 86 492 q 148 578 136 540 q 160 658 160 617 l 160 885 q 176 985 160 950 q 219 1035 192 1021 q 283 1051 247 1049 q 354 1053 318 1053 l 451 1053 l 451 915 l 393 915 z "},"}":{"ha":532,"x_min":81,"x_max":485,"o":"m 139 -75 q 184 -65 168 -75 q 206 -24 200 -54 q 213 68 213 7 l 213 232 q 228 325 213 288 q 265 385 243 363 q 304 419 286 408 q 266 455 288 432 q 228 513 244 478 q 213 599 213 549 l 213 775 q 206 866 213 836 q 184 906 200 896 q 139 915 168 915 l 81 915 l 81 1053 l 178 1053 q 247 1051 213 1053 q 310 1035 282 1049 q 356 988 339 1022 q 374 886 374 953 l 374 663 q 384 583 374 624 q 419 513 394 542 q 485 485 443 485 l 485 351 q 419 322 443 350 q 384 253 394 294 q 374 172 374 213 l 374 -44 q 357 -144 374 -110 q 313 -193 340 -179 q 249 -209 285 -207 q 178 -211 214 -211 l 81 -211 l 81 -75 l 139 -75 z "},"[":{"ha":510,"x_min":139,"x_max":443,"o":"m 139 1053 l 443 1053 l 443 907 l 301 907 l 301 -67 l 443 -67 l 443 -210 l 139 -210 l 139 1053 z "},"]":{"ha":510,"x_min":67,"x_max":371,"o":"m 371 -210 l 67 -210 l 67 -65 l 208 -65 l 208 908 l 67 908 l 67 1053 l 371 1053 l 371 -210 z "},"(":{"ha":563,"x_min":126,"x_max":483,"o":"m 126 410 q 160 674 126 551 q 247 892 193 796 q 358 1051 300 989 l 483 988 q 346 749 403 894 q 289 410 289 603 q 346 72 289 217 q 483 -167 403 -74 l 358 -232 q 247 -73 300 -169 q 160 147 193 24 q 126 410 126 269 z "},")":{"ha":564,"x_min":88,"x_max":446,"o":"m 446 410 q 413 147 446 269 q 326 -73 379 24 q 214 -232 272 -169 l 88 -167 q 226 72 169 -74 q 283 410 283 217 q 226 748 283 603 q 89 986 169 893 l 214 1051 q 326 892 272 989 q 413 674 379 796 q 446 410 446 551 z "},"—":{"ha":988,"x_min":140,"x_max":847,"o":"m 140 369 l 847 369 l 847 233 l 140 233 l 140 369 z "},"–":{"ha":718,"x_min":142,"x_max":565,"o":"m 142 369 l 565 369 l 565 233 l 142 233 l 142 369 z "},"-":{"ha":424,"x_min":75,"x_max":335,"o":"m 75 375 l 335 375 l 335 239 l 75 239 l 75 375 z "},"­":{"ha":833,"x_min":75,"x_max":335,"o":"m 75 375 l 335 375 l 335 239 l 75 239 l 75 375 z "},"«":{"ha":843,"x_min":51,"x_max":703,"o":"m 51 338 q 81 362 57 342 q 141 411 106 382 q 216 472 176 440 q 291 534 256 504 q 351 584 326 564 q 379 608 375 604 l 379 467 q 353 443 374 461 q 306 402 332 425 q 260 361 281 379 q 235 338 240 343 q 260 313 240 332 q 306 272 281 294 q 353 230 332 249 q 379 206 374 211 l 379 65 l 51 338 m 375 338 q 403 362 379 342 q 464 411 428 382 q 539 472 500 440 q 614 534 578 504 q 674 584 650 564 q 703 608 699 604 l 703 467 q 676 443 697 461 q 630 402 656 425 q 583 361 604 379 q 557 338 563 343 q 583 313 563 332 q 630 272 604 294 q 676 230 656 249 q 703 206 697 211 l 703 65 l 375 338 z "},"»":{"ha":843,"x_min":122,"x_max":772,"o":"m 772 338 l 446 65 l 446 206 q 472 230 451 211 q 518 272 493 249 q 564 313 543 294 q 590 338 585 332 q 564 361 585 343 q 518 402 543 379 q 472 443 493 425 q 446 467 451 461 l 446 608 q 474 584 450 604 q 534 534 499 564 q 609 472 569 504 q 684 411 649 440 q 744 362 719 382 q 772 338 768 342 m 450 338 l 122 65 l 122 206 q 149 230 128 211 q 195 272 169 249 q 242 313 221 294 q 268 338 263 332 q 242 361 263 343 q 195 402 221 379 q 149 443 169 425 q 122 467 128 461 l 122 608 q 151 584 126 604 q 211 534 175 564 q 286 472 247 504 q 361 411 325 440 q 422 362 397 382 q 450 338 446 342 z "},"‹":{"ha":508,"x_min":51,"x_max":379,"o":"m 51 338 q 81 362 57 342 q 141 411 106 382 q 216 472 176 440 q 291 534 256 504 q 351 584 326 564 q 379 608 375 604 l 379 467 q 353 443 374 461 q 306 402 332 425 q 260 361 281 379 q 235 338 240 343 q 260 313 240 332 q 306 272 281 294 q 353 230 332 249 q 379 206 374 211 l 379 65 l 51 338 z "},"›":{"ha":499,"x_min":122,"x_max":450,"o":"m 450 338 l 122 65 l 122 206 q 149 230 128 211 q 195 272 169 249 q 242 313 221 294 q 268 338 263 332 q 242 361 263 343 q 195 402 221 379 q 149 443 169 425 q 122 467 128 461 l 122 608 q 151 584 126 604 q 211 534 175 564 q 286 472 247 504 q 361 411 325 440 q 422 362 397 382 q 450 338 446 342 z "},"„":{"ha":438,"x_min":40,"x_max":403,"o":"z "},"“":{"ha":428,"x_min":32,"x_max":406,"o":"m 325 1025 l 406 989 q 357 908 375 957 q 349 813 339 858 l 226 803 q 244 933 213 875 q 325 1025 276 992 m 144 1025 l 225 989 q 176 908 194 957 q 168 813 158 858 l 46 803 q 64 933 32 875 q 144 1025 96 992 z "},"”":{"ha":428,"x_min":40,"x_max":403,"o":"m 218 1003 q 214 920 226 964 q 176 838 201 876 q 119 781 151 800 l 40 817 q 88 894 69 844 q 96 993 106 944 l 218 1003 m 394 1003 q 390 920 403 964 q 353 838 378 876 q 296 781 328 800 l 217 817 q 264 894 246 844 q 272 993 282 944 l 394 1003 z "},"‘":{"ha":258,"x_min":28,"x_max":221,"o":"m 140 1025 l 221 989 q 172 908 190 957 q 164 813 154 858 l 42 803 q 60 933 28 875 q 140 1025 92 992 z "},"’":{"ha":264,"x_min":40,"x_max":226,"o":"m 218 1003 q 214 920 226 964 q 176 838 201 876 q 119 781 151 800 l 40 817 q 88 894 69 844 q 96 993 106 944 l 218 1003 z "},"‚":{"ha":264,"x_min":40,"x_max":226,"o":"m 218 111 q 214 28 226 72 q 176 -53 201 -15 q 119 -111 151 -92 l 40 -75 q 88 3 69 -47 q 96 101 106 53 l 218 111 z "}," ":{"ha":444,"x_min":0,"x_max":0,"o":""}," ":{"ha":444,"x_min":0,"x_max":0,"o":""},"\r":{"ha":444,"x_min":0,"x_max":0,"o":""},"₵":{"ha":967,"x_min":76,"x_max":889,"o":"m 889 79 q 823 42 867 64 q 718 3 779 19 q 585 -11 657 -12 q 372 31 467 -10 q 212 142 278 72 q 111 303 146 213 q 76 497 76 394 q 113 708 76 613 q 216 874 150 804 q 373 983 282 944 q 574 1022 464 1022 q 745 997 669 1022 q 872 939 821 971 l 808 788 q 711 840 769 814 q 579 867 653 867 q 413 819 489 867 q 291 690 338 771 q 244 507 244 608 q 287 319 244 401 q 406 191 329 238 q 589 144 483 144 q 726 169 668 144 q 821 224 785 193 l 889 79 m 489 1143 l 631 1143 l 631 -172 l 489 -172 l 489 1143 z "},"¢":{"ha":646,"x_min":58,"x_max":599,"o":"m 593 54 q 517 10 561 28 q 426 -12 472 -7 l 426 -94 l 331 -94 l 331 -11 q 133 84 207 3 q 58 294 58 165 q 96 448 58 382 q 195 553 133 514 q 331 601 257 593 l 331 682 l 426 682 l 426 600 q 522 574 479 593 q 599 528 565 556 l 521 426 q 480 453 504 440 q 426 472 456 465 l 426 114 q 515 151 476 121 l 593 54 m 214 294 q 245 190 214 236 q 331 124 276 143 l 331 468 q 247 403 279 450 q 214 294 214 357 z "},"₡":{"ha":967,"x_min":76,"x_max":982,"o":"m 889 79 q 823 42 867 64 q 718 3 779 19 q 585 -11 657 -12 q 568 -11 576 -11 l 539 -87 l 399 -87 l 435 10 q 354 39 393 21 l 308 -87 l 168 -87 l 242 114 q 119 283 163 183 q 76 497 76 383 q 113 708 76 613 q 216 874 150 804 q 374 983 282 944 q 574 1022 465 1022 l 578 1022 l 610 1110 l 750 1110 l 713 1006 q 792 979 753 996 l 840 1111 l 982 1111 l 625 146 q 740 175 690 153 q 821 224 789 197 l 889 79 m 244 507 q 306 288 244 379 l 518 861 q 380 795 442 844 q 281 671 318 746 q 244 507 244 596 m 410 189 q 489 157 447 168 l 736 829 q 699 845 718 838 q 657 857 679 853 l 410 189 z "},"¤":{"ha":701,"x_min":131,"x_max":568,"o":"m 532 614 q 565 501 565 563 q 556 440 565 469 q 531 386 547 411 l 568 347 l 501 281 q 481 301 490 290 q 461 321 471 311 q 349 289 411 289 q 289 297 317 289 q 238 319 261 304 l 197 279 l 131 346 l 169 385 q 135 501 135 438 q 144 560 135 532 q 168 613 153 589 q 149 631 158 622 q 131 650 140 640 l 197 717 l 235 679 q 289 704 261 694 q 349 714 317 714 q 409 704 381 714 q 463 679 438 694 l 500 717 l 567 650 l 532 614 m 231 500 q 265 416 231 451 q 350 381 300 381 q 435 416 400 381 q 471 500 471 451 q 435 585 471 550 q 350 621 400 621 q 265 585 300 621 q 231 500 231 550 z "},"$":{"ha":788,"x_min":58,"x_max":735,"o":"m 346 -94 l 346 -8 q 191 26 265 -1 q 58 96 117 54 l 131 222 q 232 165 174 190 q 346 133 290 140 l 346 461 q 233 518 288 485 q 144 603 179 551 q 108 736 108 656 q 185 928 108 854 q 385 1015 261 1001 l 385 1104 l 481 1104 l 481 1014 q 622 983 561 1007 q 731 929 682 960 l 669 806 q 576 847 625 829 q 481 871 528 864 l 481 579 l 483 578 q 602 522 544 556 q 697 431 660 489 q 735 278 735 374 q 700 142 735 204 q 600 39 665 79 q 442 -10 535 -1 l 442 -94 l 346 -94 m 275 749 q 306 675 275 706 q 385 621 338 644 l 385 868 q 304 827 333 858 q 275 749 275 796 m 567 276 q 531 364 567 329 q 442 422 494 399 l 442 138 q 528 182 490 149 q 567 276 567 215 z "},"₫":{"ha":867,"x_min":96,"x_max":825,"o":"m 374 194 q 232 233 294 194 q 133 344 169 272 q 96 513 96 415 q 135 680 96 610 q 241 787 174 750 q 393 824 308 824 q 506 799 451 824 q 596 733 561 775 l 596 903 l 460 903 l 460 1011 l 596 1011 l 596 1090 l 750 1090 l 750 1011 l 825 1011 l 825 903 l 750 903 l 750 210 l 594 210 l 594 288 q 499 220 554 246 q 374 194 443 194 m 425 326 q 533 360 489 326 q 594 451 576 393 l 594 576 q 533 666 579 632 q 425 700 486 700 q 339 676 378 700 q 277 611 300 653 q 254 515 254 569 q 277 419 254 461 q 339 351 300 376 q 425 326 378 326 m 125 108 l 772 108 l 772 0 l 125 0 l 125 108 z "},"€":{"ha":1049,"x_min":76,"x_max":972,"o":"m 78 460 l 161 460 q 160 497 160 478 q 161 536 160 517 l 76 536 l 76 663 l 182 663 q 279 852 213 771 q 442 978 346 933 q 657 1022 539 1022 q 828 997 753 1022 q 956 939 904 971 l 892 788 q 794 840 853 814 q 663 867 736 867 q 484 810 565 867 q 361 663 403 754 l 599 663 l 599 536 l 329 536 q 328 507 328 521 q 331 460 328 482 l 599 460 l 599 333 l 364 333 q 483 196 404 247 q 671 144 563 144 q 809 169 750 144 q 904 224 868 193 l 972 79 q 906 42 950 64 q 801 3 863 19 q 668 -11 740 -12 q 445 35 543 -10 q 281 158 347 81 q 185 333 215 235 l 78 333 l 78 460 z "},"ƒ":{"ha":482,"x_min":-69,"x_max":500,"o":"m 135 717 q 181 919 135 839 q 310 1040 228 1000 q 500 1083 393 1081 l 500 929 q 344 866 392 922 q 296 713 296 810 l 296 589 l 479 589 l 479 440 l 296 440 l 296 138 q 206 -137 296 -49 q -69 -231 115 -225 l -69 -76 q 87 -14 39 -71 q 135 142 135 43 l 135 440 l 35 440 l 35 589 l 135 589 l 135 717 z "},"₣":{"ha":808,"x_min":51,"x_max":753,"o":"m 139 1011 l 753 1011 l 753 856 l 301 856 l 301 571 l 694 571 l 694 417 l 301 417 l 301 0 l 139 0 l 139 1011 m 51 268 l 397 268 l 397 158 l 51 158 l 51 268 z "},"₲":{"ha":1050,"x_min":76,"x_max":943,"o":"m 943 93 q 860 44 917 68 q 735 5 803 21 q 608 -11 668 -11 q 326 53 446 -11 q 142 229 207 118 q 76 482 76 340 q 118 715 76 614 q 232 885 160 817 q 398 988 304 953 q 596 1022 492 1022 q 765 1001 688 1022 q 900 949 843 981 l 847 799 q 778 828 819 814 q 694 851 738 843 q 617 860 651 860 q 344 764 444 860 q 243 496 243 668 q 290 314 243 392 q 420 193 338 236 q 613 150 503 150 q 704 158 660 150 q 781 185 749 167 l 781 353 l 590 353 l 590 508 l 943 508 l 943 93 m 489 1143 l 631 1143 l 631 -172 l 489 -172 l 489 1143 z "},"₭":{"ha":974,"x_min":49,"x_max":946,"o":"m 49 614 l 161 614 l 161 1011 l 325 1011 l 325 624 l 324 614 l 353 614 l 722 1011 l 932 1011 l 556 614 l 803 614 l 803 458 l 597 458 l 946 0 l 742 0 l 401 458 l 386 458 l 325 397 l 325 0 l 161 0 l 161 458 l 49 458 l 49 614 z "},"₤":{"ha":904,"x_min":89,"x_max":839,"o":"m 588 424 l 588 278 l 386 278 l 386 272 q 384 241 386 265 q 376 192 382 217 q 358 156 371 167 l 615 156 q 697 214 697 156 l 697 268 l 839 268 l 839 169 q 796 48 839 96 q 649 0 753 0 l 89 0 l 89 156 l 151 156 q 196 164 179 156 q 219 199 213 172 q 225 278 225 225 l 129 278 l 129 424 l 225 424 l 225 493 l 129 493 l 129 639 l 225 639 l 225 760 q 263 878 225 826 q 370 961 301 931 q 531 992 439 992 q 701 953 632 992 q 807 846 771 914 l 690 765 q 669 787 682 769 q 626 820 657 804 q 535 836 596 836 q 421 802 456 836 q 386 700 386 768 l 386 639 l 588 639 l 588 493 l 386 493 l 386 424 l 588 424 m 386 268 l 386 272 l 386 274 q 386 274 386 274 q 386 274 386 274 q 386 273 386 274 q 386 268 386 272 z "},"₺":{"ha":931,"x_min":28,"x_max":856,"o":"m 613 647 l 675 549 l 389 389 l 389 157 q 603 201 524 158 q 682 349 682 243 q 678 404 682 376 l 846 447 q 853 398 850 424 q 854 346 856 372 q 788 144 851 219 q 619 34 724 68 q 389 0 515 0 l 228 0 l 228 299 l 154 258 l 92 357 l 228 432 l 228 514 l 89 438 l 28 536 l 228 646 l 228 1011 l 389 1011 l 389 736 l 547 824 l 608 725 l 389 603 l 389 522 l 613 647 z "},"₼":{"ha":1063,"x_min":139,"x_max":922,"o":"m 761 644 q 716 774 761 717 q 601 853 671 832 l 601 0 l 461 0 l 461 853 q 344 775 389 832 q 299 644 299 718 l 299 -3 l 139 -3 l 139 649 q 181 824 139 747 q 297 951 224 901 q 461 1014 369 1000 l 461 1154 l 601 1154 l 601 1015 q 767 952 694 1001 q 881 825 839 903 q 922 649 922 747 l 922 -3 l 761 -3 l 761 644 z "},"₦":{"ha":1172,"x_min":21,"x_max":1149,"o":"m 613 585 l 872 585 l 869 1011 l 1032 1011 l 1032 585 l 1149 585 l 1149 475 l 1032 475 l 1032 -36 l 1028 -36 l 503 475 l 301 475 l 303 0 l 139 0 l 139 475 l 21 475 l 21 585 l 139 585 l 139 1046 l 147 1046 l 613 583 l 613 585 m 300 585 l 392 585 l 300 674 l 300 585 m 722 475 l 874 326 l 872 475 l 722 475 z "},"₧":{"ha":890,"x_min":31,"x_max":871,"o":"m 425 1011 q 678 939 583 1011 q 789 738 772 867 l 871 738 l 871 628 l 788 628 q 740 493 778 557 q 631 390 701 429 q 447 351 560 351 l 301 351 l 301 0 l 139 0 l 139 628 l 31 628 l 31 738 l 139 738 l 139 1011 l 425 1011 m 447 507 q 558 538 518 507 q 615 610 599 568 q 631 683 631 651 q 616 756 631 715 q 563 826 601 797 q 451 856 524 856 l 301 856 l 301 507 l 447 507 z "},"₱":{"ha":875,"x_min":21,"x_max":861,"o":"m 425 1011 q 645 960 557 1011 q 769 817 733 910 l 861 817 l 861 707 l 790 707 q 792 686 792 697 q 789 635 792 660 l 861 635 l 861 525 l 757 525 q 649 401 724 451 q 447 351 574 351 l 301 351 l 301 0 l 139 0 l 139 525 l 21 525 l 21 635 l 139 635 l 139 707 l 21 707 l 21 817 l 139 817 l 139 1011 l 425 1011 m 447 507 q 558 538 518 507 q 615 610 599 568 q 631 683 631 651 q 616 756 631 715 q 563 826 601 797 q 451 856 524 856 l 301 856 l 301 507 l 447 507 z "},"₽":{"ha":839,"x_min":21,"x_max":792,"o":"m 21 263 l 139 263 l 139 356 l 21 356 l 21 499 l 139 499 l 139 1011 l 425 1011 q 695 925 599 1011 q 792 686 792 839 q 774 567 792 626 q 715 458 756 507 q 608 381 674 410 q 447 351 543 351 l 301 351 l 301 263 l 431 263 l 431 119 l 301 119 l 301 0 l 139 0 l 139 119 l 21 119 l 21 263 m 447 507 q 558 538 518 507 q 615 610 599 568 q 631 683 631 651 q 616 756 631 715 q 563 826 601 797 q 451 856 524 856 l 301 856 l 301 507 l 447 507 z "},"₹":{"ha":738,"x_min":128,"x_max":699,"o":"m 128 351 l 128 507 l 244 507 q 363 540 322 507 q 418 617 403 574 l 133 617 l 133 751 l 415 751 q 361 824 400 792 q 251 856 322 856 l 128 856 l 128 1011 l 697 1011 l 697 856 l 544 856 q 590 751 578 813 l 699 751 l 699 617 l 590 617 q 540 487 578 547 q 432 390 503 426 l 678 0 l 490 0 l 263 351 q 247 351 254 351 l 128 351 z "},"£":{"ha":900,"x_min":89,"x_max":838,"o":"m 225 760 q 263 878 225 826 q 370 961 301 931 q 531 992 439 992 q 701 953 632 992 q 806 846 771 914 l 689 765 q 638 813 671 790 q 533 836 604 836 q 421 802 456 836 q 386 700 386 768 l 386 553 l 581 553 l 581 396 l 386 396 l 386 268 q 381 208 386 239 q 361 156 376 178 l 615 156 q 697 214 697 156 l 697 268 l 838 268 l 838 169 q 795 48 838 96 q 649 0 753 0 l 89 0 l 89 156 l 151 156 q 195 164 179 156 q 218 199 211 172 q 225 281 225 226 l 225 396 l 133 396 l 133 553 l 225 553 l 225 760 z "},"₩":{"ha":1408,"x_min":51,"x_max":1357,"o":"m 90 639 l 193 639 l 51 1006 l 240 1006 l 368 639 l 596 639 l 643 760 l 547 1006 l 707 1006 l 853 639 l 1063 639 l 1183 1006 l 1357 1006 l 1219 639 l 1331 639 l 1331 529 l 1178 529 l 963 -44 l 735 529 l 711 529 l 456 -47 l 235 529 l 90 529 l 90 639 m 407 529 l 476 331 l 553 529 l 407 529 m 896 529 l 967 350 l 1026 529 l 896 529 z "},"¥":{"ha":978,"x_min":32,"x_max":946,"o":"m 236 226 l 406 226 l 406 300 l 235 300 l 235 426 l 404 426 l 32 1011 l 231 1011 l 492 600 l 747 1011 l 946 1011 l 568 426 l 757 426 l 757 300 l 567 300 l 567 226 l 757 226 l 757 100 l 567 100 l 567 0 l 406 0 l 406 100 l 236 100 l 236 226 z "},"∙":{"ha":317,"x_min":35,"x_max":281,"o":"m 158 328 q 71 364 107 328 q 35 450 35 400 q 71 538 35 501 q 158 574 107 574 q 245 538 210 574 q 281 450 281 501 q 245 364 281 400 q 158 328 210 328 z "},"∕":{"ha":554,"x_min":24,"x_max":557,"o":"m 557 1039 q 360 506 458 772 q 164 -26 263 240 l 24 -26 q 220 506 122 240 q 417 1039 318 772 l 557 1039 z "},"+":{"ha":767,"x_min":122,"x_max":629,"o":"m 304 579 l 446 579 l 446 393 l 629 393 l 629 257 l 446 257 l 446 72 l 304 72 l 304 257 l 122 257 l 122 393 l 304 393 l 304 579 z "},"−":{"ha":829,"x_min":115,"x_max":622,"o":"m 115 357 l 622 357 l 622 221 l 115 221 l 115 357 z "},"×":{"ha":725,"x_min":142,"x_max":635,"o":"m 392 364 q 452 426 422 396 q 514 488 482 456 q 572 428 543 460 q 631 368 600 397 q 511 246 569 308 q 572 184 543 215 q 635 121 601 153 l 511 0 q 449 62 481 32 q 386 124 417 92 q 326 63 357 93 q 265 3 294 32 q 205 61 235 32 q 146 119 175 90 q 207 181 176 151 q 269 243 238 211 l 142 369 l 263 493 l 392 364 z "},"÷":{"ha":706,"x_min":96,"x_max":603,"o":"m 271 569 q 297 629 271 604 q 354 654 322 654 q 410 629 383 654 q 436 569 436 604 q 410 508 436 531 q 354 485 383 485 q 297 508 322 485 q 271 569 271 531 m 96 425 l 603 425 l 603 289 l 96 289 l 96 425 m 271 151 q 297 212 271 188 q 354 236 322 236 q 410 212 383 236 q 436 151 436 188 q 410 90 436 113 q 354 67 383 67 q 297 90 322 67 q 271 151 271 113 z "},"=":{"ha":999,"x_min":142,"x_max":854,"o":"m 142 556 l 854 556 l 854 419 l 142 419 l 142 556 m 142 282 l 854 282 l 854 146 l 142 146 l 142 282 z "},"≠":{"ha":999,"x_min":139,"x_max":854,"o":"m 142 282 l 342 282 q 401 350 371 315 q 460 419 431 385 l 142 419 l 142 556 l 576 556 q 669 665 625 613 q 751 760 714 717 l 829 688 q 776 625 804 658 q 715 556 747 592 l 854 556 l 854 419 l 599 419 q 540 351 569 385 q 482 282 511 317 l 854 282 l 854 146 l 365 146 q 287 55 324 99 q 219 -25 250 11 l 139 46 q 225 146 175 89 l 142 146 l 142 282 z "},">":{"ha":800,"x_min":122,"x_max":738,"o":"m 122 150 l 440 336 l 122 522 l 122 690 l 738 336 l 122 -19 l 122 150 z "},"<":{"ha":810,"x_min":68,"x_max":683,"o":"m 683 521 l 367 335 l 683 149 l 683 -19 l 68 335 l 683 690 l 683 521 z "},"≥":{"ha":772,"x_min":106,"x_max":722,"o":"m 107 1011 l 722 657 l 107 301 l 107 471 l 444 650 l 107 843 l 107 1011 m 106 210 l 678 210 l 678 74 l 106 74 l 106 210 z "},"≤":{"ha":772,"x_min":39,"x_max":654,"o":"m 654 301 l 39 657 l 654 1011 l 654 843 l 339 654 l 654 471 l 654 301 m 93 210 l 644 210 l 644 74 l 93 74 l 93 210 z "},"±":{"ha":740,"x_min":122,"x_max":629,"o":"m 304 806 l 446 806 l 446 618 l 629 618 l 629 483 l 446 483 l 446 297 l 304 297 l 304 483 l 122 483 l 122 618 l 304 618 l 304 806 m 122 244 l 629 244 l 629 107 l 122 107 l 122 244 z "},"≈":{"ha":639,"x_min":25,"x_max":567,"o":"m 414 114 q 325 138 360 114 q 261 186 290 161 q 224 216 242 203 q 185 229 206 229 q 138 195 153 229 q 125 114 124 161 l 29 115 q 42 231 24 178 q 99 316 60 283 q 193 349 138 349 q 267 326 235 349 q 325 278 299 303 q 367 242 347 258 q 410 226 388 226 q 451 262 440 226 q 460 347 461 297 l 556 346 q 548 225 565 278 q 494 143 531 172 q 414 114 458 114 m 415 385 q 326 408 361 385 q 263 457 292 432 q 225 487 243 474 q 186 500 207 500 q 140 466 154 500 q 126 385 125 432 l 31 386 q 43 501 25 449 q 100 587 61 554 q 194 619 139 619 q 268 597 236 619 q 326 549 300 574 q 369 513 349 529 q 411 497 389 497 q 452 533 442 497 q 461 618 463 568 l 557 617 q 549 496 567 549 q 496 414 532 443 q 415 385 460 385 z "},"~":{"ha":606,"x_min":33,"x_max":575,"o":"m 424 597 q 335 621 369 597 q 271 669 300 644 q 233 699 251 686 q 194 713 215 713 q 148 678 163 713 q 135 597 133 644 l 39 599 q 51 714 33 661 q 108 799 69 767 q 203 832 147 832 q 276 809 244 832 q 335 761 308 786 q 377 726 357 742 q 419 710 397 710 q 460 745 450 710 q 469 831 471 781 l 565 829 q 558 708 575 761 q 504 626 540 656 q 424 597 468 597 z "},"¬":{"ha":676,"x_min":85,"x_max":593,"o":"m 85 431 l 593 431 l 593 144 l 431 144 l 431 274 l 85 274 l 85 431 z "},"∞":{"ha":660,"x_min":49,"x_max":610,"o":"m 610 429 q 594 369 610 400 q 548 318 579 339 q 465 297 517 297 q 392 310 428 297 q 331 346 356 324 q 193 297 275 297 q 111 318 143 297 q 64 369 79 339 q 49 429 49 400 q 64 488 49 457 q 111 539 79 518 q 193 560 143 560 q 331 510 274 560 q 467 560 386 560 q 548 539 517 560 q 594 488 579 518 q 610 429 610 457 m 289 426 q 260 463 289 449 q 194 478 231 478 q 131 428 131 478 q 144 392 131 407 q 194 378 158 378 q 259 391 229 378 q 289 426 289 404 m 371 426 q 402 391 371 404 q 465 378 433 378 q 515 392 501 378 q 528 428 528 407 q 465 478 528 478 q 401 463 431 478 q 371 426 371 449 z "},"∫":{"ha":550,"x_min":24,"x_max":428,"o":"m 371 915 q 326 906 342 915 q 303 866 310 896 q 297 775 297 836 l 297 -56 q 282 -150 297 -118 q 242 -195 267 -182 q 185 -210 217 -208 q 119 -211 154 -211 l 24 -211 l 24 -75 l 81 -75 q 126 -65 110 -75 q 148 -24 142 -54 q 154 68 154 7 l 154 886 q 168 986 154 951 q 206 1035 182 1021 q 263 1051 231 1049 q 332 1053 294 1053 l 428 1053 l 428 915 l 371 915 z "},"Ω":{"ha":1157,"x_min":211,"x_max":989,"o":"m 211 135 l 372 135 q 267 249 311 175 q 222 458 222 324 q 274 684 222 597 q 410 811 325 771 q 596 851 496 851 q 813 797 726 851 q 942 647 900 742 q 978 432 983 551 q 931 244 972 314 q 836 135 889 174 l 989 135 l 989 0 l 683 0 l 683 135 q 797 249 757 168 q 838 429 836 329 q 826 528 838 478 q 789 621 815 578 q 717 690 763 664 q 603 717 671 715 q 484 688 531 717 q 411 616 438 660 q 374 524 385 572 q 363 436 364 476 q 410 248 361 326 q 531 135 460 169 l 531 0 l 211 0 l 211 135 z "},"∆":{"ha":707,"x_min":89,"x_max":567,"o":"m 328 1028 l 567 353 l 89 353 l 328 1028 m 328 776 l 214 433 l 443 433 l 328 776 z "},"∏":{"ha":1064,"x_min":283,"x_max":718,"o":"m 283 1058 l 718 1058 l 718 -112 l 579 -112 l 579 922 l 424 922 l 424 -112 l 283 -112 l 283 1058 z "},"∑":{"ha":785,"x_min":106,"x_max":683,"o":"m 106 1058 l 683 1058 l 643 922 l 290 922 l 417 468 l 290 13 l 643 13 l 683 -122 l 106 -122 l 267 468 l 106 1058 z "},"√":{"ha":792,"x_min":25,"x_max":718,"o":"m 622 858 l 718 858 l 328 -17 l 136 401 l 25 401 l 26 483 l 197 483 l 328 192 l 622 858 z "},"µ":{"ha":781,"x_min":107,"x_max":672,"o":"m 296 -25 q 263 -22 279 -25 l 263 -279 l 107 -279 l 107 588 l 263 588 l 263 207 q 288 135 265 163 q 358 108 310 108 q 472 171 428 108 q 517 328 517 233 l 517 588 l 672 588 l 672 0 l 532 0 l 521 104 q 433 11 492 47 q 296 -25 374 -25 z "},"%":{"ha":1100,"x_min":71,"x_max":1033,"o":"m 949 882 l 331 -3 l 178 0 l 793 882 l 949 882 m 279 386 q 123 456 175 386 q 71 633 71 526 q 123 811 71 742 q 279 881 175 881 q 435 811 382 881 q 488 633 488 742 q 435 456 488 525 q 279 386 382 386 m 208 633 q 225 533 208 571 q 279 496 242 496 q 333 533 317 496 q 350 633 350 571 q 279 769 350 769 q 225 737 242 769 q 208 633 208 704 m 825 -29 q 669 41 721 -29 q 617 219 617 111 q 669 397 617 326 q 825 467 721 467 q 981 397 928 467 q 1033 219 1033 326 q 981 41 1033 111 q 825 -29 928 -29 m 753 219 q 770 118 753 156 q 825 81 788 81 q 879 118 863 81 q 896 219 896 156 q 825 356 896 356 q 770 322 788 356 q 753 219 753 289 z "},"‰":{"ha":1571,"x_min":71,"x_max":1506,"o":"m 949 882 l 331 -3 l 178 0 l 793 882 l 949 882 m 279 386 q 123 456 175 386 q 71 633 71 526 q 123 811 71 742 q 279 881 175 881 q 435 811 382 881 q 488 633 488 742 q 435 456 488 525 q 279 386 382 386 m 208 633 q 225 533 208 571 q 279 496 242 496 q 333 533 317 496 q 350 633 350 571 q 279 769 350 769 q 225 737 242 769 q 208 633 208 704 m 825 -29 q 669 41 721 -29 q 617 219 617 111 q 669 397 617 326 q 825 467 721 467 q 981 397 928 467 q 1033 219 1033 326 q 981 41 1033 111 q 825 -29 928 -29 m 1297 -29 q 1141 41 1193 -29 q 1089 219 1089 111 q 1141 397 1089 326 q 1297 467 1193 467 q 1453 397 1400 467 q 1506 219 1506 326 q 1452 41 1506 111 q 1297 -29 1399 -29 m 753 219 q 770 118 753 156 q 825 81 788 81 q 879 118 863 81 q 896 219 896 156 q 825 356 896 356 q 770 322 788 356 q 753 219 753 289 m 1225 219 q 1242 118 1225 156 q 1297 81 1260 81 q 1351 118 1335 81 q 1368 219 1368 156 q 1297 356 1368 356 q 1242 322 1260 356 q 1225 219 1225 289 z "},"◊":{"ha":647,"x_min":89,"x_max":567,"o":"m 328 1028 l 567 506 l 328 -17 l 89 506 l 328 1028 m 328 819 l 186 506 l 328 192 l 471 506 l 328 819 z "},"@":{"ha":1446,"x_min":58,"x_max":1388,"o":"m 619 -308 q 404 -275 506 -308 q 225 -174 303 -242 q 103 -6 147 -107 q 58 233 58 96 q 85 416 58 321 q 170 600 113 511 q 319 760 228 689 q 540 873 411 831 q 838 915 668 915 q 1135 849 1013 915 q 1323 669 1258 782 q 1388 417 1388 556 q 1362 253 1388 331 q 1289 117 1336 176 q 1176 23 1242 57 q 1033 -11 1111 -11 q 928 20 972 -11 q 867 106 883 51 q 801 48 840 75 q 715 3 761 21 q 621 -15 669 -15 q 484 17 544 -15 q 389 111 424 50 q 356 258 354 172 q 399 438 356 357 q 518 567 442 519 q 696 614 594 614 q 832 581 786 614 q 903 501 878 547 l 926 588 l 1074 588 l 1022 217 q 1028 154 1017 178 q 1072 131 1039 131 q 1153 168 1114 131 q 1217 270 1192 206 q 1243 417 1243 335 q 1194 605 1243 519 q 1051 742 1146 690 q 815 793 956 793 q 560 752 667 793 q 384 647 454 711 q 274 506 314 582 q 216 360 233 431 q 199 239 199 289 q 258 -3 199 90 q 419 -142 318 -97 q 643 -186 519 -186 q 802 -161 724 -186 q 949 -93 881 -136 l 1013 -183 q 890 -253 957 -225 q 753 -294 824 -281 q 619 -308 683 -308 m 682 113 q 791 146 744 113 q 864 238 838 179 l 882 365 q 830 453 874 419 q 721 486 786 486 q 619 457 664 486 q 547 381 574 428 q 521 278 521 333 q 566 160 521 208 q 682 113 611 113 z "},"&":{"ha":1015,"x_min":72,"x_max":958,"o":"m 958 0 l 771 0 l 690 107 q 577 19 647 54 q 408 -15 507 -15 q 237 24 313 -15 q 117 132 161 64 q 72 289 72 200 q 108 422 72 361 q 201 525 143 482 q 329 588 260 568 l 301 625 q 270 675 288 644 q 239 744 253 706 q 225 822 225 782 q 254 933 225 879 q 340 1021 283 986 q 479 1056 396 1056 q 637 1019 568 1056 q 749 935 706 983 l 668 828 q 585 894 625 869 q 506 919 544 919 q 421 886 450 919 q 392 808 392 853 q 402 761 392 786 q 424 717 413 736 q 438 693 435 699 l 672 381 l 757 603 l 906 603 l 768 253 l 958 0 m 240 297 q 266 210 240 247 q 335 151 292 172 q 431 129 378 129 q 539 156 496 129 q 606 219 582 182 l 414 475 q 327 447 367 472 q 264 383 288 422 q 240 297 240 343 z "},"¶":{"ha":790,"x_min":54,"x_max":653,"o":"m 283 596 q 167 627 219 596 q 85 710 115 658 q 54 826 54 763 q 85 944 54 892 q 167 1027 115 996 q 283 1058 219 1058 l 653 1058 l 653 0 l 514 0 l 514 922 l 424 922 l 424 0 l 283 0 l 283 596 z "},"§":{"ha":799,"x_min":69,"x_max":729,"o":"m 697 38 q 658 -105 697 -40 q 548 -208 618 -169 q 388 -246 478 -246 q 216 -219 300 -246 q 69 -142 132 -193 l 150 -8 q 378 -101 272 -101 q 485 -71 440 -101 q 529 15 529 -40 q 504 74 529 51 q 440 113 479 97 q 354 138 400 128 q 263 167 310 150 q 178 213 217 185 q 115 280 139 240 q 90 375 90 319 q 131 501 90 453 q 229 571 172 550 q 146 656 171 607 q 121 763 121 706 q 151 883 121 824 q 247 980 182 942 q 417 1018 313 1018 q 569 992 499 1018 q 693 922 639 965 l 622 804 q 525 860 571 844 q 433 879 479 876 q 324 850 358 879 q 289 783 289 821 q 314 726 289 749 q 381 688 339 703 q 472 658 422 672 q 560 631 515 647 q 644 588 606 614 q 706 521 682 561 q 729 421 729 481 q 694 301 729 357 q 593 215 660 246 q 669 144 640 189 q 697 38 697 100 m 571 392 q 547 450 572 425 q 483 491 521 475 q 407 513 444 507 q 294 486 338 515 q 249 414 251 457 q 297 324 247 357 q 415 275 347 292 q 485 292 450 278 q 545 331 521 306 q 571 392 569 357 z "},"©":{"ha":1194,"x_min":97,"x_max":1097,"o":"m 597 -40 q 403 -3 494 -40 q 244 100 313 33 q 136 256 175 167 q 97 451 97 346 q 136 649 97 558 q 244 806 175 739 q 403 909 313 872 q 597 946 494 946 q 791 909 700 946 q 951 806 882 872 q 1058 649 1019 739 q 1097 451 1097 558 q 1059 256 1097 346 q 952 100 1021 167 q 792 -3 883 33 q 597 -40 701 -40 m 597 85 q 783 133 700 85 q 914 263 865 181 q 963 451 963 346 q 914 642 963 558 q 783 772 865 725 q 597 819 700 819 q 411 772 494 819 q 279 642 328 725 q 231 451 231 558 q 278 263 231 346 q 408 133 325 181 q 597 85 490 85 m 813 269 q 726 210 781 238 q 600 182 671 182 q 467 221 526 183 q 374 319 408 258 q 339 453 339 381 q 373 594 339 532 q 468 693 407 657 q 611 729 529 729 q 704 717 653 729 q 786 676 756 704 l 724 557 q 676 585 701 578 q 624 593 650 593 q 534 552 568 593 q 500 457 500 511 q 533 363 500 403 q 625 324 567 324 q 686 336 656 324 q 740 375 717 349 l 813 269 z "},"®":{"ha":719,"x_min":39,"x_max":681,"o":"m 360 381 q 199 422 272 381 q 83 533 126 463 q 39 694 39 604 q 83 856 39 785 q 199 968 126 928 q 360 1008 272 1008 q 520 968 447 1008 q 637 856 593 928 q 681 694 681 785 q 637 533 681 604 q 520 422 593 463 q 360 381 447 381 m 360 465 q 475 495 424 465 q 557 576 526 525 q 588 694 588 628 q 557 812 588 760 q 475 894 526 864 q 360 924 424 924 q 244 894 296 924 q 163 812 193 864 q 132 694 132 760 q 163 576 132 628 q 244 495 193 525 q 360 465 296 465 m 246 854 l 375 854 q 460 827 432 854 q 489 751 489 800 q 476 698 489 724 q 436 658 463 672 l 489 542 l 392 542 l 351 646 l 332 646 l 332 542 l 246 542 l 246 854 m 358 711 q 389 722 381 711 q 397 749 397 732 q 388 777 397 765 q 360 789 379 789 l 332 789 l 332 711 l 358 711 z "},"™":{"ha":807,"x_min":58,"x_max":731,"o":"m 549 679 l 463 799 l 463 650 l 368 650 l 368 1025 l 549 821 l 731 1025 l 731 650 l 633 650 l 633 796 l 549 679 m 58 1010 l 313 1010 l 313 919 l 236 919 l 236 650 l 135 650 l 135 919 l 58 919 l 58 1010 z "},"°":{"ha":397,"x_min":43,"x_max":343,"o":"m 43 790 q 88 896 43 853 q 194 939 132 939 q 299 896 256 939 q 343 790 343 853 q 299 684 343 728 q 194 640 256 640 q 88 684 132 640 q 43 790 43 728 m 194 725 q 240 744 221 725 q 260 789 260 763 q 240 834 260 815 q 194 853 221 853 q 150 834 168 853 q 132 789 132 815 q 150 744 132 763 q 194 725 168 725 z "},"|":{"ha":399,"x_min":125,"x_max":267,"o":"m 125 988 l 267 988 l 267 -328 l 125 -328 l 125 988 z "},"¦":{"ha":303,"x_min":86,"x_max":228,"o":"m 86 988 l 228 988 l 228 494 l 86 494 l 86 988 m 86 165 l 228 165 l 228 -329 l 86 -329 l 86 165 z "},"†":{"ha":417,"x_min":38,"x_max":378,"o":"m 38 657 l 138 657 l 138 861 l 279 861 l 279 657 l 378 657 l 378 521 l 279 521 l 279 -8 l 138 -8 l 138 521 l 38 521 l 38 657 z "},"‡":{"ha":421,"x_min":18,"x_max":403,"o":"m 18 419 l 142 419 l 142 521 l 40 521 l 40 657 l 142 657 l 142 861 l 282 861 l 282 657 l 382 657 l 382 521 l 282 521 l 282 419 l 403 419 l 403 283 l 282 283 l 282 -8 l 142 -8 l 142 283 l 18 283 l 18 419 z "},"№":{"ha":1854,"x_min":139,"x_max":1796,"o":"m 1028 -36 l 299 671 l 303 0 l 139 0 l 139 1046 l 147 1046 l 874 329 l 871 1011 l 1032 1011 l 1032 -36 l 1028 -36 m 1142 714 q 1184 874 1142 803 q 1301 986 1226 944 q 1472 1028 1375 1028 q 1642 986 1569 1028 q 1756 874 1715 944 q 1796 714 1796 803 q 1756 553 1796 625 q 1642 440 1715 482 q 1469 399 1569 399 q 1301 437 1375 399 q 1184 546 1226 475 q 1142 714 1142 617 m 1299 713 q 1321 617 1299 660 q 1381 551 1343 575 q 1468 526 1419 526 q 1591 580 1543 526 q 1639 713 1639 633 q 1591 846 1639 792 q 1468 900 1543 900 q 1381 874 1419 900 q 1320 806 1342 849 q 1299 713 1299 764 m 1206 325 l 1757 325 l 1757 189 l 1206 189 l 1206 325 z "},"^":{"ha":663,"x_min":158,"x_max":497,"o":"m 400 676 q 378 703 394 683 q 347 744 363 724 q 326 772 332 764 q 306 744 321 764 q 275 703 290 724 q 254 676 260 683 l 158 676 q 242 803 200 739 q 326 931 285 867 q 412 803 369 867 q 497 676 454 739 l 400 676 z "}}}
